<?xml version="1.0" encoding="utf-8"?>
<!-- Generator: Adobe Illustrator 24.0.1, SVG Export Plug-In . SVG Version: 6.00 Build 0)  -->
<svg version="1.1" id="Layer_1" xmlns="http://www.w3.org/2000/svg" xmlns:xlink="http://www.w3.org/1999/xlink" x="0px" y="0px"
	 viewBox="0 0 500 500" style="enable-background:new 0 0 500 500;" xml:space="preserve">
<style type="text/css">
	.st0{fill:#FFFFFF;}
	.st1{fill:#E0E0E0;}
	.st2{opacity:0.3;}
	.st3{fill-rule:evenodd;clip-rule:evenodd;fill:#E0E0E0;}
	.st4{fill:#EBEBEB;}
	.st5{fill:#263238;}
	.st6{fill:#FFB400;}
	.st7{fill:#5400FF;}
	.st8{fill:#455A64;}
	.st9{fill:#F5F5F5;}
	.st10{fill:#F0B191;}
	.st11{fill:#FFD7C3;}
	.st12{fill:#F0F0F0;}
</style>
<g id="freepik--background-complete--inject-22">
	<rect x="290.5" y="103.7" class="st0" width="125.2" height="83.8"/>
	<path class="st1" d="M290.3,185.8c0-1,0-2.5,0-4.4c0-3.9,0-9.5,0-16.8c0-14.6-0.1-35.6-0.1-61.1v-0.2h0.2h125.2h0.2v0.2
		c0,29.8,0,58.3,0,83.8v0.2h-0.2l-90.3-0.1l-25.7-0.1h-6.8h-2.3h0.6h1.8h6.9l25.8-0.1l90.2-0.1l-0.2,0.2c0-25.6,0-54,0-83.8l0.2,0.2
		l0,0H290.4l0.2-0.2c0,25.5-0.1,46.4-0.1,61c0,7.3,0,13,0,16.9c0,1.9,0,3.4,0,4.4s0,1.5,0,1.5S290.3,186.8,290.3,185.8z"/>
	<path class="st1" d="M353.2,111.4c-34.6,0-62.6-0.1-62.6-0.2s28-0.2,62.6-0.2s62.6,0.1,62.6,0.2
		C415.8,111.2,387.8,111.4,353.2,111.4z"/>
	<g class="st2">
		<path class="st1" d="M411.8,106.4c0.6,0,1,0.4,1,1s-0.4,1-1,1s-1-0.4-1-1S411.3,106.4,411.8,106.4z"/>
	</g>
	<g class="st2">
		<circle class="st1" cx="408.4" cy="107.4" r="1"/>
	</g>
	<g class="st2">
		<path class="st1" d="M405,106.4c0.6,0,1,0.4,1,1s-0.4,1-1,1c-0.6,0-1-0.4-1-1S404.4,106.4,405,106.4z"/>
	</g>
	<rect x="371.6" y="119.9" class="st1" width="33.4" height="33.4"/>
	<path class="st1" d="M336.8,129.1c16.1,0,29.1,0.1,29.1,0.2s-13,0.2-29.1,0.2s-29.1-0.1-29.1-0.2
		C307.7,129.2,320.7,129.1,336.8,129.1z"/>
	<path class="st1" d="M336.8,135.3c16.1,0,29.1,0.1,29.1,0.2s-13,0.2-29.1,0.2s-29.1-0.1-29.1-0.2S320.7,135.3,336.8,135.3z"/>
	<path class="st1" d="M336.8,141.5c16.1,0,29.1,0.1,29.1,0.2s-13,0.2-29.1,0.2s-29.1-0.1-29.1-0.2
		C307.7,141.6,320.7,141.5,336.8,141.5z"/>
	<path class="st1" d="M332.8,147.9l3.7-0.1c3.1-0.1,7.4-0.1,12.1-0.1s9,0,12.2,0.1l3.7,0.1c0.5,0,0.9,0,1.3,0.1
		c-0.4,0.1-0.9,0.1-1.3,0.1l-3.7,0.1c-3.2,0.1-7.4,0.1-12.2,0.1s-9-0.1-12.1-0.1l-3.7-0.1c-0.5,0-0.9,0-1.4-0.1
		C331.9,147.9,332.4,147.8,332.8,147.9z"/>
	<rect x="387.2" y="164.5" class="st1" width="15.7" height="15.7"/>
	<rect x="358.7" y="164.5" class="st1" width="15.7" height="15.7"/>
	<rect x="330.3" y="164.5" class="st1" width="15.7" height="15.7"/>
	<rect x="301.8" y="164.5" class="st1" width="15.7" height="15.7"/>
	<path class="st3" d="M276.9,85.8l-2.1,0.3l-1.3-3.3l1.8-1.2c-0.1-0.8-0.1-1.5,0.1-2.3l-1.7-1.3l1.4-3.2l2.1,0.4
		c0.5-0.6,1.1-1.1,1.7-1.6l-0.3-2.1l3.3-1.3l1.2,1.8c0.8-0.1,1.5-0.1,2.3,0.1l1.3-1.7l3.2,1.4l-0.4,2.1c0.6,0.5,1.1,1,1.6,1.7
		l2.1-0.3l1.3,3.3l-1.8,1.2c0.1,0.8,0.1,1.5-0.1,2.3l1.7,1.3l-1.4,3.2l-2.1-0.4c-0.5,0.6-1,1.1-1.7,1.6l0.3,2.1l-3.3,1.3l-1.2-1.8
		c-0.8,0.1-1.5,0.1-2.3-0.1l-1.3,1.7l-3.2-1.4l0.4-2.1C277.9,86.9,277.4,86.4,276.9,85.8L276.9,85.8z M280.5,82.1
		C280.5,82.1,280.5,82.2,280.5,82.1c0.8,2,3,2.9,5,2.2c0,0,0,0,0,0c2-0.8,2.9-3,2.2-4.9c-0.8-2-3-2.9-4.9-2.2
		C280.8,78,279.8,80.2,280.5,82.1L280.5,82.1z"/>
	<path class="st3" d="M290.9,66l-3.3,0.5l-2-5.2l2.8-1.9c-0.1-1.2-0.1-2.4,0.1-3.6l-2.7-2l2.3-5.1l3.3,0.7c0.8-0.9,1.6-1.8,2.6-2.5
		l-0.5-3.3l5.2-2l1.9,2.8c1.2-0.1,2.4-0.1,3.6,0.1l2-2.7l5.1,2.3l-0.7,3.3c0.9,0.8,1.8,1.7,2.5,2.7l3.3-0.5l2,5.2l-2.8,1.9
		c0.1,1.2,0.1,2.4-0.1,3.6l2.7,2l-2.3,5.1l-3.3-0.7c-0.8,0.9-1.6,1.8-2.6,2.5l0.5,3.3l-5.2,2l-1.9-2.8c-1.2,0.1-2.4,0.1-3.6-0.1
		l-2,2.7l-5.1-2.3l0.7-3.3C292.5,67.8,291.6,67,290.9,66L290.9,66z M296.6,60.3c1.2,3.1,4.6,4.6,7.7,3.4c0,0,0,0,0,0
		c3.1-1.2,4.6-4.6,3.4-7.7c-1.2-3.1-4.6-4.6-7.7-3.4S295.4,57.2,296.6,60.3C296.6,60.3,296.6,60.3,296.6,60.3z"/>
	<path class="st1" d="M359.6,75.9l-1.6-1.4c-1.3-1.2-3.2-3-5.2-4.9l0-0.1l-0.1-0.1l0.1-0.1c2-1.9,3.9-3.6,5.2-4.8l1.6-1.4
		c0.2-0.2,0.4-0.4,0.6-0.5c-0.2,0.2-0.3,0.4-0.5,0.6l-1.5,1.5c-1.3,1.3-3.1,3-5.1,4.8v-0.3h0c2,1.9,3.8,3.7,5.1,4.9l1.5,1.5
		c0.2,0.2,0.4,0.4,0.5,0.6C360,76.2,359.8,76.1,359.6,75.9z"/>
	<path class="st1" d="M376.5,63.1l1.6,1.4c1.3,1.2,3.2,3,5.2,4.9h0l0.1,0.1l-0.1,0.1c-2,1.9-3.9,3.6-5.2,4.8c-0.6,0.6-1.2,1-1.6,1.4
		c-0.2,0.2-0.4,0.3-0.6,0.5c0.2-0.2,0.3-0.4,0.5-0.6l1.5-1.5c1.3-1.3,3.1-3,5.1-4.8v0.3l0,0c-2-1.9-3.8-3.7-5.1-4.9L376.5,63.1
		c-0.2-0.1-0.4-0.3-0.6-0.5C376.1,62.8,376.3,62.9,376.5,63.1z"/>
	<path class="st1" d="M367.9,69.5c-2.1-5.6-3.8-10.2-3.7-10.3s1.9,4.5,4,10.2s3.8,10.3,3.7,10.3C371.8,79.7,370,75.1,367.9,69.5z"/>
	<path class="st1" d="M342.3,88.6c0-0.5,0-1.2,0-2.2c0-1.9,0-4.8,0-8.4c0-7.2-0.1-17.6-0.1-30.1v-0.2h0.1h50.8h0.2V48
		c0,15,0,29.1,0,41.4v0.2h-0.2l-36.8-0.1l-10.4-0.1h-2.7h2.8h10.4l36.7-0.1l-0.2,0.2c0-12.3,0-26.4,0-41.4l0.2,0.2l0,0h-50.8
		l0.1-0.2c-0.1,12.5-0.1,22.8-0.1,30c0,3.6,0,6.4,0,8.4c0,1,0,1.7,0,2.2s0,0.8,0,0.8S342.3,89.1,342.3,88.6z"/>
	<path class="st1" d="M367.7,54.1c14.1,0,25.6,0.1,25.6,0.2s-11.5,0.2-25.6,0.2s-25.6-0.1-25.6-0.2S353.6,54.1,367.7,54.1z"/>
	<path class="st1" d="M389.1,51.2c0-0.4,0.3-0.7,0.7-0.7s0.7,0.3,0.7,0.7c0,0.4-0.3,0.7-0.7,0.7l0,0
		C389.5,51.9,389.1,51.6,389.1,51.2L389.1,51.2z"/>
	<circle class="st1" cx="387.3" cy="51.2" r="0.7"/>
	<path class="st1" d="M384.2,51.2c0-0.4,0.3-0.7,0.7-0.7s0.7,0.3,0.7,0.7s-0.3,0.7-0.7,0.7S384.2,51.6,384.2,51.2L384.2,51.2z"/>
	<rect x="102.1" y="40.3" class="st0" width="117.4" height="47.7"/>
	<path class="st1" d="M102.1,87.1c0-0.6,0-1.4,0-2.4c0-2.2,0-5.4,0-9.5c0-8.3-0.1-20.2-0.1-34.9v-0.3h0.1h117.4h0.2v0.2
		c0,16.7,0,32.8,0,47.7V88h-0.2l-84.3-0.1h-24.4h-6.5l0,0h6.5l24.4-0.1l84.2-0.1l-0.2,0.2V40.2l0.1,0.2l0,0l-117.4-0.1l0.1-0.1
		c-0.1,14.7-0.1,26.6-0.1,34.9c0,4.1,0,7.3,0,9.5C102.1,85.7,102.1,86.5,102.1,87.1c0,0.6,0,0.9,0,0.9S102.1,87.7,102.1,87.1z"/>
	<path class="st1" d="M160.8,46.9c-32.4,0-58.6-0.1-58.6-0.2s26.2-0.2,58.6-0.2s58.6,0.1,58.6,0.2C219.4,46.8,193.1,46.9,160.8,46.9
		z"/>
	<g class="st2">
		<path class="st4" d="M214.5,43.8c0-0.5,0.4-0.8,0.9-0.8c0.5,0,0.9,0.4,0.9,0.9c0,0.5-0.4,0.8-0.9,0.8l0,0
			C214.9,44.7,214.5,44.3,214.5,43.8C214.5,43.8,214.5,43.8,214.5,43.8z"/>
	</g>
	<g class="st2">
		<path class="st4" d="M211.6,43.8c0-0.5,0.4-0.8,0.9-0.8c0.5,0,0.9,0.4,0.9,0.9c0,0.5-0.4,0.8-0.9,0.8l0,0
			C212,44.7,211.6,44.3,211.6,43.8C211.6,43.8,211.6,43.8,211.6,43.8z"/>
	</g>
	<g class="st2">
		<circle class="st4" cx="209.6" cy="43.8" r="0.9"/>
	</g>
	<rect x="181.2" y="54.5" class="st1" width="28.4" height="28.3"/>
	<path class="st1" d="M142.8,61.9c18,0,32.6,0.1,32.6,0.2s-14.6,0.2-32.6,0.2s-32.6-0.1-32.6-0.2S124.8,61.9,142.8,61.9z"/>
	<path class="st1" d="M142.8,67.6c18,0,32.6,0.1,32.6,0.2S160.8,68,142.8,68s-32.6-0.1-32.6-0.2C110.3,67.7,124.8,67.6,142.8,67.6z"
		/>
	<path class="st1" d="M133.9,73.6h1.2l4.5-0.1h14.8h14.8l4.5,0.1h1.2c0.1,0,0.3,0,0.4,0c-0.1,0-0.3,0-0.4,0h-1.2l-4.5,0.1l-14.8,0.1
		l-14.8-0.1l-4.5-0.1H133.9c-0.1,0-0.3,0-0.4,0C133.6,73.6,133.8,73.6,133.9,73.6z"/>
</g>
<g id="freepik--Screens--inject-22">
	<rect x="21.9" y="120.9" class="st0" width="143.9" height="117.2"/>
	<path class="st5" d="M21.7,235.8c0-1.4,0-3.5,0-6.2c0-5.5-0.1-13.5-0.1-23.7c0-20.5-0.1-49.8-0.1-85.2v-0.2h0.2h143.9h0.3v0.3
		c0,42.4,0,82.4,0,117.2v0.2h-0.2l-104.1-0.1l-29.4-0.1h-7.8h-2.6h0.7h2h7.8l29.4-0.1l104-0.1l-0.2,0.2c0-34.8,0-74.8,0-117.2
		l0.3,0.3l0,0H21.8l0.2-0.2c0,35.3-0.1,64.5-0.1,85c0,10.2,0,18.3,0,23.8c0,2.7,0,4.9,0,6.3s0,2.2,0,2.2S21.7,237.3,21.7,235.8z"/>
	<path class="st6" d="M148.2,137.3l2.2,0.8v0.6l-2.2,0.8V139l1.5-0.6l-1.5-0.6V137.3z"/>
	<path class="st6" d="M145.3,136.8v1.3h1.5v-1.3h0.8v3.3h-0.8v-1.3h-1.5v1.3h-0.8v-3.3H145.3z"/>
	<path class="st6" d="M143.1,140h-0.8v-2.6h-1v-0.6h2.8v0.6h-1V140z"/>
	<path class="st6" d="M137.3,140v-3.3h0.6l1.2,2l1.2-2h0.6v3.3h-0.7v-1.9l-1,1.6H139l-1-1.6v2L137.3,140z"/>
	<path class="st6" d="M136.4,140h-2.4v-0.6h1.7v-2.6h0.8L136.4,140z"/>
	<path class="st6" d="M133.8,137.3v0.5l-1.5,0.6l1.5,0.6v0.6l-2.2-0.8v-0.6L133.8,137.3z"/>
	<path d="M138,146.3l2.1,0.8v0.4l-2.1,0.8V148l1.6-0.6l-1.6-0.6V146.3z"/>
	<path d="M134.9,145.7v1.4h1.9v-1.4h0.5v3.3h-0.5v-1.4h-1.9v1.4h-0.5v-3.3H134.9z"/>
	<path d="M133,148.5v-1h-1.6v-0.4h1.6v-1h-1.8v-0.4h2.3v3.3h-2.4v-0.4L133,148.5z"/>
	<path d="M127.9,149h-0.5l1.5-3.3h0.5l1.5,3.3h-0.5l-0.4-0.8h-1.7L127.9,149z M129.8,147.8l-0.7-1.6l-0.7,1.6H129.8z"/>
	<path d="M126.9,149h-1.4c-0.1,0-0.2,0-0.3,0c-0.9-0.1-1.6-0.9-1.5-1.8c0.1-0.9,0.9-1.6,1.8-1.5h1.4V149z M126.5,148.6v-2.4h-0.9
		l0,0c-0.7,0-1.2,0.5-1.2,1.2s0.5,1.2,1.2,1.2H126.5z"/>
	<path d="M123.3,146.3v0.4l-1.6,0.6l1.6,0.6v0.4l-2.1-0.8v-0.4L123.3,146.3z"/>
	<path class="st5" d="M93.5,130.4c39.6,0,71.7,0.1,71.7,0.3s-32.1,0.3-71.7,0.3s-71.7-0.1-71.7-0.3
		C21.9,130.5,53.9,130.4,93.5,130.4z"/>
	<path class="st5" d="M161.8,124.6c0.5,0,0.9,0.4,0.9,0.9c0,0.5-0.4,0.9-0.9,0.9c-0.5,0-0.9-0.4-0.9-0.9
		C160.9,125,161.3,124.6,161.8,124.6z"/>
	<circle class="st5" cx="158.3" cy="125.5" r="0.9"/>
	<path class="st5" d="M154.7,124.6C154.8,124.6,154.8,124.6,154.7,124.6c0.5,0,0.9,0.4,0.9,0.9s-0.4,0.9-0.9,0.9
		c-0.5,0-0.9-0.4-0.9-0.9C153.8,125,154.2,124.6,154.7,124.6z"/>
	<path class="st1" d="M155.8,184.7c0-30,0.1-54.3,0.3-54.3s0.3,24.3,0.3,54.3s-0.1,54.3-0.3,54.3C156,239.1,155.8,214.8,155.8,184.7
		z"/>
	<rect x="118.7" y="113.5" class="st6" width="59.2" height="42.2"/>
	<path class="st0" d="M148.1,119.5c16.5,0,29.9,0.1,29.9,0.3s-13.4,0.3-29.9,0.3s-29.9-0.1-29.9-0.3
		C118.2,119.6,131.6,119.5,148.1,119.5z"/>
	<path class="st0" d="M173.1,116.7c0-0.4,0.4-0.7,0.8-0.7c0,0,0.1,0,0.1,0c0.4,0.1,0.8,0.5,0.7,0.9c-0.1,0.4-0.5,0.8-0.9,0.7
		C173.3,117.5,173,117.1,173.1,116.7C173.1,116.7,173.1,116.7,173.1,116.7z"/>
	<path class="st0" d="M170.8,116c0.4,0,0.7,0.2,0.8,0.6s-0.2,0.7-0.6,0.8c0,0,0,0,0,0c-0.4,0-0.8-0.3-0.8-0.7
		C170.1,116.3,170.4,116,170.8,116z"/>
	<ellipse class="st0" cx="168.1" cy="116.6" rx="0.8" ry="0.7"/>
	<rect x="59.4" y="233.1" class="st6" width="53.6" height="38.2"/>
	<path class="st0" d="M86,238.7c14.9,0,27,0.1,27,0.2s-12.1,0.2-27,0.2s-27-0.1-27-0.2C59,238.7,71.1,238.7,86,238.7z"/>
	<path class="st0" d="M109.2,235.4c0.4-0.1,0.8,0.2,0.8,0.6c-0.1,0.3-0.3,0.5-0.6,0.6c-0.4,0.1-0.8-0.2-0.8-0.6
		C108.7,235.7,108.9,235.5,109.2,235.4z"/>
	<path class="st0" d="M106.6,235.4c0.4-0.1,0.8,0.2,0.8,0.6c-0.1,0.3-0.3,0.5-0.6,0.6c-0.4,0.1-0.8-0.2-0.8-0.6
		C106,235.7,106.3,235.5,106.6,235.4z"/>
	<path class="st0" d="M104.1,235.4c0,0,0.1,0,0.1,0c0.4,0.1,0.7,0.4,0.6,0.8c-0.1,0.4-0.4,0.7-0.8,0.6c-0.4-0.1-0.7-0.4-0.6-0.8
		C103.4,235.6,103.7,235.4,104.1,235.4z"/>
	<path class="st6" d="M204.5,139.6c0-0.5,0-1.2,0-2.2c0-2,0-4.9,0-8.5c0-7.4-0.1-18.1-0.1-31.1v-0.2h0.2l65.9-0.1h0.3v0.1
		c0,15.1,0,29.6,0,42.6v0.2h-0.2l-47.6-0.1l-13.5-0.1h-3.6h-0.9l0,0h0.9h3.6l13.6-0.1l47.4-0.1l-0.2,0.2c0-13,0-27.4,0-42.6l0.3,0.3
		l0,0h-65.9l0.2-0.2c0,13-0.1,23.6-0.1,31c-0.1,3.7-0.1,6.6-0.1,8.6c0,1,0,1.8,0,2.3c0,0.5,0,0.8,0,0.8S204.5,140.1,204.5,139.6z"/>
	<path class="st6" d="M237.6,103.8c18.2,0,33,0.1,33,0.3s-14.8,0.3-33,0.3s-33-0.1-33-0.3C204.6,103.9,219.4,103.8,237.6,103.8z"/>
	<path class="st6" d="M265.6,101c0-0.4,0.4-0.7,0.8-0.7c0,0,0.1,0,0.1,0c0.4,0.1,0.8,0.5,0.7,0.9c-0.1,0.4-0.5,0.8-0.9,0.7
		C265.9,101.8,265.6,101.4,265.6,101C265.6,101,265.6,101,265.6,101z"/>
	<path class="st6" d="M262.7,101c0-0.4,0.4-0.7,0.8-0.7c0,0,0.1,0,0.1,0c0.4,0.1,0.8,0.5,0.7,0.9c-0.1,0.4-0.5,0.8-0.9,0.7
		C263,101.8,262.7,101.4,262.7,101C262.7,101,262.7,101,262.7,101z"/>
	<path class="st6" d="M259.8,101c0-0.4,0.4-0.7,0.8-0.7c0,0,0.1,0,0.1,0c0.4,0.1,0.8,0.5,0.7,0.9c-0.1,0.4-0.5,0.8-0.9,0.7
		C260.1,101.8,259.8,101.4,259.8,101C259.8,101,259.8,101,259.8,101z"/>
	<g>
		<path class="st0" d="M70.7,255.8c0.5,0,0.9,0.1,1.3,0.4c0.3,0.3,0.5,0.7,0.5,1.1c0,0.5-0.2,0.8-0.5,1.1c-0.3,0.3-0.8,0.4-1.3,0.4
			c-0.5,0-0.9-0.1-1.3-0.4c-0.3-0.3-0.5-0.7-0.5-1.1s0.2-0.8,0.5-1.1C69.8,256,70.2,255.8,70.7,255.8z"/>
		<path class="st0" d="M74.2,253.8c0-1,0.2-1.9,0.6-2.7c0.4-0.8,1-1.4,1.7-1.8s1.6-0.6,2.6-0.6c1.5,0,2.7,0.5,3.6,1.4
			s1.3,2.2,1.3,3.8v0.1c0,1.6-0.4,2.8-1.3,3.7s-2.1,1.4-3.6,1.4c-1.5,0-2.6-0.4-3.5-1.3s-1.4-2-1.4-3.5L74.2,253.8z M77.4,254
			c0,0.9,0.1,1.6,0.4,2s0.7,0.6,1.3,0.6c1.1,0,1.7-0.9,1.7-2.6v-0.3c0-1.8-0.6-2.7-1.8-2.7c-1.1,0-1.6,0.8-1.7,2.3L77.4,254z"/>
		<path class="st0" d="M91.7,251.8l-1-0.1c-1,0-1.7,0.3-1.9,0.9v6.3h-3.2v-10h3l0.1,1.3c0.5-1,1.3-1.5,2.2-1.5c0.3,0,0.6,0,0.9,0.1
			L91.7,251.8z"/>
		<path class="st0" d="M92.4,253.9c0-1,0.2-1.9,0.5-2.7c0.3-0.8,0.8-1.4,1.5-1.8c0.6-0.4,1.4-0.6,2.2-0.6c1.1,0,1.9,0.4,2.5,1.1
			l0.1-0.9h2.9v9.6c0,0.9-0.2,1.7-0.6,2.3c-0.4,0.7-1,1.2-1.8,1.5s-1.7,0.5-2.8,0.5c-0.7,0-1.5-0.1-2.2-0.4
			c-0.7-0.3-1.2-0.6-1.6-1.1l1.3-1.8c0.6,0.7,1.4,1,2.4,1c1.4,0,2.1-0.7,2.1-2.1v-0.3c-0.6,0.7-1.4,1-2.3,1c-1.2,0-2.3-0.5-3-1.4
			c-0.8-0.9-1.2-2.2-1.2-3.8V253.9z M95.6,254.1c0,0.8,0.2,1.5,0.5,1.9s0.8,0.7,1.3,0.7c0.7,0,1.2-0.2,1.5-0.7v-4.2
			c-0.3-0.5-0.8-0.7-1.5-0.7c-0.6,0-1,0.2-1.3,0.7C95.8,252.4,95.6,253.1,95.6,254.1z"/>
	</g>
	<g>
		<path class="st0" d="M130.6,138.9c0.5,0,0.9,0.1,1.3,0.4c0.3,0.3,0.5,0.7,0.5,1.1s-0.2,0.8-0.5,1.1c-0.3,0.3-0.8,0.4-1.3,0.4
			c-0.5,0-0.9-0.1-1.3-0.4c-0.3-0.3-0.5-0.7-0.5-1.1s0.2-0.8,0.5-1.1C129.7,139,130.1,138.9,130.6,138.9z"/>
		<path class="st0" d="M138.8,139.8c0.4,0,0.8-0.1,1-0.4c0.2-0.2,0.4-0.6,0.4-1h3c0,1.1-0.4,2-1.2,2.7s-1.8,1.1-3.1,1.1
			c-1.5,0-2.7-0.5-3.5-1.4c-0.9-0.9-1.3-2.2-1.3-3.8v-0.1c0-1,0.2-1.9,0.6-2.7s0.9-1.4,1.7-1.8c0.7-0.4,1.6-0.6,2.6-0.6
			c1.3,0,2.4,0.4,3.2,1.1c0.8,0.7,1.2,1.7,1.2,2.9h-3c0-0.5-0.1-0.9-0.4-1.2c-0.3-0.3-0.6-0.4-1-0.4c-0.8,0-1.3,0.5-1.4,1.6
			c0,0.3-0.1,0.8-0.1,1.4c0,1,0.1,1.7,0.4,2.1S138.3,139.8,138.8,139.8z"/>
		<path class="st0" d="M144.1,136.9c0-1,0.2-1.9,0.6-2.7s1-1.4,1.7-1.8s1.6-0.6,2.6-0.6c1.5,0,2.7,0.5,3.6,1.4s1.3,2.2,1.3,3.8v0.1
			c0,1.6-0.4,2.8-1.3,3.7c-0.9,0.9-2.1,1.4-3.6,1.4c-1.5,0-2.6-0.4-3.5-1.3c-0.9-0.9-1.4-2-1.4-3.5L144.1,136.9z M147.3,137.1
			c0,0.9,0.1,1.6,0.4,2s0.7,0.6,1.3,0.6c1.1,0,1.7-0.9,1.7-2.6v-0.3c0-1.8-0.6-2.7-1.8-2.7c-1.1,0-1.6,0.8-1.7,2.3L147.3,137.1z"/>
		<path class="st0" d="M158.4,132l0.1,1.2c0.7-0.9,1.7-1.4,2.9-1.4c1.3,0,2.2,0.5,2.6,1.5c0.7-1,1.7-1.5,3-1.5
			c2.1,0,3.1,1.2,3.2,3.7v6.5h-3.2v-6.3c0-0.5-0.1-0.9-0.3-1.1c-0.2-0.2-0.5-0.4-1-0.4c-0.6,0-1.1,0.3-1.4,0.8l0,0.1v6.8h-3.2v-6.3
			c0-0.5-0.1-0.9-0.3-1.1c-0.2-0.2-0.5-0.4-1-0.4c-0.6,0-1.1,0.3-1.4,0.8v7h-3.2v-10H158.4z"/>
	</g>
</g>
<g id="freepik--Floor--inject-172">
	<path class="st5" d="M242.7,447.8c112.9,0,204.3,0.1,204.3,0.3s-91.5,0.3-204.3,0.3s-204.3-0.1-204.3-0.3
		C38.4,447.9,129.9,447.8,242.7,447.8z"/>
</g>
<g id="freepik--Sparkles--inject-172">
	<path class="st6" d="M138.2,248.7c-1.5,0.3-3.2,0.3-4.7,0C135.1,248.4,136.7,248.4,138.2,248.7z"/>
	<path class="st6" d="M131,247.1c-0.3-1.6-0.3-3.2,0-4.8C131.4,243.9,131.4,245.5,131,247.1z"/>
	<path class="st6" d="M123.7,248.6c1.5-0.3,3.2-0.3,4.7,0C126.8,248.9,125.2,248.9,123.7,248.6z"/>
	<path class="st6" d="M130.9,250.2c0.3,1.6,0.3,3.2,0,4.8C130.5,253.4,130.5,251.8,130.9,250.2z"/>
	<path class="st6" d="M127.7,251c0.4-0.6,0.9-0.9,1-0.8s-0.2,0.6-0.6,1.2c-0.4,0.6-0.9,0.9-1,0.8C127,252.1,127.3,251.6,127.7,251z"
		/>
	<path class="st6" d="M128.3,245.6c0.5,0.5,0.8,1,0.7,1.1s-0.6-0.2-1.1-0.7c-0.5-0.5-0.8-1-0.7-1.1
		C127.4,244.8,127.9,245.2,128.3,245.6z"/>
	<path class="st6" d="M133.3,245.9c0.5-0.4,0.9-0.6,1-0.5s-0.2,0.5-0.7,0.9c-0.5,0.4-0.9,0.6-1,0.5
		C132.6,246.7,132.9,246.3,133.3,245.9z"/>
	<path class="st6" d="M133.9,250.7c0.4,0.4,0.7,0.9,0.6,1c-0.1,0.1-0.6-0.3-1-0.7s-0.7-0.9-0.6-1C133,249.9,133.5,250.2,133.9,250.7
		z"/>
</g>
<g>
	<path class="st6" d="M227.7,126.8c0.6,0,1.2,0.2,1.6,0.6c0.4,0.4,0.6,0.8,0.6,1.4c0,0.6-0.2,1.1-0.6,1.4c-0.4,0.4-1,0.6-1.6,0.6
		c-0.7,0-1.2-0.2-1.6-0.6c-0.4-0.4-0.6-0.9-0.6-1.4c0-0.6,0.2-1,0.6-1.4C226.5,127,227,126.8,227.7,126.8z"/>
	<path class="st6" d="M232.6,114.7c0-0.6,0.2-1,0.6-1.4c0.4-0.4,1-0.5,1.6-0.5s1.2,0.2,1.6,0.5c0.4,0.4,0.6,0.8,0.6,1.4
		c0,0.6-0.2,1-0.6,1.4c-0.4,0.4-1,0.5-1.6,0.5s-1.2-0.2-1.6-0.5S232.6,115.3,232.6,114.7z M236.9,130.8h-4.1V118h4.1V130.8z"/>
	<path class="st6" d="M247.3,121.6l-1.3-0.1c-1.3,0-2.1,0.4-2.5,1.2v8.1h-4.1V118h3.8l0.1,1.6c0.7-1.3,1.6-1.9,2.9-1.9
		c0.4,0,0.8,0,1.1,0.1L247.3,121.6z"/>
</g>
<path class="st7" d="M142.7,209.8c0.5-1.4,0.9-2.8,1.2-4.3c1.9-11.4-5.8-22.1-17.1-24c-0.6-13-10.1-23.9-23-26.2
	c-15.2-2.7-29.6,7.4-32.3,22.6c-9.2-2.1-18.7,1-24.9,8.1c-6,7-8.1,15.8-4.5,24.3L142.7,209.8z"/>
<polygon class="st0" points="93,209.9 93,195.7 86,195.7 96.7,180.7 107.4,195.8 100.3,195.8 100.3,209.9 "/>
<g id="freepik--Server--inject-27">
	<path class="st5" d="M262.4,187.3c0-11,0.1-23.9,0.2-23.9c0.1,0,0.2,12.9,0.2,23.9s-0.1,19.9-0.2,19.9
		C262.5,207.2,262.4,198.3,262.4,187.3z"/>
	<path class="st5" d="M242.6,163.6c-11,0-76.9-0.1-76.9-0.2c0-0.1,65.9-0.2,76.9-0.2s19.9,0.1,19.9,0.2
		C262.5,163.5,253.6,163.6,242.6,163.6z"/>
	<rect x="68.1" y="342.3" class="st5" width="86.6" height="100"/>
	<rect x="72.7" y="362.3" class="st8" width="94.7" height="24.7"/>
	<rect x="144.5" y="367.4" class="st5" width="18.6" height="3"/>
	<rect x="144.5" y="372.6" class="st5" width="18.6" height="3"/>
	<rect x="144.5" y="378" class="st5" width="18.6" height="3"/>
	<path class="st5" d="M137.2,369.3c0-0.6,0.5-1.1,1.1-1.1c0.6,0,1.1,0.5,1.1,1.1c0,0.6-0.5,1.1-1.1,1.1
		C137.6,370.4,137.2,369.9,137.2,369.3L137.2,369.3z"/>
	<path class="st5" d="M132.4,369.3c0-0.6,0.5-1.1,1.1-1.1c0.6,0,1.1,0.5,1.1,1.1c0,0.6-0.5,1.1-1.1,1.1
		C132.9,370.4,132.4,369.9,132.4,369.3L132.4,369.3z"/>
	<path class="st5" d="M127.7,369.3c0-0.6,0.5-1.1,1.1-1.1c0.6,0,1.1,0.5,1.1,1.1c0,0.6-0.5,1.1-1.1,1.1
		C128.2,370.4,127.7,369.9,127.7,369.3L127.7,369.3z"/>
	<path class="st5" d="M123,369.3c0-0.6,0.5-1.1,1.1-1.1c0.6,0,1.1,0.5,1.1,1.1c0,0.6-0.5,1.1-1.1,1.1
		C123.5,370.4,123,369.9,123,369.3L123,369.3z"/>
	<path class="st5" d="M86.4,369.3c0-0.6,0.5-1.1,1.1-1.1c0.6,0,1.1,0.5,1.1,1.1c0,0.6-0.5,1.1-1.1,1.1
		C86.9,370.4,86.4,369.9,86.4,369.3L86.4,369.3z"/>
	<path class="st5" d="M81.6,369.3c0-0.6,0.5-1.1,1.1-1.1c0.6,0,1.1,0.5,1.1,1.1c0,0.6-0.5,1.1-1.1,1.1
		C82.1,370.4,81.6,369.9,81.6,369.3L81.6,369.3z"/>
	<path class="st5" d="M118.3,369.3c0-0.6,0.5-1.1,1.1-1.1c0.6,0,1.1,0.5,1.1,1.1c0,0.6-0.5,1.1-1.1,1.1
		C118.8,370.4,118.3,369.9,118.3,369.3L118.3,369.3z"/>
	<path class="st5" d="M95.1,369.3c0-0.6,0.5-1.1,1.1-1.1c0.6,0,1.1,0.5,1.1,1.1c0,0.6-0.5,1.1-1.1,1.1
		C95.6,370.4,95.1,369.9,95.1,369.3L95.1,369.3z"/>
	<path class="st9" d="M113.6,369.3c0-0.6,0.5-1.1,1.1-1.1c0.6,0,1.1,0.5,1.1,1.1c0,0.6-0.5,1.1-1.1,1.1
		C114,370.4,113.6,369.9,113.6,369.3L113.6,369.3z"/>
	<path class="st9" d="M109.9,368.1C109.9,368.1,109.9,368.1,109.9,368.1c0.6,0,1.1,0.5,1.1,1.1c0,0.6-0.5,1.1-1.1,1.1
		c-0.6,0-1.1-0.5-1.1-1.1C108.9,368.6,109.3,368.1,109.9,368.1z"/>
	<path class="st9" d="M100.3,368.1C100.3,368.1,100.3,368.1,100.3,368.1c0.6,0,1.1,0.5,1.1,1.1c0,0.6-0.5,1.1-1.1,1.1
		c-0.6,0-1.1-0.5-1.1-1.1C99.3,368.6,99.7,368.1,100.3,368.1z"/>
	<path class="st9" d="M77.7,369.3c0-0.6,0.5-1.1,1.1-1.1c0.6,0,1.1,0.5,1.1,1.1c0,0.6-0.5,1.1-1.1,1.1
		C78.2,370.4,77.7,369.9,77.7,369.3L77.7,369.3z"/>
	<path class="st6" d="M104.1,369.3c0-0.6,0.5-1.1,1.1-1.1c0,0,0,0,0,0c0.6,0,1.1,0.5,1.1,1.1c0,0.6-0.5,1.1-1.1,1.1
		C104.6,370.4,104.1,369.9,104.1,369.3L104.1,369.3z"/>
	<path class="st6" d="M90.6,369.3c0-0.6,0.5-1.1,1.1-1.1c0.6,0,1.1,0.5,1.1,1.1c0,0.6-0.5,1.1-1.1,1.1
		C91.1,370.4,90.6,369.9,90.6,369.3L90.6,369.3z"/>
	<path class="st5" d="M79.8,374.7c0,0.6-0.5,1.1-1.1,1.1c-0.6,0-1.1-0.5-1.1-1.1c0-0.6,0.5-1.1,1.1-1.1
		C79.4,373.6,79.8,374.1,79.8,374.7L79.8,374.7z"/>
	<path class="st5" d="M83.5,375.8C83.5,375.8,83.5,375.8,83.5,375.8c-0.6,0-1.1-0.5-1.1-1.1c0-0.6,0.5-1.1,1.1-1.1
		c0.6,0,1.1,0.5,1.1,1.1C84.6,375.3,84.1,375.8,83.5,375.8z"/>
	<path class="st5" d="M89.3,374.7c0,0.6-0.5,1.1-1.1,1.1c0,0,0,0,0,0c-0.6,0-1.1-0.5-1.1-1.1c0-0.6,0.5-1.1,1.1-1.1
		C88.8,373.5,89.3,374.1,89.3,374.7L89.3,374.7z"/>
	<path class="st5" d="M94,374.7c0,0.6-0.5,1.1-1.1,1.1c0,0,0,0,0,0c-0.6,0-1.1-0.5-1.1-1.1c0-0.6,0.5-1.1,1.1-1.1
		C93.5,373.5,94,374.1,94,374.7L94,374.7z"/>
	<path class="st5" d="M130.6,374.7c0,0.6-0.5,1.1-1.1,1.1c0,0,0,0,0,0c-0.6,0-1.1-0.5-1.1-1.1c0-0.6,0.5-1.1,1.1-1.1
		C130.1,373.5,130.6,374.1,130.6,374.7L130.6,374.7z"/>
	<path class="st5" d="M135.4,374.7c0,0.6-0.5,1.1-1.1,1.1c-0.6,0-1.1-0.5-1.1-1.1c0-0.6,0.5-1.1,1.1-1.1
		C134.9,373.6,135.4,374.1,135.4,374.7L135.4,374.7z"/>
	<path class="st5" d="M98.7,374.7c0,0.6-0.5,1.1-1.1,1.1c-0.6,0-1.1-0.5-1.1-1.1c0-0.6,0.5-1.1,1.1-1.1
		C98.2,373.6,98.7,374.1,98.7,374.7L98.7,374.7z"/>
	<path class="st5" d="M121.9,374.7c0,0.6-0.5,1.1-1.1,1.1c-0.6,0-1.1-0.5-1.1-1.1c0-0.6,0.5-1.1,1.1-1.1
		C121.4,373.6,121.9,374.1,121.9,374.7L121.9,374.7z"/>
	<path class="st9" d="M103.4,374.7c0,0.6-0.5,1.1-1.1,1.1c-0.6,0-1.1-0.5-1.1-1.1c0-0.6,0.5-1.1,1.1-1.1
		C103,373.6,103.4,374.1,103.4,374.7L103.4,374.7z"/>
	<path class="st9" d="M108.1,374.7c0,0.6-0.5,1.1-1.1,1.1c-0.6,0-1.1-0.5-1.1-1.1c0-0.6,0.5-1.1,1.1-1.1
		C107.7,373.6,108.1,374.1,108.1,374.7L108.1,374.7z"/>
	<path class="st9" d="M117.7,374.7c0,0.6-0.5,1.1-1.1,1.1c-0.6,0-1.1-0.5-1.1-1.1c0-0.6,0.5-1.1,1.1-1.1
		C117.2,373.6,117.7,374.1,117.7,374.7L117.7,374.7z"/>
	<path class="st9" d="M139.3,374.7c0,0.6-0.5,1.1-1.1,1.1s-1.1-0.5-1.1-1.1c0-0.6,0.5-1.1,1.1-1.1S139.3,374.1,139.3,374.7
		L139.3,374.7z"/>
	<path class="st6" d="M112.9,374.7c0,0.6-0.5,1.1-1.1,1.1c-0.6,0-1.1-0.5-1.1-1.1c0-0.6,0.5-1.1,1.1-1.1
		C112.4,373.6,112.9,374.1,112.9,374.7L112.9,374.7z"/>
	<path class="st6" d="M125.3,375.8C125.3,375.8,125.3,375.8,125.3,375.8c-0.6,0-1.1-0.5-1.1-1.1c0-0.6,0.5-1.1,1.1-1.1
		c0.6,0,1.1,0.5,1.1,1.1C126.4,375.3,125.9,375.8,125.3,375.8z"/>
	<ellipse class="st5" cx="138.2" cy="379.5" rx="1.1" ry="1.1"/>
	<ellipse class="st5" cx="133.5" cy="379.5" rx="1.1" ry="1.1"/>
	<ellipse class="st5" cx="128.8" cy="379.5" rx="1.1" ry="1.1"/>
	<ellipse class="st5" cx="124.1" cy="379.5" rx="1.1" ry="1.1"/>
	<ellipse class="st5" cx="87.5" cy="379.5" rx="1.1" ry="1.1"/>
	<ellipse class="st5" cx="82.7" cy="379.5" rx="1.1" ry="1.1"/>
	<ellipse class="st5" cx="119.3" cy="379.5" rx="1.1" ry="1.1"/>
	<path class="st5" d="M95.1,379.5c0-0.6,0.5-1.1,1.1-1.1c0.6,0,1.1,0.5,1.1,1.1c0,0.6-0.5,1.1-1.1,1.1
		C95.6,380.6,95.1,380.1,95.1,379.5L95.1,379.5z"/>
	<ellipse class="st9" cx="114.6" cy="379.5" rx="1.1" ry="1.1"/>
	<path class="st9" d="M109.9,378.4C109.9,378.4,109.9,378.4,109.9,378.4c0.6,0,1.1,0.5,1.1,1.1c0,0.6-0.5,1.1-1.1,1.1
		c-0.6,0-1.1-0.5-1.1-1.1C108.9,378.9,109.3,378.4,109.9,378.4z"/>
	<ellipse class="st9" cx="100.3" cy="379.5" rx="1.1" ry="1.1"/>
	<path class="st9" d="M77.7,379.5c0-0.6,0.5-1.1,1.1-1.1c0.6,0,1.1,0.5,1.1,1.1c0,0.6-0.5,1.1-1.1,1.1
		C78.2,380.6,77.7,380.1,77.7,379.5L77.7,379.5z"/>
	<ellipse class="st6" cx="105.2" cy="379.5" rx="1.1" ry="1.1"/>
	<ellipse class="st6" cx="91.7" cy="379.5" rx="1.1" ry="1.1"/>
	<rect x="72.7" y="392.8" class="st8" width="94.7" height="24.7"/>
	<path class="st5" d="M137.4,399.5c0-0.6,0.5-1.1,1.1-1.1c0.6,0,1.1,0.5,1.1,1.1s-0.5,1.1-1.1,1.1
		C137.9,400.6,137.4,400.1,137.4,399.5L137.4,399.5z"/>
	<path class="st5" d="M132.7,399.5c0-0.6,0.5-1.1,1.1-1.1s1.1,0.5,1.1,1.1s-0.5,1.1-1.1,1.1S132.7,400.1,132.7,399.5L132.7,399.5z"
		/>
	<path class="st5" d="M129,398.4C129,398.4,129,398.4,129,398.4c0.6,0,1.1,0.5,1.1,1.1s-0.5,1.1-1.1,1.1c-0.6,0-1.1-0.5-1.1-1.1
		C127.9,398.9,128.4,398.4,129,398.4z"/>
	<path class="st5" d="M123.2,399.5c0-0.6,0.5-1.1,1.1-1.1c0,0,0,0,0,0c0.6,0,1.1,0.5,1.1,1.1c0,0.6-0.5,1.1-1.1,1.1
		C123.7,400.7,123.2,400.1,123.2,399.5L123.2,399.5z"/>
	<path class="st5" d="M87.7,398.4C87.7,398.4,87.7,398.4,87.7,398.4c0.6,0,1.1,0.5,1.1,1.1s-0.5,1.1-1.1,1.1c-0.6,0-1.1-0.5-1.1-1.1
		C86.7,398.9,87.1,398.4,87.7,398.4z"/>
	<path class="st5" d="M81.8,399.5c0-0.6,0.5-1.1,1.1-1.1c0.6,0,1.1,0.5,1.1,1.1c0,0.6-0.5,1.1-1.1,1.1
		C82.3,400.6,81.8,400.1,81.8,399.5L81.8,399.5z"/>
	<path class="st5" d="M118.5,399.5c0-0.6,0.5-1.1,1.1-1.1c0,0,0,0,0,0c0.6,0,1.1,0.5,1.1,1.1c0,0.6-0.5,1.1-1.1,1.1
		C119,400.7,118.5,400.1,118.5,399.5L118.5,399.5z"/>
	<path class="st5" d="M95.3,399.5c0-0.6,0.5-1.1,1.1-1.1c0,0,0,0,0,0c0.6,0,1.1,0.5,1.1,1.1c0,0.6-0.5,1.1-1.1,1.1
		C95.8,400.7,95.3,400.1,95.3,399.5L95.3,399.5z"/>
	<path class="st9" d="M113.8,399.5c0-0.6,0.5-1.1,1.1-1.1c0.6,0,1.1,0.5,1.1,1.1s-0.5,1.1-1.1,1.1
		C114.3,400.6,113.8,400.1,113.8,399.5L113.8,399.5z"/>
	<path class="st9" d="M109.1,399.5c0-0.6,0.5-1.1,1.1-1.1c0.6,0,1.1,0.5,1.1,1.1c0,0.6-0.5,1.1-1.1,1.1
		C109.5,400.6,109.1,400.1,109.1,399.5L109.1,399.5z"/>
	<path class="st9" d="M99.5,399.5c0-0.6,0.5-1.1,1.1-1.1c0.6,0,1.1,0.5,1.1,1.1c0,0.6-0.5,1.1-1.1,1.1
		C100,400.6,99.5,400.1,99.5,399.5L99.5,399.5z"/>
	<path class="st9" d="M77.9,399.5c0-0.6,0.5-1.1,1.1-1.1c0.6,0,1.1,0.5,1.1,1.1c0,0.6-0.5,1.1-1.1,1.1
		C78.4,400.6,77.9,400.1,77.9,399.5L77.9,399.5z"/>
	<path class="st6" d="M104.4,399.5c0-0.6,0.5-1.1,1.1-1.1c0.6,0,1.1,0.5,1.1,1.1c0,0.6-0.5,1.1-1.1,1.1
		C104.8,400.6,104.4,400.1,104.4,399.5L104.4,399.5z"/>
	<path class="st6" d="M91.9,398.4C91.9,398.4,91.9,398.4,91.9,398.4c0.6,0,1.1,0.5,1.1,1.1s-0.5,1.1-1.1,1.1c-0.6,0-1.1-0.5-1.1-1.1
		C90.8,398.9,91.3,398.4,91.9,398.4z"/>
	<path class="st5" d="M79,406.1c-0.6,0-1.1-0.5-1.1-1.1c0-0.6,0.5-1.1,1.1-1.1c0.6,0,1.1,0.5,1.1,1.1
		C80.1,405.6,79.6,406.1,79,406.1z"/>
	<path class="st5" d="M83.7,406.1c-0.6,0-1.1-0.5-1.1-1.1c0-0.6,0.5-1.1,1.1-1.1c0.6,0,1.1,0.5,1.1,1.1
		C84.8,405.6,84.3,406.1,83.7,406.1z"/>
	<path class="st5" d="M88.4,406.1c-0.6,0-1.1-0.5-1.1-1.1c0-0.6,0.5-1.1,1.1-1.1c0.6,0,1.1,0.5,1.1,1.1
		C89.5,405.6,89,406.1,88.4,406.1z"/>
	<path class="st5" d="M93.2,406.1c-0.6,0-1.1-0.5-1.1-1.1c0-0.6,0.5-1.1,1.1-1.1c0.6,0,1.1,0.5,1.1,1.1
		C94.2,405.6,93.8,406.1,93.2,406.1z"/>
	<path class="st5" d="M129.7,406.1c-0.6,0-1.1-0.5-1.1-1.1c0-0.6,0.5-1.1,1.1-1.1s1.1,0.5,1.1,1.1
		C130.8,405.6,130.3,406.1,129.7,406.1z"/>
	<path class="st5" d="M134.5,406.1c-0.6,0-1.1-0.5-1.1-1.1c0-0.6,0.5-1.1,1.1-1.1c0.6,0,1.1,0.5,1.1,1.1
		C135.6,405.6,135.1,406.1,134.5,406.1z"/>
	<path class="st5" d="M97.9,406.1c-0.6,0-1.1-0.5-1.1-1.1c0-0.6,0.5-1.1,1.1-1.1c0.6,0,1.1,0.5,1.1,1.1
		C98.9,405.6,98.5,406.1,97.9,406.1z"/>
	<path class="st5" d="M121.1,406.1c-0.6,0-1.1-0.5-1.1-1.1c0-0.6,0.5-1.1,1.1-1.1c0.6,0,1.1,0.5,1.1,1.1
		C122.1,405.6,121.6,406.1,121.1,406.1z"/>
	<path class="st9" d="M102.6,406.1C102.6,406.1,102.6,406.1,102.6,406.1c-0.6,0-1.1-0.5-1.1-1.1c0-0.6,0.5-1.1,1.1-1.1
		c0.6,0,1.1,0.5,1.1,1.1C103.7,405.6,103.2,406.1,102.6,406.1z"/>
	<path class="st9" d="M107.3,406.1C107.3,406.1,107.3,406.1,107.3,406.1c-0.6,0-1.1-0.5-1.1-1.1c0-0.6,0.5-1.1,1.1-1.1
		c0.6,0,1.1,0.5,1.1,1.1C108.4,405.6,107.9,406.1,107.3,406.1z"/>
	<path class="st9" d="M116.9,406.1C116.9,406.1,116.9,406.1,116.9,406.1c-0.6,0-1.1-0.5-1.1-1.1c0-0.6,0.5-1.1,1.1-1.1
		c0.6,0,1.1,0.5,1.1,1.1C118,405.6,117.5,406.1,116.9,406.1z"/>
	<path class="st9" d="M138.5,406.1c-0.6,0-1.1-0.5-1.1-1.1c0-0.6,0.5-1.1,1.1-1.1s1.1,0.5,1.1,1.1
		C139.5,405.6,139,406.1,138.5,406.1z"/>
	<path class="st6" d="M112,406.1C112,406.1,112,406.1,112,406.1c-0.6,0-1.1-0.5-1.1-1.1c0-0.6,0.5-1.1,1.1-1.1
		c0.6,0,1.1,0.5,1.1,1.1C113.1,405.6,112.6,406.1,112,406.1z"/>
	<path class="st6" d="M125.5,406.1c-0.6,0-1.1-0.5-1.1-1.1c0-0.6,0.5-1.1,1.1-1.1c0.6,0,1.1,0.5,1.1,1.1
		C126.6,405.6,126.1,406.1,125.5,406.1z"/>
	<ellipse class="st5" cx="138.5" cy="409.8" rx="1.1" ry="1.1"/>
	<ellipse class="st5" cx="133.7" cy="409.8" rx="1.1" ry="1.1"/>
	<ellipse class="st5" cx="129" cy="409.8" rx="1.1" ry="1.1"/>
	<ellipse class="st5" cx="124.3" cy="409.8" rx="1.1" ry="1.1"/>
	<ellipse class="st5" cx="87.7" cy="409.8" rx="1.1" ry="1.1"/>
	<ellipse class="st5" cx="82.9" cy="409.8" rx="1.1" ry="1.1"/>
	<ellipse class="st5" cx="119.6" cy="409.8" rx="1.1" ry="1.1"/>
	<ellipse class="st5" cx="96.4" cy="409.8" rx="1.1" ry="1.1"/>
	<ellipse class="st9" cx="114.9" cy="409.8" rx="1.1" ry="1.1"/>
	<ellipse class="st9" cx="110.1" cy="409.8" rx="1.1" ry="1.1"/>
	<ellipse class="st9" cx="100.6" cy="409.8" rx="1.1" ry="1.1"/>
	<path class="st9" d="M77.9,409.8c0-0.6,0.5-1.1,1.1-1.1c0.6,0,1.1,0.5,1.1,1.1c0,0.6-0.5,1.1-1.1,1.1
		C78.4,410.9,77.9,410.4,77.9,409.8L77.9,409.8z"/>
	<ellipse class="st6" cx="105.4" cy="409.8" rx="1.1" ry="1.1"/>
	<ellipse class="st6" cx="91.9" cy="409.8" rx="1.1" ry="1.1"/>
	<rect x="144.5" y="397.9" class="st5" width="18.6" height="3"/>
	<rect x="144.5" y="403.1" class="st5" width="18.6" height="3"/>
	<rect x="144.5" y="408.5" class="st5" width="18.6" height="3"/>
	<rect x="72.7" y="423.3" class="st8" width="94.7" height="24.7"/>
	<rect x="144.5" y="428.4" class="st5" width="18.6" height="3"/>
	<rect x="144.5" y="433.6" class="st5" width="18.6" height="3"/>
	<rect x="144.5" y="439" class="st5" width="18.6" height="3"/>
	<path class="st5" d="M137.7,430c0-0.6,0.5-1.1,1.1-1.1c0,0,0,0,0,0c0.6,0,1.1,0.5,1.1,1.1c0,0.6-0.5,1.1-1.1,1.1
		C138.2,431.2,137.7,430.6,137.7,430L137.7,430z"/>
	<path class="st5" d="M133,430c0-0.6,0.5-1.1,1.1-1.1s1.1,0.5,1.1,1.1s-0.5,1.1-1.1,1.1S133,430.6,133,430L133,430z"/>
	<path class="st5" d="M128.3,430c0-0.6,0.5-1.1,1.1-1.1c0.6,0,1.1,0.5,1.1,1.1s-0.5,1.1-1.1,1.1C128.8,431.1,128.3,430.6,128.3,430
		L128.3,430z"/>
	<path class="st5" d="M123.6,430c0-0.6,0.5-1.1,1.1-1.1c0.6,0,1.1,0.5,1.1,1.1s-0.5,1.1-1.1,1.1C124,431.1,123.6,430.6,123.6,430
		L123.6,430z"/>
	<path class="st5" d="M87,430c0-0.6,0.5-1.1,1.1-1.1c0.6,0,1.1,0.5,1.1,1.1c0,0.6-0.5,1.1-1.1,1.1C87.5,431.1,87,430.6,87,430
		L87,430z"/>
	<path class="st5" d="M82.2,430c0-0.6,0.5-1.1,1.1-1.1c0.6,0,1.1,0.5,1.1,1.1c0,0.6-0.5,1.1-1.1,1.1C82.7,431.1,82.2,430.6,82.2,430
		L82.2,430z"/>
	<path class="st5" d="M118.8,430c0-0.6,0.5-1.1,1.1-1.1c0.6,0,1.1,0.5,1.1,1.1s-0.5,1.1-1.1,1.1C119.3,431.1,118.8,430.6,118.8,430
		L118.8,430z"/>
	<path class="st5" d="M95.7,430c0-0.6,0.5-1.1,1.1-1.1c0.6,0,1.1,0.5,1.1,1.1c0,0.6-0.5,1.1-1.1,1.1C96.2,431.1,95.7,430.6,95.7,430
		L95.7,430z"/>
	<path class="st9" d="M114.1,430c0-0.6,0.5-1.1,1.1-1.1c0.6,0,1.1,0.5,1.1,1.1s-0.5,1.1-1.1,1.1C114.6,431.1,114.1,430.6,114.1,430
		L114.1,430z"/>
	<path class="st9" d="M109.4,430c0-0.6,0.5-1.1,1.1-1.1c0.6,0,1.1,0.5,1.1,1.1c0,0.6-0.5,1.1-1.1,1.1
		C109.9,431.1,109.4,430.6,109.4,430L109.4,430z"/>
	<path class="st9" d="M99.8,430c0-0.6,0.5-1.1,1.1-1.1c0.6,0,1.1,0.5,1.1,1.1c0,0.6-0.5,1.1-1.1,1.1
		C100.3,431.1,99.8,430.6,99.8,430L99.8,430z"/>
	<path class="st9" d="M78.3,430c0-0.6,0.5-1.1,1.1-1.1c0,0,0,0,0,0c0.6,0,1.1,0.5,1.1,1.1c0,0.6-0.5,1.1-1.1,1.1
		C78.7,431.2,78.3,430.6,78.3,430L78.3,430z"/>
	<path class="st6" d="M105.8,428.9C105.8,428.9,105.8,428.9,105.8,428.9c0.6,0,1.1,0.5,1.1,1.1s-0.5,1.1-1.1,1.1
		c-0.6,0-1.1-0.5-1.1-1.1C104.7,429.4,105.2,428.9,105.8,428.9z"/>
	<path class="st6" d="M91.2,430c0-0.6,0.5-1.1,1.1-1.1c0.6,0,1.1,0.5,1.1,1.1c0,0.6-0.5,1.1-1.1,1.1C91.7,431.1,91.2,430.6,91.2,430
		L91.2,430z"/>
	<path class="st5" d="M79.3,436.5C79.3,436.5,79.3,436.5,79.3,436.5c-0.6,0-1.1-0.5-1.1-1.1c0-0.6,0.5-1.1,1.1-1.1
		c0.6,0,1.1,0.5,1.1,1.1C80.4,436,79.9,436.5,79.3,436.5z"/>
	<path class="st5" d="M85.1,435.4c0,0.6-0.5,1.1-1.1,1.1c0,0,0,0,0,0c-0.6,0-1.1-0.5-1.1-1.1c0-0.6,0.5-1.1,1.1-1.1
		C84.7,434.3,85.1,434.8,85.1,435.4L85.1,435.4z"/>
	<path class="st5" d="M89.9,435.4c0,0.6-0.5,1.1-1.1,1.1c-0.6,0-1.1-0.5-1.1-1.1c0-0.6,0.5-1.1,1.1-1.1
		C89.4,434.3,89.9,434.8,89.9,435.4L89.9,435.4z"/>
	<path class="st5" d="M94.6,435.4c0,0.6-0.5,1.1-1.1,1.1c-0.6,0-1.1-0.5-1.1-1.1c0-0.6,0.5-1.1,1.1-1.1S94.6,434.8,94.6,435.4
		L94.6,435.4z"/>
	<path class="st5" d="M131.1,435.4c0,0.6-0.5,1.1-1.1,1.1s-1.1-0.5-1.1-1.1c0-0.6,0.5-1.1,1.1-1.1S131.1,434.8,131.1,435.4
		L131.1,435.4z"/>
	<path class="st5" d="M136,435.4c0,0.6-0.5,1.1-1.1,1.1s-1.1-0.5-1.1-1.1c0-0.6,0.5-1.1,1.1-1.1S136,434.8,136,435.4L136,435.4z"/>
	<path class="st5" d="M99.3,435.4c0,0.6-0.5,1.1-1.1,1.1c-0.6,0-1.1-0.5-1.1-1.1c0-0.6,0.5-1.1,1.1-1.1
		C98.8,434.3,99.3,434.8,99.3,435.4L99.3,435.4z"/>
	<path class="st5" d="M122.5,435.4c0,0.6-0.5,1.1-1.1,1.1c-0.6,0-1.1-0.5-1.1-1.1c0-0.6,0.5-1.1,1.1-1.1
		C122,434.3,122.5,434.8,122.5,435.4L122.5,435.4z"/>
	<path class="st9" d="M104,435.4c0,0.6-0.5,1.1-1.1,1.1c-0.6,0-1.1-0.5-1.1-1.1c0-0.6,0.5-1.1,1.1-1.1
		C103.5,434.3,104,434.8,104,435.4L104,435.4z"/>
	<path class="st9" d="M108.7,435.4c0,0.6-0.5,1.1-1.1,1.1c-0.6,0-1.1-0.5-1.1-1.1c0-0.6,0.5-1.1,1.1-1.1
		C108.2,434.3,108.7,434.8,108.7,435.4L108.7,435.4z"/>
	<path class="st9" d="M118.3,435.4c0,0.6-0.5,1.1-1.1,1.1c-0.6,0-1.1-0.5-1.1-1.1c0-0.6,0.5-1.1,1.1-1.1
		C117.8,434.3,118.3,434.8,118.3,435.4L118.3,435.4z"/>
	<path class="st9" d="M138.8,436.5C138.8,436.5,138.8,436.5,138.8,436.5c-0.6,0-1.1-0.5-1.1-1.1c0-0.6,0.5-1.1,1.1-1.1
		c0.6,0,1.1,0.5,1.1,1.1C139.9,436,139.4,436.5,138.8,436.5z"/>
	<path class="st6" d="M113.5,435.4c0,0.6-0.5,1.1-1.1,1.1c-0.6,0-1.1-0.5-1.1-1.1c0-0.6,0.5-1.1,1.1-1.1
		C113,434.3,113.5,434.8,113.5,435.4L113.5,435.4z"/>
	<path class="st6" d="M127,435.4c0,0.6-0.5,1.1-1.1,1.1c0,0,0,0,0,0c-0.6,0-1.1-0.5-1.1-1.1c0-0.6,0.5-1.1,1.1-1.1
		C126.5,434.3,127,434.8,127,435.4L127,435.4z"/>
	<path class="st5" d="M137.7,440.3c0-0.6,0.5-1.1,1.1-1.1c0.6,0,1.1,0.5,1.1,1.1c0,0.6-0.5,1.1-1.1,1.1S137.7,440.9,137.7,440.3
		C137.7,440.3,137.7,440.3,137.7,440.3z"/>
	<path class="st5" d="M134.1,439.2c0.6,0,1.1,0.5,1.1,1.1s-0.5,1.1-1.1,1.1s-1.1-0.5-1.1-1.1C133,439.7,133.5,439.2,134.1,439.2z"/>
	<path class="st5" d="M129.4,439.2c0.6,0,1.1,0.5,1.1,1.1s-0.5,1.1-1.1,1.1c-0.6,0-1.1-0.5-1.1-1.1
		C128.3,439.7,128.8,439.2,129.4,439.2z"/>
	<path class="st5" d="M124.6,439.2c0.6,0,1.1,0.5,1.1,1.1s-0.5,1.1-1.1,1.1c-0.6,0-1.1-0.5-1.1-1.1
		C123.6,439.7,124.1,439.2,124.6,439.2z"/>
	<path class="st5" d="M87,440.2c0-0.6,0.5-1.1,1.1-1.1c0.6,0,1,0.5,1,1.1c0,0.6-0.5,1.1-1.1,1.1C87.5,441.4,87,440.9,87,440.2
		C87,440.3,87,440.3,87,440.2z"/>
	<path class="st5" d="M83.3,439.2c0.6,0,1.1,0.5,1.1,1.1c0,0.6-0.5,1.1-1.1,1.1c-0.6,0-1.1-0.5-1.1-1.1
		C82.2,439.7,82.7,439.2,83.3,439.2z"/>
	<path class="st5" d="M119.9,439.2c0.6,0,1.1,0.5,1.1,1.1s-0.5,1.1-1.1,1.1c-0.6,0-1.1-0.5-1.1-1.1
		C118.8,439.7,119.3,439.2,119.9,439.2z"/>
	<path class="st5" d="M96.7,439.2c0.6,0,1.1,0.5,1.1,1.1c0,0.6-0.5,1.1-1.1,1.1c-0.6,0-1.1-0.5-1.1-1.1
		C95.7,439.7,96.2,439.2,96.7,439.2z"/>
	<path class="st9" d="M115.2,439.2c0.6,0,1.1,0.5,1.1,1.1s-0.5,1.1-1.1,1.1c-0.6,0-1.1-0.5-1.1-1.1
		C114.1,439.7,114.6,439.2,115.2,439.2z"/>
	<path class="st9" d="M110.5,439.2c0.6,0,1.1,0.5,1.1,1.1c0,0.6-0.5,1.1-1.1,1.1c-0.6,0-1.1-0.5-1.1-1.1
		C109.4,439.7,109.9,439.2,110.5,439.2z"/>
	<path class="st9" d="M100.9,439.2c0.6,0,1.1,0.5,1.1,1.1c0,0.6-0.5,1.1-1.1,1.1c-0.6,0-1.1-0.5-1.1-1.1
		C99.8,439.7,100.3,439.2,100.9,439.2z"/>
	<path class="st9" d="M79.3,439.2C79.3,439.2,79.3,439.2,79.3,439.2c0.6,0,1.1,0.5,1.1,1.1c0,0.6-0.5,1.1-1.1,1.1
		c-0.6,0-1.1-0.5-1.1-1.1C78.3,439.7,78.7,439.2,79.3,439.2z"/>
	<path class="st6" d="M105.8,439.2C105.8,439.2,105.8,439.2,105.8,439.2c0.6,0,1.1,0.5,1.1,1.1c0,0.6-0.5,1.1-1.1,1.1
		c-0.6,0-1.1-0.5-1.1-1.1C104.7,439.7,105.2,439.2,105.8,439.2z"/>
	<path class="st6" d="M92.2,439.2c0.6,0,1.1,0.5,1.1,1.1c0,0.6-0.5,1.1-1.1,1.1c-0.6,0-1.1-0.5-1.1-1.1
		C91.2,439.7,91.7,439.2,92.2,439.2z"/>
	<polygon class="st5" points="58.5,362.3 72.7,362.3 72.7,387.1 58.5,387 	"/>
	<polygon class="st5" points="58.5,332.2 72.7,332.3 72.7,357 58.5,357 	"/>
	<polygon class="st5" points="58.5,392.6 72.7,392.7 72.7,417.4 58.5,417.3 	"/>
	<polygon class="st5" points="58.5,423.3 72.7,423.3 72.7,448.1 58.5,448 	"/>
	<rect x="72" y="332.1" class="st8" width="94.7" height="24.7"/>
	<rect x="143.8" y="337.1" class="st5" width="18.6" height="3"/>
	<rect x="143.8" y="342.3" class="st5" width="18.6" height="3"/>
	<rect x="143.8" y="347.7" class="st5" width="18.6" height="3"/>
	<path class="st5" d="M136.5,339c0-0.6,0.5-1.1,1.1-1.1s1.1,0.5,1.1,1.1c0,0.6-0.5,1.1-1.1,1.1S136.5,339.6,136.5,339L136.5,339z"/>
	<path class="st5" d="M131.7,339c0-0.6,0.5-1.1,1.1-1.1c0.6,0,1.1,0.5,1.1,1.1c0,0.6-0.5,1.1-1.1,1.1
		C132.2,340.1,131.7,339.6,131.7,339L131.7,339z"/>
	<path class="st5" d="M127,339c0-0.6,0.5-1.1,1.1-1.1c0.6,0,1.1,0.5,1.1,1.1c0,0.6-0.5,1.1-1.1,1.1C127.5,340.1,127,339.6,127,339
		L127,339z"/>
	<path class="st5" d="M122.3,339c0-0.6,0.5-1.1,1.1-1.1c0.6,0,1.1,0.5,1.1,1.1c0,0.6-0.5,1.1-1.1,1.1
		C122.8,340.1,122.3,339.6,122.3,339L122.3,339z"/>
	<path class="st5" d="M85.7,339c0-0.6,0.5-1.1,1.1-1.1c0.6,0,1.1,0.5,1.1,1.1c0,0.6-0.5,1.1-1.1,1.1C86.2,340.1,85.7,339.6,85.7,339
		L85.7,339z"/>
	<path class="st5" d="M82,337.8C82,337.8,82,337.8,82,337.8c0.6,0,1.1,0.5,1.1,1.1c0,0.6-0.5,1.1-1.1,1.1c-0.6,0-1.1-0.5-1.1-1.1
		C80.9,338.3,81.4,337.8,82,337.8z"/>
	<path class="st5" d="M118.7,337.8C118.7,337.8,118.7,337.8,118.7,337.8c0.6,0,1.1,0.5,1.1,1.1c0,0.6-0.5,1.1-1.1,1.1
		c-0.6,0-1.1-0.5-1.1-1.1C117.6,338.3,118.1,337.8,118.7,337.8z"/>
	<path class="st5" d="M94.4,339c0-0.6,0.5-1.1,1.1-1.1c0.6,0,1.1,0.5,1.1,1.1c0,0.6-0.5,1.1-1.1,1.1C94.9,340.1,94.4,339.6,94.4,339
		L94.4,339z"/>
	<path class="st9" d="M113.9,337.8C113.9,337.8,113.9,337.8,113.9,337.8c0.6,0,1.1,0.5,1.1,1.1c0,0.6-0.5,1.1-1.1,1.1
		c-0.6,0-1.1-0.5-1.1-1.1C112.9,338.3,113.4,337.8,113.9,337.8z"/>
	<path class="st9" d="M108.1,339c0-0.6,0.5-1.1,1.1-1.1c0,0,0,0,0,0c0.6,0,1.1,0.5,1.1,1.1c0,0.6-0.5,1.1-1.1,1.1
		S108.1,339.6,108.1,339L108.1,339z"/>
	<path class="st9" d="M98.6,339c0-0.6,0.5-1.1,1.1-1.1c0,0,0,0,0,0c0.6,0,1.1,0.5,1.1,1.1c0,0.6-0.5,1.1-1.1,1.1
		S98.6,339.6,98.6,339L98.6,339z"/>
	<path class="st9" d="M77,339c0-0.6,0.5-1.1,1.1-1.1c0.6,0,1.1,0.5,1.1,1.1c0,0.6-0.5,1.1-1.1,1.1C77.5,340.1,77,339.6,77,339
		L77,339z"/>
	<path class="st6" d="M103.4,339c0-0.6,0.5-1.1,1.1-1.1c0.6,0,1.1,0.5,1.1,1.1c0,0.6-0.5,1.1-1.1,1.1
		C103.9,340.1,103.4,339.6,103.4,339L103.4,339z"/>
	<path class="st6" d="M89.9,339c0-0.6,0.5-1.1,1.1-1.1c0.6,0,1.1,0.5,1.1,1.1c0,0.6-0.5,1.1-1.1,1.1C90.4,340.1,89.9,339.6,89.9,339
		L89.9,339z"/>
	<path class="st5" d="M78.1,345.5c-0.6,0-1.1-0.5-1.1-1.1c0-0.6,0.5-1.1,1.1-1.1c0.6,0,1.1,0.5,1.1,1.1
		C79.1,345,78.7,345.5,78.1,345.5z"/>
	<path class="st5" d="M82.8,345.5c-0.6,0-1.1-0.5-1.1-1.1c0-0.6,0.5-1.1,1.1-1.1s1.1,0.5,1.1,1.1C83.9,345,83.4,345.5,82.8,345.5z"
		/>
	<path class="st5" d="M87.5,345.5c-0.6,0-1.1-0.5-1.1-1.1c0-0.6,0.5-1.1,1.1-1.1c0.6,0,1.1,0.5,1.1,1.1
		C88.6,345,88.1,345.5,87.5,345.5z"/>
	<path class="st5" d="M92.2,345.5C92.2,345.5,92.2,345.5,92.2,345.5c-0.6,0-1.1-0.5-1.1-1.1c0-0.6,0.5-1.1,1.1-1.1
		c0.6,0,1.1,0.5,1.1,1.1C93.3,345,92.8,345.5,92.2,345.5z"/>
	<path class="st5" d="M128.8,345.5c-0.6,0-1.1-0.5-1.1-1.1c0-0.6,0.5-1.1,1.1-1.1c0.6,0,1.1,0.5,1.1,1.1
		C129.9,345,129.4,345.5,128.8,345.5z"/>
	<path class="st5" d="M133.6,345.5C133.6,345.5,133.6,345.5,133.6,345.5c-0.6,0-1.1-0.5-1.1-1.1c0-0.6,0.5-1.1,1.1-1.1
		c0.6,0,1.1,0.5,1.1,1.1C134.7,345,134.2,345.5,133.6,345.5z"/>
	<path class="st5" d="M97,345.5C97,345.5,96.9,345.5,97,345.5c-0.6,0-1.1-0.5-1.1-1.1c0-0.6,0.5-1.1,1.1-1.1c0.6,0,1.1,0.5,1.1,1.1
		C98,345,97.5,345.5,97,345.5z"/>
	<path class="st5" d="M120.1,345.5C120.1,345.5,120.1,345.5,120.1,345.5c-0.6,0-1.1-0.5-1.1-1.1c0-0.6,0.5-1.1,1.1-1.1
		c0.6,0,1.1,0.5,1.1,1.1C121.2,345,120.7,345.5,120.1,345.5z"/>
	<path class="st9" d="M101.7,345.5c-0.6,0-1.1-0.5-1.1-1.1c0-0.6,0.5-1.1,1.1-1.1c0.6,0,1.1,0.5,1.1,1.1
		C102.7,345,102.3,345.5,101.7,345.5z"/>
	<path class="st9" d="M106.4,345.5c-0.6,0-1.1-0.5-1.1-1.1c0-0.6,0.5-1.1,1.1-1.1c0.6,0,1.1,0.5,1.1,1.1
		C107.5,345,107,345.5,106.4,345.5z"/>
	<path class="st9" d="M116,345.5c-0.6,0-1.1-0.5-1.1-1.1c0-0.6,0.5-1.1,1.1-1.1c0.6,0,1.1,0.5,1.1,1.1
		C117,345,116.6,345.5,116,345.5z"/>
	<path class="st9" d="M137.5,345.5c-0.6,0-1.1-0.5-1.1-1.1c0-0.6,0.5-1.1,1.1-1.1c0.6,0,1.1,0.5,1.1,1.1
		C138.6,345,138.1,345.5,137.5,345.5z"/>
	<path class="st6" d="M111.1,345.5c-0.6,0-1.1-0.5-1.1-1.1c0-0.6,0.5-1.1,1.1-1.1s1.1,0.5,1.1,1.1
		C112.2,345,111.7,345.5,111.1,345.5z"/>
	<path class="st6" d="M124.6,345.5c-0.6,0-1.1-0.5-1.1-1.1c0-0.6,0.5-1.1,1.1-1.1c0.6,0,1.1,0.5,1.1,1.1
		C125.7,345,125.2,345.5,124.6,345.5z"/>
	<path class="st5" d="M136.5,349.2c0-0.6,0.5-1.1,1.1-1.1s1.1,0.5,1.1,1.1c0,0.6-0.5,1.1-1.1,1.1S136.5,349.8,136.5,349.2
		L136.5,349.2z"/>
	<path class="st5" d="M131.7,349.2c0-0.6,0.5-1.1,1.1-1.1c0.6,0,1.1,0.5,1.1,1.1c0,0.6-0.5,1.1-1.1,1.1
		C132.2,350.3,131.7,349.8,131.7,349.2L131.7,349.2z"/>
	<path class="st5" d="M128.1,348.1C128.1,348.1,128.1,348.1,128.1,348.1c0.6,0,1.1,0.5,1.1,1.1s-0.5,1.1-1.1,1.1
		c-0.6,0-1.1-0.5-1.1-1.1C127,348.6,127.5,348.1,128.1,348.1z"/>
	<path class="st5" d="M122.3,349.2c0-0.6,0.5-1.1,1.1-1.1c0.6,0,1.1,0.5,1.1,1.1c0,0.6-0.5,1.1-1.1,1.1
		C122.8,350.3,122.3,349.8,122.3,349.2L122.3,349.2z"/>
	<path class="st5" d="M85.7,349.2c0-0.6,0.5-1.1,1.1-1.1c0.6,0,1.1,0.5,1.1,1.1c0,0.6-0.5,1.1-1.1,1.1
		C86.2,350.3,85.7,349.8,85.7,349.2L85.7,349.2z"/>
	<path class="st5" d="M82,348.1C82,348.1,82,348.1,82,348.1c0.6,0,1.1,0.5,1.1,1.1c0,0.6-0.5,1.1-1.1,1.1c-0.6,0-1.1-0.5-1.1-1.1
		C80.9,348.6,81.4,348.1,82,348.1z"/>
	<path class="st5" d="M118.7,348.1C118.7,348.1,118.7,348.1,118.7,348.1c0.6,0,1.1,0.5,1.1,1.1c0,0.6-0.5,1.1-1.1,1.1
		c-0.6,0-1.1-0.5-1.1-1.1C117.6,348.6,118.1,348.1,118.7,348.1z"/>
	<path class="st5" d="M94.4,349.2c0-0.6,0.5-1.1,1.1-1.1c0.6,0,1.1,0.5,1.1,1.1c0,0.6-0.5,1.1-1.1,1.1
		C94.9,350.3,94.4,349.8,94.4,349.2L94.4,349.2z"/>
	<path class="st9" d="M113.9,348.1C113.9,348.1,113.9,348.1,113.9,348.1c0.6,0,1.1,0.5,1.1,1.1c0,0.6-0.5,1.1-1.1,1.1
		c-0.6,0-1.1-0.5-1.1-1.1C112.9,348.6,113.4,348.1,113.9,348.1z"/>
	<path class="st9" d="M108.1,349.2c0-0.6,0.5-1.1,1.1-1.1c0,0,0,0,0,0c0.6,0,1.1,0.5,1.1,1.1c0,0.6-0.5,1.1-1.1,1.1
		C108.6,350.4,108.1,349.8,108.1,349.2L108.1,349.2z"/>
	<path class="st9" d="M99.6,348.1C99.6,348.1,99.6,348.1,99.6,348.1c0.6,0,1.1,0.5,1.1,1.1c0,0.6-0.5,1.1-1.1,1.1s-1.1-0.5-1.1-1.1
		C98.6,348.6,99,348.1,99.6,348.1z"/>
	<path class="st9" d="M77,349.2c0-0.6,0.5-1.1,1.1-1.1c0.6,0,1,0.5,1,1.1c0,0.6-0.5,1.1-1.1,1.1C77.5,350.3,77,349.8,77,349.2
		C77,349.2,77,349.2,77,349.2z"/>
	<path class="st6" d="M103.4,349.2c0-0.6,0.5-1.1,1.1-1.1c0.6,0,1.1,0.5,1.1,1.1c0,0.6-0.5,1.1-1.1,1.1
		C103.9,350.3,103.4,349.8,103.4,349.2L103.4,349.2z"/>
	<path class="st6" d="M89.9,349.2c0-0.6,0.5-1.1,1.1-1.1c0.6,0,1.1,0.5,1.1,1.1c0,0.6-0.5,1.1-1.1,1.1
		C90.4,350.3,89.9,349.8,89.9,349.2L89.9,349.2z"/>
	<rect x="231.1" y="208.3" class="st4" width="74.2" height="239.3"/>
	<polygon class="st1" points="172.6,208.3 231.2,208.3 231.1,447.6 172.6,447.6 	"/>
	<rect x="238.3" y="246.6" class="st5" width="63" height="18.7"/>
	<rect x="296" y="248.9" class="st8" width="3.5" height="14.3"/>
	<path class="st0" d="M293,250.8L293,250.8c0.6,0,1.1,0.5,1.1,1.2c0,0.7-0.5,1.2-1.1,1.2c-0.6,0-1.1-0.5-1.1-1.2
		S292.3,250.8,293,250.8z"/>
	<path class="st0" d="M293,255.8L293,255.8c0.6,0,1.1,0.5,1.1,1.2c0,0.7-0.5,1.2-1.1,1.2c-0.6,0-1.1-0.5-1.1-1.2
		C291.8,256.3,292.3,255.8,293,255.8z"/>
	<rect x="283.9" y="250.8" class="st8" width="3.5" height="11"/>
	<rect x="278.9" y="250.8" class="st8" width="3.5" height="11"/>
	<rect x="273.9" y="250.8" class="st8" width="3.5" height="11"/>
	<rect x="268.9" y="250.8" class="st8" width="3.5" height="11"/>
	<rect x="263.9" y="250.8" class="st8" width="3.5" height="11"/>
	<rect x="258.9" y="250.8" class="st8" width="3.5" height="11"/>
	<rect x="253.9" y="250.8" class="st8" width="3.5" height="11"/>
	<rect x="248.8" y="250.8" class="st8" width="3.5" height="11"/>
	<rect x="243.8" y="250.8" class="st8" width="3.5" height="11"/>
	<rect x="238.8" y="250.8" class="st8" width="3.5" height="11"/>
	<rect x="238.3" y="273.4" class="st5" width="63" height="18.7"/>
	<rect x="296" y="275.7" class="st8" width="3.5" height="14.3"/>
	<path class="st0" d="M293,277.6L293,277.6c0.6,0,1.1,0.5,1.1,1.2c0,0.7-0.5,1.2-1.1,1.2c-0.6,0-1.1-0.5-1.1-1.2
		C291.8,278.1,292.3,277.6,293,277.6z"/>
	<path class="st0" d="M293,282.6L293,282.6c0.6,0,1.1,0.5,1.1,1.2c0,0.7-0.5,1.2-1.1,1.2c-0.6,0-1.1-0.5-1.1-1.2
		C291.8,283.2,292.3,282.6,293,282.6z"/>
	<rect x="283.9" y="277.6" class="st8" width="3.5" height="11"/>
	<rect x="278.9" y="277.6" class="st8" width="3.5" height="11"/>
	<rect x="273.9" y="277.6" class="st8" width="3.5" height="11"/>
	<rect x="268.9" y="277.6" class="st8" width="3.5" height="11"/>
	<rect x="263.9" y="277.6" class="st8" width="3.5" height="11"/>
	<rect x="258.9" y="277.6" class="st8" width="3.5" height="11"/>
	<rect x="253.9" y="277.6" class="st8" width="3.5" height="11"/>
	<rect x="248.8" y="277.6" class="st8" width="3.5" height="11"/>
	<rect x="243.8" y="277.6" class="st8" width="3.5" height="11"/>
	<rect x="238.8" y="277.6" class="st8" width="3.5" height="11"/>
	<rect x="238.3" y="300.4" class="st5" width="63" height="18.7"/>
	<rect x="296" y="302.8" class="st8" width="3.5" height="14.3"/>
	<path class="st0" d="M293,304.6C293,304.6,293,304.6,293,304.6c0.6,0,1.1,0.5,1.1,1.2c0,0.7-0.5,1.2-1.1,1.2
		c-0.6,0-1.1-0.5-1.1-1.2C291.8,305.1,292.3,304.6,293,304.6z"/>
	<path class="st0" d="M293,309.6C293,309.6,293,309.6,293,309.6c0.6,0,1.1,0.5,1.1,1.2c0,0.7-0.5,1.2-1.1,1.2s-1.1-0.5-1.1-1.2
		C291.8,310.2,292.3,309.6,293,309.6z"/>
	<rect x="283.9" y="304.6" class="st8" width="3.5" height="11"/>
	<rect x="278.9" y="304.6" class="st8" width="3.5" height="11"/>
	<rect x="273.9" y="304.6" class="st8" width="3.5" height="11"/>
	<rect x="268.9" y="304.6" class="st8" width="3.5" height="11"/>
	<rect x="263.9" y="304.6" class="st8" width="3.5" height="11"/>
	<rect x="258.9" y="304.6" class="st8" width="3.5" height="11"/>
	<rect x="253.9" y="304.6" class="st8" width="3.5" height="11"/>
	<rect x="248.8" y="304.6" class="st8" width="3.5" height="11"/>
	<rect x="243.8" y="304.6" class="st8" width="3.5" height="11"/>
	<rect x="238.8" y="304.6" class="st8" width="3.5" height="11"/>
	<rect x="238.3" y="329.6" class="st5" width="63" height="18.7"/>
	<rect x="296" y="332" class="st8" width="3.5" height="14.3"/>
	<path class="st0" d="M293,333.8C293,333.8,293,333.8,293,333.8c0.6,0,1.1,0.5,1.1,1.2c0,0.7-0.5,1.2-1.1,1.2s-1.1-0.5-1.1-1.2
		S292.3,333.8,293,333.8z"/>
	<path class="st0" d="M293,338.8C293,338.8,293,338.8,293,338.8c0.6,0,1.1,0.5,1.1,1.2c0,0.7-0.5,1.2-1.1,1.2s-1.1-0.5-1.1-1.2
		S292.3,338.8,293,338.8z"/>
	<rect x="283.9" y="333.8" class="st8" width="3.5" height="11"/>
	<rect x="278.9" y="333.8" class="st8" width="3.5" height="11"/>
	<rect x="273.9" y="333.8" class="st8" width="3.5" height="11"/>
	<rect x="268.9" y="333.8" class="st8" width="3.5" height="11"/>
	<rect x="263.9" y="333.8" class="st8" width="3.5" height="11"/>
	<rect x="258.9" y="333.8" class="st8" width="3.5" height="11"/>
	<rect x="253.9" y="333.8" class="st8" width="3.5" height="11"/>
	<rect x="248.8" y="333.8" class="st8" width="3.5" height="11"/>
	<rect x="243.8" y="333.8" class="st8" width="3.5" height="11"/>
	<rect x="238.8" y="333.8" class="st8" width="3.5" height="11"/>
	<rect x="238.3" y="359.1" class="st5" width="63" height="18.7"/>
	<rect x="296" y="361.4" class="st8" width="3.5" height="14.3"/>
	<path class="st0" d="M293,363.3C293,363.3,293,363.3,293,363.3c0.6,0,1.1,0.5,1.1,1.2c0,0.7-0.5,1.2-1.1,1.2
		c-0.6,0-1.1-0.5-1.1-1.2C291.8,363.8,292.3,363.3,293,363.3z"/>
	<path class="st0" d="M293,368.3C293,368.3,293,368.3,293,368.3c0.6,0,1.1,0.5,1.1,1.2c0,0.7-0.5,1.2-1.1,1.2
		c-0.6,0-1.1-0.5-1.1-1.2S292.3,368.3,293,368.3z"/>
	<rect x="283.9" y="363.3" class="st8" width="3.5" height="11"/>
	<rect x="278.9" y="363.3" class="st8" width="3.5" height="11"/>
	<rect x="273.9" y="363.3" class="st8" width="3.5" height="11"/>
	<rect x="268.9" y="363.3" class="st8" width="3.5" height="11"/>
	<rect x="263.9" y="363.3" class="st8" width="3.5" height="11"/>
	<rect x="258.9" y="363.3" class="st8" width="3.5" height="11"/>
	<rect x="253.9" y="363.3" class="st8" width="3.5" height="11"/>
	<rect x="248.8" y="363.3" class="st8" width="3.5" height="11"/>
	<rect x="243.8" y="363.3" class="st8" width="3.5" height="11"/>
	<rect x="238.8" y="363.3" class="st8" width="3.5" height="11"/>
	<rect x="238.3" y="417.8" class="st5" width="63" height="18.7"/>
	<rect x="296" y="420.1" class="st8" width="3.5" height="14.3"/>
	<path class="st0" d="M293,421.9C293,421.9,293,421.9,293,421.9c0.6,0,1.1,0.5,1.1,1.2c0,0.7-0.5,1.2-1.1,1.2s-1.1-0.5-1.1-1.2
		S292.3,421.9,293,421.9z"/>
	<path class="st0" d="M293,427C293,427,293,427,293,427c0.6,0,1.1,0.5,1.1,1.2c0,0.7-0.5,1.2-1.1,1.2c-0.6,0-1.1-0.5-1.1-1.2
		C291.8,427.5,292.3,427,293,427z"/>
	<rect x="283.9" y="421.9" class="st8" width="3.5" height="11"/>
	<rect x="278.9" y="421.9" class="st8" width="3.5" height="11"/>
	<rect x="273.9" y="421.9" class="st8" width="3.5" height="11"/>
	<rect x="268.9" y="421.9" class="st8" width="3.5" height="11"/>
	<rect x="263.9" y="421.9" class="st8" width="3.5" height="11"/>
	<rect x="258.9" y="421.9" class="st8" width="3.5" height="11"/>
	<rect x="253.9" y="421.9" class="st8" width="3.5" height="11"/>
	<rect x="248.8" y="421.9" class="st8" width="3.5" height="11"/>
	<rect x="243.8" y="421.9" class="st8" width="3.5" height="11"/>
	<rect x="238.8" y="421.9" class="st8" width="3.5" height="11"/>
	<rect x="238.3" y="388.4" class="st5" width="63" height="18.7"/>
	<rect x="296" y="390.8" class="st8" width="3.5" height="14.3"/>
	<path class="st0" d="M293,392.6C293,392.6,293,392.6,293,392.6c0.6,0,1.1,0.5,1.1,1.2c0,0.7-0.5,1.2-1.1,1.2
		c-0.6,0-1.1-0.5-1.1-1.2C291.8,393.1,292.3,392.6,293,392.6z"/>
	<path class="st0" d="M293,397.7C293,397.7,293,397.7,293,397.7c0.6,0,1.1,0.5,1.1,1.2c0,0.7-0.5,1.2-1.1,1.2
		c-0.6,0-1.1-0.5-1.1-1.2C291.8,398.2,292.3,397.7,293,397.7z"/>
	<rect x="283.9" y="392.6" class="st8" width="3.5" height="11"/>
	<rect x="278.9" y="392.6" class="st8" width="3.5" height="11"/>
	<rect x="273.9" y="392.6" class="st8" width="3.5" height="11"/>
	<rect x="268.9" y="392.6" class="st8" width="3.5" height="11"/>
	<rect x="263.9" y="392.6" class="st8" width="3.5" height="11"/>
	<rect x="258.9" y="392.6" class="st8" width="3.5" height="11"/>
	<rect x="253.9" y="392.6" class="st8" width="3.5" height="11"/>
	<rect x="248.8" y="392.6" class="st8" width="3.5" height="11"/>
	<rect x="243.8" y="392.6" class="st8" width="3.5" height="11"/>
	<rect x="238.8" y="392.6" class="st8" width="3.5" height="11"/>
	<path class="st5" d="M262.3,246.1c0-0.4,0-0.9,0-1.6c0-0.7,0-1.6,0-2.6c0-1.2,0.1-2.3,0.4-3.5c0.3-1.4,0.9-2.7,1.7-3.9
		c0.9-1.4,2.1-2.4,3.6-3.1c1.6-0.6,3.3-1,5-1.1l5.4-0.5c7.4-0.7,14.2-1.1,19.1-1.1c2.5,0,4.4,0,5.8,0.1l1.5,0.1c0.2,0,0.4,0,0.5,0.1
		c-0.2,0-0.4,0-0.5,0h-1.5c-1.4,0-3.3-0.1-5.8,0c-4.9,0.1-11.6,0.5-19.1,1.2l-5.4,0.5c-1.7,0.1-3.3,0.4-4.9,1.1
		c-1.4,0.6-2.6,1.6-3.5,2.9c-0.8,1.1-1.3,2.4-1.7,3.7c-0.3,1.1-0.4,2.3-0.4,3.4c-0.1,1,0,1.9-0.1,2.6
		C262.4,245.1,262.4,245.6,262.3,246.1c0.1,0.2,0.1,0.4,0,0.5C262.3,246.4,262.3,246.2,262.3,246.1z"/>
	<path class="st5" d="M281.4,246.1c0-0.4-0.1-0.9-0.1-1.6s-0.1-1.5,0-2.5c0-1.1,0.3-2.2,0.8-3.2c0.7-1.2,1.7-2,3-2.5
		c1.4-0.6,2.9-0.8,4.3-0.5c0.8,0.1,1.6,0.4,2.3,0.8c0.8,0.4,1.4,1,1.8,1.8c0.5,0.9,0.5,1.9,0,2.7c-0.5,0.9-1.2,1.5-2.2,1.7
		c-0.9,0.2-1.9-0.1-2.6-0.8c-0.7-0.7-1.1-1.6-1.2-2.5c0-0.9,0.2-1.8,0.8-2.5c0.5-0.7,1.1-1.3,1.8-1.7c0.4-0.2,0.7-0.3,1.1-0.4
		c0.4-0.1,0.7-0.1,1.1-0.2c0.7-0.1,1.4-0.2,2.1-0.3c1.3-0.1,2.6-0.3,3.8-0.3c2.3-0.1,4.2,0,5.5,0.1l1.5,0.1c0.2,0,0.3,0,0.5,0.1
		c-0.2,0-0.3,0-0.5,0h-1.5c-1.3,0-3.1,0-5.4,0.1c-1.1,0-2.4,0.1-3.7,0.3c-0.7,0.1-1.4,0.2-2.1,0.3c-0.7,0.1-1.4,0.3-2.1,0.6
		c-0.7,0.4-1.2,0.9-1.7,1.5c-1,1.4-0.9,3.3,0.3,4.5c0.6,0.6,1.4,0.9,2.2,0.7c0.8-0.2,1.5-0.7,1.9-1.5c0.4-0.7,0.4-1.6,0-2.3
		c-0.4-0.7-1-1.3-1.7-1.6c-0.7-0.4-1.4-0.6-2.1-0.8c-1.4-0.3-2.8-0.1-4.1,0.4c-1.2,0.4-2.2,1.2-2.8,2.3c-0.5,1-0.7,2-0.8,3.1
		c-0.1,0.9-0.1,1.8-0.1,2.4S281.5,245.7,281.4,246.1c0.1,0.1,0.1,0.3,0,0.5C281.4,246.4,281.4,246.3,281.4,246.1z"/>
	<path class="st5" d="M257.3,245.9c0-0.4,0.1-1,0.3-1.8c0.4-2.2,1-4.3,1.7-6.4c0.6-1.4,1.2-2.8,2.1-4c1-1.5,2.1-2.8,3.5-3.9
		c1.5-1.2,3.3-1.9,5.2-2.1c2-0.2,4-0.4,6-0.3c8.1-0.2,15.5-0.1,20.8-0.2c2.7-0.1,4.8-0.1,6.3-0.2l1.7-0.1h0.6
		c-0.2,0.1-0.4,0.1-0.6,0.1l-1.7,0.1c-1.5,0.1-3.7,0.2-6.3,0.3c-5.3,0.2-12.7,0.2-20.8,0.3c-2,0-3.9,0.1-5.9,0.3
		c-1.8,0.2-3.5,0.9-5,2c-2.4,2-4.3,4.7-5.5,7.7c-0.8,2-1.4,4.2-1.9,6.3C257.5,245,257.4,245.6,257.3,245.9c0,0.3,0,0.5-0.1,0.7
		C257.2,246.4,257.2,246.2,257.3,245.9z"/>
	<rect x="239.2" y="211.3" class="st5" width="61.2" height="9.4"/>
	<rect x="253.6" y="216" class="st8" width="33.3" height="4.7"/>
	<path class="st5" d="M214.6,405.4c0.5,0.1,0.9,0.2,1.4,0.3c1.7,0.5,3.3,1.3,4.7,2.3c1,0.7,1.9,1.6,2.7,2.6c0.4,0.6,0.8,1.2,1.1,1.8
		c0.3,0.7,0.5,1.4,0.7,2.1c0.7,3,0.5,6.5,0.4,10s0.1,6.9,1.3,9.7c0.6,1.3,1.4,2.5,2.4,3.4c0.9,0.8,1.9,1.5,3,2
		c0.9,0.4,1.8,0.7,2.8,0.9c0.7,0.1,1.5,0.2,2.2,0.2c1.2-0.1,1.9-0.3,1.9-0.2c-0.2,0.1-0.3,0.1-0.5,0.1c-0.5,0.1-0.9,0.2-1.4,0.2
		c-0.8,0.1-1.5,0-2.3-0.1c-2.2-0.4-4.3-1.4-5.9-3c-1.1-1-1.9-2.2-2.5-3.5c-1.3-2.8-1.5-6.3-1.4-9.8c0.1-3.5,0.3-6.9-0.4-9.9
		c-0.2-0.7-0.4-1.4-0.7-2.1c-0.3-0.6-0.7-1.2-1.1-1.7c-0.7-1-1.6-1.8-2.6-2.5c-1.4-1.1-3-1.9-4.6-2.4c-1.2-0.4-1.9-0.4-1.9-0.5
		C214.3,405.3,214.5,405.3,214.6,405.4z"/>
	<rect x="237.4" y="437.5" class="st5" width="5" height="6.4"/>
	<rect x="186" y="389.1" class="st8" width="28.2" height="32.5"/>
	<ellipse class="st5" cx="200.1" cy="405.4" rx="9.3" ry="9.8"/>
	<path class="st8" d="M200,400.6c2.5,0,4.6,2.2,4.6,4.9s-2.1,4.9-4.6,4.9c-2.5,0-4.6-2.2-4.6-4.9S197.5,400.6,200,400.6z"/>
	<ellipse class="st5" cx="210.4" cy="394.1" rx="0.9" ry="0.9"/>
	<ellipse class="st5" cx="190.3" cy="394.1" rx="0.9" ry="0.9"/>
	<path class="st5" d="M190.1,417.2C190.1,417.2,190.1,417.2,190.1,417.2c0.5,0,0.9,0.4,0.9,0.9s-0.4,0.9-0.9,0.9
		c-0.5,0-0.9-0.4-0.9-0.9C189.2,417.6,189.6,417.2,190.1,417.2z"/>
	<ellipse class="st5" cx="210.4" cy="418.5" rx="0.9" ry="0.9"/>
	<rect x="183.7" y="389.1" class="st5" width="2.3" height="32.5"/>
</g>
<path class="st6" d="M68.4,311.9c0.4,0.9,1.1,1.6,1.9,2l0.7,0.3l-0.5,0.2c-1,0.4-1.8,1.1-2.2,2l-0.3,0.5l-0.2-0.4
	c-0.4-1-1.2-1.8-2.2-2.2l-0.6-0.2l0.6-0.2c1-0.4,1.8-1.2,2.2-2.1l0.2-0.6L68.4,311.9z"/>
<path class="st6" d="M34.3,264c0.4,0.9,1.1,1.6,1.9,2l0.7,0.3l-0.5,0.2c-1,0.4-1.8,1.1-2.2,2L34,269l-0.2-0.4
	c-0.4-1-1.2-1.8-2.2-2.2l-0.6-0.2l0.6-0.3c1-0.4,1.8-1.2,2.1-2.1l0.2-0.5L34.3,264z"/>
<path class="st6" d="M49.6,166.5c-1,0.2-2.1,0.2-3.2,0C47.5,166.3,48.6,166.3,49.6,166.5z"/>
<path class="st6" d="M44.7,165.4c-0.2-1.1-0.2-2.2,0-3.2C45,163.2,45,164.3,44.7,165.4z"/>
<path class="st6" d="M41.3,166.6c-0.5,0.1-1.1,0-1.6-0.2c0.5-0.2,1.1-0.2,1.6-0.2c0.5-0.1,1.1,0,1.6,0.2
	C42.4,166.6,41.9,166.6,41.3,166.6z"/>
<path class="st6" d="M44.6,167.5c0.2,1.1,0.2,2.2,0,3.2C44.4,169.7,44.4,168.6,44.6,167.5z"/>
<path class="st6" d="M42.5,168.1c0.3-0.4,0.6-0.6,0.7-0.6s-0.1,0.4-0.4,0.8s-0.6,0.6-0.7,0.6C42,168.8,42.2,168.4,42.5,168.1z"/>
<path class="st6" d="M42.9,164.4c0.3,0.3,0.5,0.7,0.5,0.7s-0.4-0.1-0.7-0.5s-0.5-0.6-0.5-0.7C42.3,163.9,42.6,164.1,42.9,164.4z"/>
<path class="st6" d="M46.3,164.6c0.3-0.3,0.6-0.4,0.7-0.3s-0.1,0.3-0.5,0.6s-0.6,0.4-0.7,0.3C45.8,165.1,46,164.9,46.3,164.6z"/>
<path class="st6" d="M46.7,167.8c0.3,0.3,0.5,0.6,0.4,0.7s-0.4-0.2-0.7-0.5s-0.5-0.6-0.4-0.7C46.1,167.3,46.4,167.5,46.7,167.8z"/>
<g id="freepik--Character--inject-172">
	<path class="st7" d="M407.5,442.3l-0.1-1.6l-17.3,0.5l0.5,6.7h1.1c4.8-0.1,24.2-1,27.3-2.2C422.4,444.4,407.5,442.3,407.5,442.3z"
		/>
	<path class="st9" d="M396.8,447.3c-0.4-1.4-1.3-2.7-2.5-3.5c-1.2-0.8-2.7-1.1-4.1-0.9l0.4,4.8L396.8,447.3z"/>
	<path class="st9" d="M414.8,443.6c0,0,5.2,1.1,4.7,2s-20.2,2.5-28.9,2.4v-0.4l22.9-1.6C413.5,445.9,413.8,443.7,414.8,443.6z"/>
	<path class="st5" d="M390.3,447.6h0.3h0.9l3.1-0.1c2.6-0.1,6.3-0.3,10.3-0.6s7.7-0.7,10.3-1l3.1-0.4l0.8-0.1l0.3,0
		c-0.1,0-0.2,0-0.3,0l-0.9,0.1l-3.1,0.3c-2.6,0.3-6.3,0.6-10.3,0.9s-7.7,0.5-10.3,0.7l-3.1,0.2l-0.9,0.1
		C390.5,447.5,390.4,447.5,390.3,447.6z"/>
	<path class="st5" d="M413.5,446.1c0.1-0.5,0.2-1,0.5-1.5c0.3-0.5,0.6-0.9,1-1.3C413.9,443.9,413.4,445,413.5,446.1L413.5,446.1z"/>
	<path class="st5" d="M408.2,444c0,0,0.3-0.3,0.5-0.7s0.4-0.8,0.3-0.8s-0.3,0.3-0.5,0.7S408.2,444,408.2,444z"/>
	<path class="st5" d="M406.8,443.4c0,0,0.3-0.2,0.6-0.5s0.5-0.5,0.4-0.6s-0.3,0.2-0.6,0.5S406.7,443.3,406.8,443.4z"/>
	<path class="st5" d="M405.8,441.8c0.3,0.1,0.6,0.1,0.9,0c0.5,0,0.9-0.1,0.9-0.2c-0.3-0.1-0.6-0.1-0.9,0
		C406.2,441.7,405.8,441.8,405.8,441.8z"/>
	<path class="st5" d="M408.7,442.4c0.4,0,0.7,0,1.1-0.1c0.4-0.1,0.8-0.2,1.1-0.4c0.2-0.1,0.4-0.2,0.6-0.3c0.1-0.1,0.2-0.2,0.3-0.4
		c0-0.2-0.1-0.3-0.2-0.4c-1-0.4-2.2,0-2.6,1.1c-0.1,0.2-0.1,0.3-0.1,0.5c0,0.2,0,0.3,0,0.3c0.1-0.4,0.2-0.7,0.4-1
		c0.2-0.3,0.5-0.6,0.9-0.7c0.4-0.2,0.9-0.2,1.3,0c0.2,0.1,0.1,0.3,0,0.5c-0.2,0.1-0.4,0.2-0.6,0.3c-0.4,0.2-0.7,0.3-1.1,0.4
		C409.1,442.4,408.7,442.4,408.7,442.4z"/>
	<path class="st5" d="M409,442.5c0.1-0.2,0.1-0.5,0.1-0.8c-0.1-0.3-0.2-0.6-0.4-0.8c-0.2-0.3-0.6-0.5-1-0.5
		c-0.2,0.1-0.4,0.3-0.3,0.5c0,0.2,0.1,0.3,0.2,0.5c0.2,0.2,0.4,0.4,0.6,0.6c0.2,0.2,0.4,0.3,0.7,0.4c-0.2-0.2-0.4-0.4-0.6-0.5
		c-0.2-0.2-0.4-0.4-0.5-0.6c-0.2-0.2-0.3-0.6,0-0.7s0.6,0.2,0.8,0.4c0.2,0.2,0.3,0.4,0.4,0.7C408.9,442,409,442.2,409,442.5z"/>
	<path class="st5" d="M390.3,442.8c0,0,0.5-0.1,1.3-0.1c2.1,0.1,3.9,1.3,4.8,3.2c0.3,0.7,0.4,1.2,0.4,1.2s0-0.1,0-0.4
		c-0.1-0.3-0.1-0.6-0.3-0.9c-0.8-2-2.8-3.3-4.9-3.3c-0.3,0-0.6,0-1,0.1C390.4,442.8,390.3,442.8,390.3,442.8z"/>
	<path class="st5" d="M398.8,445.4c0.8,0.1,1.7,0.1,2.5,0c0.8,0,1.7-0.2,2.5-0.4c0-0.1-1.1,0.1-2.5,0.2S398.9,445.4,398.8,445.4z"/>
	<path class="st5" d="M395.5,445.7c0,0,0.1,0.2,0.2,0.5s0.2,0.5,0.3,0.5s0.1-0.3-0.1-0.6S395.5,445.6,395.5,445.7z"/>
	<path class="st5" d="M394.1,444.2c0,0,0.1,0.2,0.3,0.4s0.4,0.3,0.4,0.2s-0.1-0.2-0.3-0.4S394.1,444.2,394.1,444.2z"/>
	<path class="st5" d="M392.2,443.6c0,0.1,0.3,0,0.5,0.1s0.5,0.2,0.5,0.1s-0.1-0.3-0.4-0.4S392.2,443.6,392.2,443.6z"/>
	<path class="st5" d="M390.9,443.4c0,0,0.1,0.1,0.2,0.2s0.3,0,0.3,0s-0.1-0.1-0.2-0.2S390.9,443.3,390.9,443.4z"/>
	<polyline class="st10" points="386.7,413 390.3,441.3 407,441.1 404.1,408.8 386.7,413 	"/>
	<polygon class="st9" points="390.1,441.2 388.9,430.2 405.9,428.6 407,441.1 	"/>
	<path class="st8" d="M406.3,431.3c-2.8,0.5-5.6,0.8-8.5,1c-2.8,0.3-5.7,0.5-8.5,0.5c2.8-0.5,5.6-0.8,8.5-1
		C400.6,431.4,403.4,431.3,406.3,431.3z"/>
	<path class="st8" d="M406.4,432.4c-2.8,0.5-5.6,0.8-8.5,1c-2.8,0.3-5.7,0.5-8.5,0.5c2.8-0.5,5.6-0.8,8.5-1
		C400.7,432.5,403.5,432.4,406.4,432.4z"/>
	<path class="st11" d="M413.1,141.5l4.4,11.9h0.1l14.7,29.2c3.9,7.2,2.2,19.2-9.4,23.1c-9.3,3.1-28.6-5.8-28.6-5.8l2.3-16.9
		l18.8,5.6l-7.4-31c0,0-0.6-1.1-2.1-4.4l-6.1-6.1c0,0,0.3-1.8,3.3,0.8c0.9,0.6,2.2,0.3,2.8-0.6c0.4-0.6,0.4-1.3,0.1-1.9
		c-0.9-1.5-2.8-2-4.3-1.2c-0.7,0.4-1.2,1-1.4,1.8c0,0-1.2,0.5-1.6-0.4s1.5-4.1,4-4.1c1,0,2.1,0.2,3,0.6c0,0-3-7.6-2.4-7.8
		s1.6-0.1,4.8,8.2c0,0-1.9-6.8-2-7.7s0.8-1.8,1.7,0.3l2.6,6.7c0,0-0.6-4.6-0.7-4.9c-0.1-1,0.9-1.2,1.3,0
		C411.6,137.7,413.1,141.5,413.1,141.5z"/>
	<path class="st11" d="M343.6,250.2l0.2-12c0,0-13.4-5.1-14.4-5.6l9.4-21.4l-16.5-4.6c0,0-12.7,30.6-10.2,34.4
		c3.7,5.7,21,8.2,28.3,8.9l0,0l-3.2,6.6l-3.4,3.7l1,2c0,0,9.1-5,8.9-5S343.6,253.7,343.6,250.2L343.6,250.2z"/>
	<path class="st5" d="M351.6,145.6c-0.1-1.6-0.8-6.7-0.9-8.3c-2.6,0.1-4.8-2-4.8-4.6c-0.1-2.6,2-4.8,4.6-4.8c0.5,0,1,0.1,1.5,0.2
		c-0.7-3.6,1.6-7.2,5.3-7.9c2.5-0.5,5,0.4,6.6,2.4c0.1-1.8,2.1-2.9,3.9-3.4c1.5-0.4,3.1-0.4,4.5,0.2c1.5,0.6,2.3,2.2,2,3.8
		c1.3-1.7,3.8-2,5.5-0.6c1.7,1.3,2,3.8,0.6,5.5c2.3,1.1,3.3,3.9,2.2,6.2c-0.9,1.9-2.9,2.9-5,2.6"/>
	<path class="st11" d="M354.5,175.5l18.1-1.4c0.1-2.1,0-10.3,0-10.3s7.5-1.2,7.6-8.7s-1.2-24.8-1.2-24.8l0,0
		c-8.7-3.7-18.8-2.5-26.3,3.3l-1.1,0.9L354.5,175.5z"/>
	<path class="st5" d="M376.4,143.2c-0.5-0.4-0.5-1.1-0.1-1.5c0.4-0.5,1.1-0.5,1.5-0.1c0.4,0.4,0.5,1.1,0.1,1.6
		C377.6,143.6,376.9,143.6,376.4,143.2z"/>
	<path class="st5" d="M379.1,141.5c-0.1,0.1-0.9-0.4-1.9-0.4s-1.8,0.5-1.9,0.4s0.1-0.3,0.4-0.5c0.9-0.7,2.1-0.7,3,0
		C379,141.2,379.1,141.4,379.1,141.5z"/>
	<path class="st5" d="M366.5,142.4c0.5,0.3,0.7,1,0.4,1.5c-0.3,0.5-1,0.7-1.5,0.4c-0.5-0.3-0.7-1-0.4-1.5
		C365.3,142.2,366,142.1,366.5,142.4L366.5,142.4z"/>
	<path class="st5" d="M367.8,142.4c-0.1,0.1-0.9-0.4-1.9-0.4s-1.8,0.5-1.9,0.4s0.1-0.3,0.4-0.5c0.4-0.3,1-0.5,1.5-0.5
		c0.5,0,1.1,0.2,1.5,0.5C367.8,142.1,367.9,142.3,367.8,142.4z"/>
	<path class="st5" d="M372,150.9c0.5-0.2,1.1-0.3,1.7-0.4c0.3,0,0.5-0.1,0.5-0.2c0-0.3-0.1-0.5-0.2-0.8c-0.3-0.7-0.5-1.4-0.8-2.1
		c-0.8-1.8-1.4-3.6-1.8-5.5c1,1.7,1.7,3.5,2.3,5.3c0.3,0.7,0.5,1.4,0.8,2.1c0.2,0.4,0.2,0.7,0.1,1.1c-0.1,0.2-0.2,0.4-0.5,0.4
		c-0.2,0-0.3,0.1-0.5,0.1C373.1,151.1,372.5,151.1,372,150.9z"/>
	<path class="st0" d="M368.6,152.1c1.4,0.4,3,1.6,5.1,1.5c-0.7,1.1-2.1,1.6-3.4,1.1C368.1,153.9,368.6,152.1,368.6,152.1z"/>
	<path class="st1" d="M373,154.3c-0.8-0.2-1.6-0.4-2.3-0.7c-0.8-0.3-1.5-0.6-2.1-1.1c0,0,1,0.4,2.2,0.9
		C371.5,153.6,372.3,153.9,373,154.3z"/>
	<polygon class="st1" points="369.7,152.7 369.4,153.1 369.8,153.4 370.2,152.9 	"/>
	<polygon class="st1" points="371.2,153.4 370.9,153.8 371.3,154.1 371.6,153.6 	"/>
	<polygon class="st1" points="372.5,153.8 372.2,154.3 372.6,154.5 373,154 	"/>
	<path class="st10" d="M372.6,163.6c-3.5,0.1-6.9-0.9-9.8-2.8c0,0,2.3,5.4,9.8,4.7L372.6,163.6z"/>
	<path class="st11" d="M351.6,141.7c-0.2,0-5.6-0.4-4.7,5.9c0.9,6.3,7,3.3,7,3.1S351.6,141.7,351.6,141.7z"/>
	<path class="st10" d="M351.6,148.8c0,0-0.1,0.1-0.3,0.2c-0.2,0.2-0.5,0.2-0.8,0.1c-0.9-0.4-1.5-1.3-1.6-2.3
		c-0.1-0.5-0.1-1.1,0.1-1.6c0.1-0.4,0.3-0.8,0.7-1c0.3-0.1,0.6,0,0.7,0.2c0.1,0.2,0.1,0.3,0.1,0.3s0.1-0.1,0-0.4
		c-0.1-0.2-0.2-0.3-0.3-0.4c-0.2-0.1-0.4-0.1-0.6-0.1c-0.5,0.2-0.9,0.6-1,1.1c-0.2,0.6-0.2,1.2-0.1,1.8c0.1,1.2,0.9,2.2,2,2.5
		c0.4,0.1,0.7-0.1,1-0.3C351.6,149,351.6,148.8,351.6,148.8z"/>
	<path class="st5" d="M380.3,129.7c-0.4-1.4-1.4-2.6-2.7-3.2c-1.3-0.6-2.7-0.9-4.2-1.1c-5-0.7-10.3-1.1-15.2,0.4
		c-2.4,0.6-4.6,2-6.1,4c-1.2,1.8-2.2,4.4-1.3,6.3l0,0l1.2,11.1c0.7,0.1,1.5,0.1,2.2,0v-8.8c0.6,0.1,1.3,0.1,1.9-0.1
		c1.9-0.5,3.2-2.1,3.6-4c1.8,2.6,5.4,3.2,7.9,1.4c1.5-1.1,2.4-2.8,2.4-4.7c1.2,2.2,3.5,3.5,6,3.6
		C378.5,134.5,380.8,132.1,380.3,129.7z"/>
	<path class="st5" d="M350.3,126.7c-0.1,0.1-0.8-0.6-1.8-1.1c-1-0.6-1.9-0.8-1.9-1s1-0.1,2.1,0.5S350.5,126.6,350.3,126.7z"/>
	<path class="st5" d="M350.6,125.6c-0.1,0.1-0.7-0.8-0.9-2.1c-0.2-0.8-0.2-1.6,0.1-2.3c0.2,0.7,0.4,1.5,0.4,2.2
		C350.5,124.1,350.6,124.8,350.6,125.6z"/>
	<path class="st5" d="M356.2,144.3c2.1-0.5,3.9-0.8,4.5-0.9c-0.1-0.4-0.1-0.7-0.2-1.1c0-1.2,0.3-2.3,1-3.3c0.6-0.9,1.5-1.6,2.5-2
		c0.9-0.4,1.9-0.5,2.9-0.3c0.8,0.1,1.7,0.5,2.3,1c1,0.7,1.7,1.8,2,3c0.1,0.3,0.1,0.7,0.1,1c0,0.1,0,0.2,0,0.4c0,0,0-0.5-0.3-1.3
		c-0.4-1.1-1.1-2.1-2-2.8c-1.5-1-3.3-1.3-5-0.6c-1,0.4-1.8,1-2.4,1.9c-0.6,0.9-1,2-0.9,3.1c0.1,1.1,0.4,2.1,1.1,3
		c1.8,2.3,5.1,2.7,7.4,0.9c0,0,0,0,0,0c0.9-0.7,1.6-1.8,1.9-2.9c0.1-0.3,0.1-0.7,0.2-1c-0.2,0-0.3-0.1-0.3-0.1s0.1-0.1,0.3-0.1l0,0
		l0,0c0.2,0,0.4-0.1,0.6-0.1c0.3,0,0.5,0,0.8,0.1c0,0,0,0,0-0.1c0-1.2,0.3-2.4,1-3.3c0.6-0.9,1.5-1.6,2.5-2c0.9-0.4,1.9-0.5,2.9-0.3
		c0.8,0.1,1.7,0.5,2.3,1c1,0.7,1.7,1.8,2,3c0.1,0.3,0.1,0.7,0.1,1c0,0.1,0,0.2,0,0.4c0,0,0-0.5-0.3-1.3c-0.6-2-2.3-3.4-4.3-3.7
		c-0.9-0.1-1.9,0-2.7,0.3c-2,0.8-3.3,2.8-3.3,5c0,1.1,0.4,2.1,1.1,3c0.6,0.8,1.5,1.4,2.5,1.8c1.7,0.6,3.5,0.3,4.9-0.9
		c0.9-0.7,1.6-1.8,1.9-2.9c0.2-0.8,0.2-1.3,0.2-1.3c0,0.1,0,0.2,0,0.3c0,0.3,0,0.7-0.1,1c-0.2,1.2-0.9,2.3-1.9,3.1
		c-0.7,0.6-1.4,0.9-2.3,1.1c-1,0.2-2,0.2-2.9-0.1c-2.1-0.7-3.6-2.6-3.8-4.9c-0.3,0.1-0.5,0.1-0.8,0.1c-0.2,0-0.4,0-0.6,0l0,0
		c0,0.3,0,0.7-0.1,1c-0.4,2.1-2.1,3.8-4.1,4.2c-2.9,0.7-5.8-1.1-6.5-4c-0.6,0.2-2.4,0.7-4.5,1.1c-1.6,0.4-3.2,0.7-4.8,0.9
		C352.9,145,354.5,144.6,356.2,144.3z"/>
	<path class="st5" d="M369.1,139.9c-0.2,0.7-1.7,0.9-3.4,1s-3.2,0.2-3.5-0.5c-0.1-0.3,0.1-0.8,0.7-1.2c0.8-0.5,1.7-0.8,2.6-0.9
		c0.9-0.1,1.9,0.1,2.7,0.5C368.9,139.1,369.2,139.6,369.1,139.9z"/>
	<path class="st5" d="M380.4,138.9c-0.3,0.7-1.5,0.8-2.8,1s-2.6,0.2-3-0.5c-0.2-0.3,0-0.8,0.5-1.2c0.6-0.5,1.4-0.8,2.2-0.9
		c0.8-0.1,1.7,0.1,2.4,0.5C380.2,138.1,380.5,138.6,380.4,138.9z"/>
	<path class="st5" d="M368.9,138.3c0.1-0.1,0.5,0.3,0.7,1s0.2,1.2,0.1,1.2s-0.4-0.4-0.6-1S368.8,138.4,368.9,138.3z"/>
	<polyline class="st10" points="350,413 350.9,441.6 367.6,442.9 367.7,410.5 350,413 	"/>
	<polygon class="st9" points="350.7,441.4 350.6,430.4 367.6,430.4 367.6,442.9 	"/>
	<path class="st7" d="M368,444.2v-1.6l-17.3-1.1l-0.1,6.8l1.1,0.1c4.8,0.3,24.2,1.3,27.4,0.4C382.6,447.6,368,444.2,368,444.2z"/>
	<path class="st12" d="M356.9,448.2c-0.2-1.5-1-2.8-2.1-3.7c-1.1-0.9-2.6-1.4-4-1.3l-0.1,4.8L356.9,448.2z"/>
	<path class="st12" d="M375.2,446.1c0,0,5.1,1.5,4.5,2.4s-20.3,0.6-29-0.3v-0.4l22.9,0.5C373.5,448.3,374.2,446.1,375.2,446.1z"/>
	<path class="st5" d="M350.4,447.8h0.3l0.9,0.1l3.1,0.2c2.6,0.1,6.3,0.3,10.3,0.3s7.7,0,10.3,0l3.1-0.1h0.9h0.3h-1.1h-3.1
		c-2.6,0-6.3,0-10.3,0s-7.7-0.2-10.3-0.3l-3.1-0.1h-0.9L350.4,447.8z"/>
	<path class="st5" d="M373.6,448.6c0.1-0.5,0.4-1,0.6-1.5c0.3-0.4,0.7-0.8,1.1-1.2C374.2,446.3,373.6,447.4,373.6,448.6z"/>
	<path class="st5" d="M368.5,445.9c0,0,0.3-0.3,0.6-0.6s0.4-0.7,0.4-0.8s-0.3,0.3-0.5,0.6C368.7,445.4,368.6,445.7,368.5,445.9z"/>
	<path class="st5" d="M367.2,445.2c0,0,0.3-0.1,0.6-0.4s0.5-0.5,0.5-0.5s-0.3,0.1-0.6,0.4S367.1,445.1,367.2,445.2z"/>
	<path class="st5" d="M366.3,443.6c0.3,0.1,0.6,0.2,0.9,0.1c0.3,0,0.6,0,0.9-0.1c-0.3-0.1-0.6-0.1-0.9-0.1
		C366.9,443.4,366.6,443.5,366.3,443.6z"/>
	<path class="st5" d="M369.2,444.4c0.4,0.1,0.7,0.1,1.1,0c0.4,0,0.8-0.1,1.2-0.2c0.2-0.1,0.5-0.2,0.7-0.3c0.1-0.1,0.2-0.2,0.3-0.3
		c0-0.2,0-0.3-0.2-0.4c-0.9-0.5-1.9-0.2-2.5,0.6c-0.2,0.2-0.3,0.5-0.4,0.7c0,0.1,0,0.2,0,0.3c0.1-0.3,0.3-0.7,0.5-0.9
		c0.3-0.3,0.6-0.5,1-0.6c0.4-0.1,0.9-0.1,1.3,0.1c0.2,0.1,0.1,0.3-0.1,0.5c-0.2,0.1-0.4,0.2-0.6,0.3c-0.4,0.1-0.8,0.2-1.1,0.3
		C369.6,444.4,369.2,444.4,369.2,444.4z"/>
	<path class="st5" d="M369.4,444.5c0.1-0.2,0.2-0.5,0.1-0.8c0-0.3-0.1-0.6-0.3-0.8c-0.2-0.3-0.5-0.6-0.9-0.6
		c-0.2,0.1-0.4,0.3-0.3,0.5c0,0.2,0.1,0.3,0.2,0.5c0.1,0.2,0.3,0.5,0.5,0.7C368.9,444.2,369.1,444.4,369.4,444.5
		c-0.1,0-0.3-0.2-0.6-0.6c-0.2-0.2-0.3-0.4-0.5-0.7c-0.1-0.2-0.3-0.7,0-0.7s0.5,0.3,0.7,0.5c0.2,0.2,0.3,0.5,0.3,0.7
		C369.4,444,369.4,444.3,369.4,444.5z"/>
	<path class="st5" d="M350.8,443.1c0,0,0.5,0,1.3,0.1c1,0.1,2,0.5,2.8,1.2c0.8,0.7,1.4,1.5,1.7,2.5c0.3,0.7,0.3,1.2,0.3,1.2
		c0-0.1,0-0.2,0-0.4c0-0.3-0.1-0.6-0.2-0.9c-0.3-1-0.9-1.9-1.7-2.6c-0.8-0.7-1.8-1.1-2.9-1.2c-0.3,0-0.7,0-1,0
		C351,443,350.9,443.1,350.8,443.1z"/>
	<path class="st5" d="M359.1,446.5c0.8,0.2,1.7,0.3,2.5,0.3c0.8,0,1.7,0,2.5-0.2c0-0.1-1.1,0-2.5,0S359.1,446.4,359.1,446.5z"/>
	<path class="st5" d="M355.7,446.5c0,0,0.1,0.2,0.2,0.5c0.1,0.3,0.2,0.5,0.2,0.5c0,0,0.1-0.3,0-0.6S355.7,446.4,355.7,446.5z"/>
	<path class="st5" d="M354.4,444.9c0,0,0.1,0.2,0.3,0.4s0.4,0.3,0.4,0.3c0,0-0.1-0.2-0.2-0.4C354.7,444.9,354.5,444.8,354.4,444.9z"
		/>
	<path class="st5" d="M352.6,444.1c0,0.1,0.2,0.1,0.5,0.1s0.4,0.2,0.5,0.2c0,0-0.1-0.3-0.4-0.4S352.6,444.1,352.6,444.1z"/>
	<path class="st5" d="M351.3,443.7c0,0.1,0.1,0.1,0.2,0.2c0.1,0.1,0.3,0.1,0.3,0s-0.1-0.1-0.2-0.2
		C351.5,443.7,351.4,443.7,351.3,443.7z"/>
	<path class="st8" d="M367.8,433.1c-2.8,0.2-5.7,0.3-8.5,0.2c-2.9,0.1-5.7,0-8.6-0.3c2.8-0.2,5.7-0.3,8.6-0.2
		C362.1,432.7,365,432.8,367.8,433.1z"/>
	<path class="st8" d="M367.8,434.2c-2.8,0.2-5.7,0.3-8.5,0.2c-2.9,0.1-5.7-0.1-8.6-0.3c2.8-0.2,5.7-0.3,8.6-0.2
		C362.1,433.8,365,433.9,367.8,434.2z"/>
	<path class="st7" d="M414.3,187.4c-6.4-2.2-12.6-4.9-18.6-8c-11.9-7-18-7.4-21.5-7.6l-0.5-6.1l-20.3-1.1v7.5
		c-3.3,0.2-6.6,0.8-9.8,1.8c-8.1,2.9-14.6,7.4-18.3,17l-7.8,17.3l21.9,5.8l3.7-8.1l0.4,21.2l0.2,23l51.1,2.9l-1.9-23.1l-1.2-23.7
		l14.9,4.3L414.3,187.4z"/>
	<path class="st5" d="M403,209.1c0.3-1.2,0.6-2.3,1.1-3.4c0.7-2.2,1.7-5.1,2.7-8.2s2-6.1,2.8-8.2c0.4-1,0.7-1.9,0.9-2.4
		c0.1-0.3,0.2-0.6,0.4-0.9c-0.3,1.2-0.6,2.3-1,3.4c-0.7,2.2-1.6,5.1-2.6,8.2s-2.1,6.1-2.9,8.1c-0.4,1-0.7,1.9-1,2.4
		C403.3,208.5,403.2,208.8,403,209.1z"/>
	<path class="st5" d="M341.1,210.7c-0.3,0-0.6,0-0.9-0.1c-0.6-0.1-1.4-0.2-2.5-0.4c-2.1-0.4-5-1-8.1-1.8s-6-1.7-8-2.5
		c-1-0.4-1.8-0.7-2.4-0.9c-0.3-0.1-0.6-0.2-0.8-0.4c1.1,0.3,2.2,0.6,3.3,1c2,0.6,4.8,1.5,8,2.3c3.2,0.8,6,1.5,8.1,1.9
		C338.9,210.2,340,210.4,341.1,210.7z"/>
	<path class="st5" d="M366.3,251.3c-0.1,0-0.6-17.4-1.1-39s-0.7-39-0.6-39s0.6,17.4,1.1,39S366.5,251.3,366.3,251.3z"/>
	<path class="st5" d="M367.4,187.1c0,0.1-0.3,0.3-0.3,0.8c0,0.3,0.1,0.5,0.3,0.7c0.4,0.3,0.9,0.2,1.1-0.2c0.1-0.1,0.1-0.3,0.1-0.5
		c0-0.3-0.2-0.5-0.4-0.6C367.8,187,367.5,187.1,367.4,187.1c0-0.1,0.4-0.4,1.1-0.1c0.4,0.2,0.6,0.5,0.7,0.9c0.1,0.7-0.4,1.3-1.1,1.4
		c-0.3,0-0.7-0.1-0.9-0.3c-0.3-0.3-0.4-0.7-0.3-1.1C366.9,187.2,367.4,187,367.4,187.1z"/>
	<path class="st5" d="M368.4,208.4c0,0.1-0.3,0.3-0.3,0.8c0,0.3,0.1,0.5,0.3,0.7c0.2,0.2,0.6,0.2,0.8,0.1c0.3-0.1,0.5-0.4,0.4-0.7
		c0-0.3-0.2-0.5-0.4-0.6C368.8,208.3,368.5,208.4,368.4,208.4c0.1-0.1,0.4-0.4,1-0.2c0.4,0.2,0.6,0.5,0.7,0.9
		c0.1,0.7-0.4,1.3-1.1,1.4c-0.3,0-0.7-0.1-0.9-0.3c-0.3-0.3-0.4-0.7-0.3-1.1C367.9,208.5,368.4,208.3,368.4,208.4z"/>
	<path class="st5" d="M368.4,225.1c0,0.1-0.3,0.3-0.3,0.8c0,0.3,0.1,0.5,0.3,0.7c0.2,0.2,0.6,0.2,0.8,0.1c0.3-0.1,0.5-0.4,0.4-0.7
		c0-0.3-0.2-0.5-0.4-0.6C368.8,225,368.5,225.2,368.4,225.1c0.1-0.1,0.4-0.4,1-0.2c0.4,0.2,0.6,0.5,0.7,0.9c0.1,0.7-0.4,1.3-1.1,1.4
		c-0.3,0-0.7-0.1-0.9-0.3c-0.3-0.3-0.4-0.7-0.3-1.1C367.9,225.2,368.4,225.1,368.4,225.1z"/>
	<path class="st5" d="M369.4,240c0,0.1-0.3,0.3-0.3,0.8c0,0.3,0.1,0.5,0.3,0.7c0.3,0.2,0.6,0.2,0.8,0c0.3-0.1,0.5-0.4,0.4-0.7
		c0-0.3-0.2-0.5-0.4-0.6C369.8,239.8,369.5,240,369.4,240c0-0.2,0.4-0.5,1.1-0.2c0.6,0.3,0.9,1,0.6,1.6c-0.3,0.6-1,0.9-1.6,0.6
		c-0.5-0.2-0.8-0.8-0.7-1.4C368.9,240,369.4,239.9,369.4,240z"/>
	<polygon class="st5" points="378.6,172.1 380.6,214.3 383.8,214.3 381.8,172.9 	"/>
	<path class="st5" d="M380.7,217.8l3.2,34.9c1,0,2.1-0.1,3.1-0.3c-0.1-0.2-3-34.5-3-34.5L380.7,217.8z"/>
	<path class="st5" d="M383.9,214.2c0,0.1-0.7,0.3-1.6,0.3s-1.6-0.1-1.6-0.2s0.7-0.3,1.6-0.3S383.9,214.1,383.9,214.2z"/>
	<path class="st5" d="M383.9,217.6c0,0.1-0.7,0.3-1.5,0.3s-1.5,0-1.5-0.2s0.7-0.3,1.5-0.3S383.9,217.5,383.9,217.6z"/>
	<path class="st5" d="M382.1,217.9c-0.1,0-0.4-0.8-0.5-1.9s-0.1-1.9,0-1.9s0.4,0.8,0.5,1.9S382.3,217.8,382.1,217.9z"/>
	<path class="st5" d="M383.1,217.9c-0.1,0-0.4-0.8-0.5-1.7s-0.1-1.8,0-1.8s0.4,0.8,0.5,1.7S383.2,217.9,383.1,217.9z"/>
	<path class="st5" d="M348.7,217.9l0.6,32.7c1.1,0.2,2.3,0.2,3.4,0.2c-0.1-0.2-0.8-32.8-0.8-32.8L348.7,217.9z"/>
	<polygon class="st5" points="348,172.4 348.4,214.3 351.6,214.3 351.2,172 	"/>
	<path class="st5" d="M351.6,214.4c0,0.1-0.7,0.2-1.6,0.2s-1.6-0.1-1.6-0.3c0-0.1,0.7-0.3,1.6-0.2
		C350.9,214.1,351.6,214.2,351.6,214.4z"/>
	<path class="st5" d="M352.1,217.9c0,0.1-0.7,0.4-1.7,0.4s-1.7-0.2-1.7-0.4s0.8-0.1,1.7-0.2C351.3,217.7,352.1,217.7,352.1,217.9z"
		/>
	<path class="st5" d="M349.9,218.2c-0.1,0-0.3-0.8-0.4-1.8s0-1.9,0.1-1.9s0.3,0.8,0.4,1.8S350.1,218.2,349.9,218.2z"/>
	<path class="st5" d="M350.9,218.2c-0.1,0-0.3-0.8-0.4-1.8s0-1.9,0.1-1.9s0.3,0.8,0.4,1.8S351,218.2,350.9,218.2z"/>
	<path class="st8" d="M372.3,168.2c-1-0.5-4.7,1.5-6.7,2.8c0-0.3-0.1-0.5-0.3-0.8h-2.8c0,0,0,0.1-0.1,0.4c-1.5-1.1-3.2-1.9-5.1-2.4
		c-0.7-0.2-1.4,0.3-1.6,1c0,0.1,0,0.2,0,0.3c-0.1,2-0.2,5.7,0.4,6c0.9,0.5,4.3-1.3,6.4-2.6c0.1,0.2,0.2,0.4,0.3,0.6l2.9-0.2
		c0,0,0-0.2,0-0.4c1.6,1.2,3.4,2.1,5.4,2.6c0.7,0.1,1.4-0.3,1.6-1c0-0.1,0-0.2,0-0.2C372.8,172.2,372.9,168.6,372.3,168.2z"/>
	<path class="st5" d="M365.5,173.1c-0.1,0,0-0.7-0.1-1.5s-0.2-1.4-0.1-1.5s0.6,0.6,0.6,1.4S365.7,173.2,365.5,173.1z"/>
	<path class="st5" d="M369.9,170.6c0,0.1-0.8,0.5-1.9,0.8c-0.7,0.3-1.4,0.4-2.1,0.3c0-0.1,0.8-0.5,1.9-0.8S369.8,170.4,369.9,170.6z
		"/>
	<path class="st5" d="M370,172.9c-0.7,0.1-1.5,0-2.2-0.2c-0.8-0.1-1.5-0.3-2.1-0.7c0.8-0.1,1.5,0,2.2,0.2
		C368.7,172.2,369.4,172.5,370,172.9z"/>
	<path class="st5" d="M362.6,173.2c-0.1,0-0.4-0.5-0.5-1.3s0.1-1.4,0.3-1.3s0.2,0.6,0.2,1.3S362.7,173.1,362.6,173.2z"/>
	<path class="st5" d="M357.3,171c0.8-0.2,1.7-0.2,2.6,0c0.9,0,1.7,0.2,2.5,0.6C360.6,171.7,358.9,171.5,357.3,171L357.3,171z"/>
	<path class="st5" d="M358.4,173.3c0-0.1,0.8-0.6,2-1c0.7-0.3,1.4-0.5,2.1-0.5c0.1,0.1-0.8,0.6-2,1S358.4,173.4,358.4,173.3z"/>
	<polygon class="st5" points="343.9,249.8 346.4,425.6 371.3,424.4 372.6,287.6 382.9,425.6 409.1,425.6 394.9,252.9 	"/>
	<polygon class="st8" points="345.7,424.8 345.7,429.1 371.6,428.5 371.9,423.2 	"/>
	<polygon class="st8" points="382.7,424.8 382.7,429.1 409.3,428.1 408.9,423.2 	"/>
	<path class="st8" d="M368.7,271.4c0.2,0,0.5-0.1,0.7-0.2c0.6-0.3,1-0.9,1.1-1.6c0.1-1,0-2.1-0.2-3.1c-0.1-1.2-0.3-2.5-0.4-3.8
		c-0.3-2.7-0.5-5.2-0.7-7c-0.1-1-0.2-1.9-0.1-2.9c0.3,0.9,0.4,1.9,0.5,2.9c0.2,1.8,0.5,4.3,0.8,7c0.1,1.4,0.3,2.6,0.4,3.8
		c0.2,1.1,0.2,2.1,0.1,3.2c-0.1,0.8-0.7,1.4-1.4,1.7C369,271.6,368.7,271.4,368.7,271.4z"/>
	<path class="st8" d="M366.1,252.3c0,0,0.4,0.2,0.9,0.8c0.3,0.4,0.5,0.9,0.5,1.4c0,0.3-0.1,0.6-0.3,0.8c-0.2,0.3-0.6,0.5-0.9,0.5
		c-0.7-0.1-1.2-0.6-1.3-1.2c-0.1-0.5,0-1,0.2-1.4c0.4-0.7,0.7-1,0.8-1s-0.2,0.4-0.4,1.1c-0.1,0.4-0.2,0.8-0.1,1.1
		c0.1,0.4,0.4,0.7,0.9,0.8c0.4,0,0.7-0.4,0.8-0.8c0-0.4-0.1-0.8-0.3-1.1C366.3,252.7,366,252.4,366.1,252.3z"/>
	<path class="st8" d="M358.4,424c-0.1,0-0.3-36.5-0.3-81.5s0.1-81.5,0.3-81.5s0.3,36.5,0.3,81.5S358.6,424,358.4,424z"/>
	<path class="st8" d="M395.5,425c0-0.1,0-0.3,0-0.4c0-0.3-0.1-0.7-0.1-1.2c-0.1-1.1-0.2-2.6-0.3-4.6c-0.3-4-0.7-9.8-1.2-17
		c-1-14.3-2.3-34.1-3.7-56s-2.5-41.7-3.1-56c-0.3-7.2-0.6-13-0.7-17c-0.1-2-0.1-3.5-0.1-4.6c0-0.5,0-0.9,0-1.2c0-0.1,0-0.3,0-0.4
		c0,0.1,0,0.3,0,0.4c0,0.3,0,0.7,0.1,1.2c0,1.1,0.1,2.6,0.2,4.6c0.2,4,0.5,9.8,0.9,17c0.8,14.3,1.9,34.1,3.3,56s2.6,41.6,3.6,56
		c0.4,7.1,0.8,12.9,1,17c0.1,2,0.2,3.5,0.2,4.6c0,0.5,0,0.9,0,1.2C395.5,424.7,395.5,424.9,395.5,425z"/>
</g>
</svg>
