<svg id="Layer_1" data-name="Layer 1" xmlns="http://www.w3.org/2000/svg" viewBox="0 0 32 32"><title>sitecheen logo Final 21</title><path d="M21.1,9.2V.4h0a2.4,2.4,0,0,0-2.4,2.4v7.8a2.2,2.2,0,0,0,2.2,2.2h8.7a2.3,2.3,0,0,0,2.3-2.3H22.3A1.2,1.2,0,0,1,21.1,9.2Z" fill="#ff3600"/><path d="M15.4,6.2h-.3V9a1.4,1.4,0,0,1-1.4,1.4h-.4A1.5,1.5,0,0,1,11.8,9V6.2H9.5V9.7a3.1,3.1,0,0,0,3.1,3.1h1.8a3.1,3.1,0,0,0,3.1-3.1V8.3A2.2,2.2,0,0,0,15.4,6.2Z" fill="#ff3600"/><path d="M9.5,6.2v3a1.2,1.2,0,0,1-1.3,1.2H0v2.4H8.1A3.7,3.7,0,0,0,11.8,9V6.2Z" fill="#ff3600"/><ellipse cx="12.4" cy="15.4" rx="1.5" ry="1.5" fill="#ff3600"/><ellipse cx="15.3" cy="15.4" rx="1.5" ry="1.5" fill="#ff3600"/><path d="M19.9,20.3v2.9a1.3,1.3,0,0,0,1.3,1.3h5.9v2.4H21.3a3.7,3.7,0,0,1-3.7-3.8V20.3Z" fill="#06826a"/><path d="M17.6,20.3v2.9a1.3,1.3,0,0,1-1.3,1.3H11.2v2.4h5a3.7,3.7,0,0,0,3.7-3.8V20.3Z" fill="#06826a"/><path d="M28.1,17.9h-3c-1.7,0-2.7.6-2.7,2.4h5.1a2.1,2.1,0,0,1,0,4.2H23c.2,1.5.8,2.4,2.5,2.4h2.6a4,4,0,0,0,3.9-4v-1A4,4,0,0,0,28.1,17.9Z" fill="#06826a"/><path d="M9,21.7l2.2-1.4s2.9,4.3.2,8.7S2.6,32.3.9,29.6a8,8,0,0,1-.5-6.2l2.1.5s-.7,3.1.9,4.5,5.7,1.3,6.6-2.1A6,6,0,0,0,9,21.7Z" fill="#06826a"/><ellipse cx="5.4" cy="21.4" rx="1.5" ry="1.5" fill="#06826a"/><ellipse cx="14.5" cy="29.4" rx="1.5" ry="1.5" fill="#06826a"/><ellipse cx="17.4" cy="29.4" rx="1.5" ry="1.5" fill="#06826a"/><ellipse cx="23.8" cy="29.4" rx="1.5" ry="1.5" fill="#06826a"/><ellipse cx="26.7" cy="29.4" rx="1.5" ry="1.5" fill="#06826a"/><ellipse cx="29.6" cy="29.4" rx="1.5" ry="1.5" fill="#06826a"/><ellipse cx="2.8" cy="8.4" rx="1.5" ry="1.5" fill="#ff3600"/><ellipse cx="5.7" cy="8.4" rx="1.5" ry="1.5" fill="#ff3600"/></svg>