<svg xmlns="http://www.w3.org/2000/svg" width="974" height="424" viewBox="0 0 974 424" opacity="0.5"><defs><clipPath id="i3tba"><path fill="#fff" d="M-10.616 413.093L133.761 1.24l833.725 417.36L715.335 3.441l113.875 416.26L973.586 174.13 786.506 3.441l109.808 417.36 74.222-89.197L542.49 2.34l429.063 37.441-354.842 379.92 46.77-415.159L206.966 418.6-13.666 48.591l507.352 374.414L453.016 2.34 557.742 418.6-9.6 364.64 63.606 2.34l233.85 420.665 51.853-412.956L84.958 419.701l-95.574-212.535L245.602 2.34 399.13 420.802-6.55 10.049l980.135 107.918L584.176 418.6 386.929 4.542l343.657 415.16-40.67-415.16"/></clipPath></defs><g><g clip-path="url(#clip-383)" opacity=".15"><path fill="none" stroke="#ffb400" stroke-miterlimit="20" stroke-width="2" d="M-10.616 413.093v0L133.761 1.24v0l833.725 417.36v0L715.335 3.441v0l113.875 416.26v0L973.586 174.13v0L786.506 3.441v0l109.808 417.36v0l74.222-89.197v0L542.49 2.34v0l429.063 37.441v0L616.71 419.701v0l46.77-415.159v0L206.966 418.6v0L-13.666 48.591v0l507.352 374.414v0L453.016 2.34v0L557.742 418.6v0L-9.6 364.64v0L63.606 2.34v0l233.85 420.665v0l51.853-412.956v0L84.958 419.701v0l-95.574-212.535v0L245.602 2.34v0L399.13 420.802v0L-6.55 10.049v0l980.135 107.918v0L584.176 418.6v0L386.929 4.542v0l343.657 415.16v0l-40.67-415.16v0" clip-path="url(&quot;#i3tba&quot;)"/></g></g></svg>