<?xml version="1.0" encoding="utf-8"?>
<!-- Generator: Adobe Illustrator 24.0.1, SVG Export Plug-In . SVG Version: 6.00 Build 0)  -->
<svg version="1.1" id="Layer_1" xmlns="http://www.w3.org/2000/svg" xmlns:xlink="http://www.w3.org/1999/xlink" x="0px" y="0px"
	 viewBox="0 0 750 500" style="enable-background:new 0 0 750 500;" xml:space="preserve">
<style type="text/css">
	.st0{fill:#5400FF;}
	.st1{opacity:0.2;}
	.st2{fill:#263238;}
	.st3{opacity:0.3;}
	.st4{fill:#FFFFFF;}
	.st5{fill:#FAFAFA;}
	.st6{fill:#FFB400;}
	.st7{fill:#FFBE9D;}
	.st8{fill:#EB996E;}
	.st9{opacity:0.78;}
	.st10{fill:#455A64;}
	.st11{opacity:0.6;}
	.st12{fill:#E0E0E0;}
	.st13{opacity:0.2;enable-background:new    ;}
	.st14{fill:#F5F5F5;}
</style>
<g id="freepik--Plant--inject-249">
	<path class="st0" d="M175.3,406.5c-1.9,2.8-5.7,1.9-7.5,0.2s-2.5-4.1-3.2-6.5c-1.5-5.3-3.1-10.9-1.9-16.4c0.3-1.6,1-3.2,2.1-4.5
		c1.1-1.3,2.8-1.8,4.5-1.5c1.9,0.5,3.1,2.4,3.9,4.1c2.5,5.2,3.8,10.9,3.9,16.7C177.1,401.5,176.8,404.3,175.3,406.5"/>
	<g class="st1">
		<path d="M175.3,406.5c-1.9,2.8-5.7,1.9-7.5,0.2s-2.5-4.1-3.2-6.5c-1.5-5.3-3.1-10.9-1.9-16.4c0.3-1.6,1-3.2,2.1-4.5
			c1.1-1.3,2.8-1.8,4.5-1.5c1.9,0.5,3.1,2.4,3.9,4.1c2.5,5.2,3.8,10.9,3.9,16.7C177.1,401.5,176.8,404.3,175.3,406.5"/>
	</g>
	<path class="st0" d="M168.1,420.6c-3.3-1.5-6.9-2-10.4-1.3c-1.9,0.2-3.7,1-5.1,2.3c-1.3,1.4-1.5,3.9-0.1,5.1c1,0.6,2.1,0.9,3.3,0.8
		c2.8,0,5.8-0.5,8,1.1c1.3,1,2.1,2.5,3.6,3c1.5,0.4,3.1-0.4,3.9-1.7c0.7-1.4,0.9-3,0.4-4.5C171.3,423.4,169.9,421.6,168.1,420.6z"/>
	<path class="st0" d="M180.6,410.5c-2-2.6-2.6-6.1-1.6-9.3c1.1-3.1,3-5.9,5.5-8c2.9-2.6,6.2-4.5,9.8-5.8c1.4-0.6,2.9-0.8,4.4-0.8
		c1.5,0.1,2.9,0.9,3.7,2.2c1,2,0,4.4-1,6.3c-1.9,3.4-4,6.7-6.5,9.8c-1.9,2.5-4.2,5-7.1,6.1s-6,1-7.6-1"/>
	<path class="st2" d="M175.4,448.3c-0.1-0.4-0.2-0.8-0.2-1.3c-0.1-0.9-0.2-2.1-0.3-3.4c-0.2-1.7-0.4-3.3-0.8-5c-0.5-2-1.1-4-1.8-5.9
		c-0.7-1.9-1.7-3.7-3-5.4c-1.7-2.3-4.2-3.8-7.1-4.2c-0.4,0-0.8-0.1-1.3-0.2c0.4,0,0.9,0,1.3,0c1.2,0.1,2.3,0.4,3.4,0.9
		c1.6,0.8,2.9,1.9,4,3.2c1.3,1.7,2.4,3.5,3.1,5.5c0.8,2,1.4,4,1.8,6c0.3,1.7,0.5,3.4,0.7,5.1c0.1,1.5,0.2,2.6,0.2,3.5
		C175.5,447.5,175.5,447.9,175.4,448.3z"/>
	<path class="st2" d="M175.2,445.7c0-0.2,0-0.4,0-0.6c0-0.4,0-1,0-1.7c0-1.5,0-3.5-0.1-6.1c-0.1-5.2-0.6-12.3-1.4-20.2
		s-2-14.9-3.1-20c-0.3-1.3-0.5-2.4-0.7-3.4s-0.4-1.9-0.6-2.6s-0.3-1.2-0.4-1.6c-0.1-0.2-0.1-0.4-0.1-0.6c0.1,0.2,0.2,0.4,0.2,0.5
		l0.5,1.6c0.2,0.7,0.4,1.6,0.7,2.6s0.5,2.1,0.8,3.4c1.4,6.6,2.5,13.3,3.2,20c0.9,7.9,1.3,15,1.3,20.2c0,2.6,0,4.7-0.1,6.1
		c0,0.7-0.1,1.2-0.1,1.7C175.3,445.3,175.3,445.5,175.2,445.7z"/>
	<path class="st2" d="M175.2,431.8c0-0.6,0-1.2,0-1.7c0.1-1.1,0.2-2.7,0.5-4.7c0.4-2.3,0.9-4.6,1.5-6.9c0.8-2.8,1.7-5.5,2.9-8.1
		c2-4.9,4.9-9.3,8.5-13.2c0.6-0.7,1.3-1.3,2-1.9c0.3-0.3,0.6-0.5,0.8-0.7l0.8-0.5c0.5-0.3,1-0.7,1.5-0.9c-1.7,1.3-3.3,2.8-4.8,4.3
		c-3.5,3.9-6.3,8.3-8.2,13.1c-1.1,2.6-2.1,5.3-2.9,8.1c-0.8,2.5-1.3,4.9-1.6,6.8s-0.6,3.6-0.7,4.7
		C175.4,430.7,175.3,431.3,175.2,431.8z"/>
</g>
<g id="freepik--credit-card--inject-249">
	<path class="st2" d="M370,352.5L215.2,188.8c-1.6-1.7-1.6-4.4,0.2-6.1l101.6-96c1.7-1.6,4.4-1.6,6.1,0.2c0,0,0,0,0,0l154.8,163.7
		c1.6,1.7,1.6,4.4-0.2,6.1l-101.6,96C374.4,354.3,371.7,354.3,370,352.5C370,352.5,370,352.5,370,352.5z"/>
	<g class="st3">
		<path d="M370,352.5L215.2,188.8c-1.6-1.7-1.6-4.4,0.2-6.1l101.6-96c1.7-1.6,4.4-1.6,6.1,0.2c0,0,0,0,0,0l154.8,163.7
			c1.6,1.7,1.6,4.4-0.2,6.1l-101.6,96C374.4,354.3,371.7,354.3,370,352.5C370,352.5,370,352.5,370,352.5z"/>
	</g>
	<path class="st2" d="M476.7,249.4L324.2,88.1c-2.2-2.4-6-2.5-8.4-0.3c0,0,0,0,0,0l-28.9,27.3c-0.6,0.5-0.8,1.3-0.7,2.1
		c2.9,16.1,14.4,30.6,28.2,40.1c16.6,11.6,36.3,17.6,55,25.4s37.5,17.9,48.7,34.7c10.6,15.9,13.1,35.6,18.5,54
		c1.5,5,3.3,9.9,5.5,14.6c0.6,1.2,2,1.7,3.2,1.2c0.2-0.1,0.4-0.2,0.6-0.4l30.6-28.9C478.9,255.6,479,251.8,476.7,249.4
		C476.7,249.4,476.7,249.4,476.7,249.4z"/>
	<path class="st4" d="M317.2,200.3l0.6-3.9l-4,0.4l-0.8-0.8l4.9-0.5l0.7-4.6l0.8,0.8l-0.6,3.7l3.7-0.4l0.8,0.8l-4.6,0.5l-0.8,4.9
		L317.2,200.3z"/>
	<path class="st4" d="M322.5,205.9l0.6-3.9l-4,0.4l-0.8-0.8l4.9-0.5l0.7-4.6l0.8,0.8l-0.6,3.7l3.7-0.4l0.8,0.8l-4.6,0.5l-0.8,4.9
		L322.5,205.9z"/>
	<path class="st4" d="M327.7,211.4l0.6-3.9l-4,0.4l-0.8-0.8l4.9-0.5l0.7-4.6l0.8,0.8l-0.6,3.7l3.7-0.4l0.8,0.8l-4.6,0.5l-0.8,4.9
		L327.7,211.4z"/>
	<path class="st4" d="M333,217l0.6-3.9l-4,0.4l-0.8-0.8l4.9-0.5l0.7-4.6l0.8,0.8l-0.6,3.7l3.7-0.4l0.8,0.8l-4.6,0.5l-0.7,4.9
		L333,217z"/>
	<path class="st4" d="M351.3,236.3l0.6-3.9l-4,0.4l-0.8-0.8l4.9-0.5l0.7-4.6l0.8,0.8l-0.6,3.7l3.7-0.4l0.8,0.8l-4.6,0.5l-0.8,4.9
		L351.3,236.3z"/>
	<path class="st4" d="M356.5,241.9l0.6-3.9l-4,0.4l-0.8-0.8l4.9-0.5l0.7-4.6l0.8,0.8l-0.6,3.7l3.7-0.4l0.8,0.8l-4.6,0.5l-0.8,4.9
		L356.5,241.9z"/>
	<path class="st4" d="M361.8,247.5l0.7-3.9l-4,0.4l-0.8-0.8l4.9-0.5l0.7-4.6l0.8,0.8l-0.6,3.7l3.7-0.4l0.8,0.8l-4.6,0.5l-0.7,4.9
		L361.8,247.5z"/>
	<path class="st4" d="M367.1,253.1l0.6-3.9l-4,0.4l-0.8-0.8l4.9-0.5l0.7-4.6l0.8,0.8l-0.6,3.7l3.7-0.4l0.8,0.8l-4.6,0.5l-0.7,4.9
		L367.1,253.1z"/>
	<path class="st4" d="M390.8,263.5l-7.3,6.9l-0.7-0.8l6.7-6.3l-1.6-1.7l0.7-0.6L390.8,263.5z"/>
	<path class="st4" d="M391.8,275c-1.2,1.2-3,1.2-4.7-0.6c-0.9-0.9-1.5-2.2-1.5-3.5l0.9-0.2c0,1.2,0.5,2.3,1.3,3.1
		c1.1,1.2,2.4,1.4,3.3,0.5s0.9-2-0.4-3.4l-0.5-0.5l0.5-0.5l4.5-0.4l-3.5-3.7l0.7-0.6l4.5,4.7l-0.5,0.5l-4.6,0.4
		C393.1,272.4,393,273.9,391.8,275z"/>
	<path class="st4" d="M398.5,282.5l-1.4-1.5l-1.9,1.8l-0.7-0.8l1.9-1.8l-3.9-4.1l0.5-0.5l8.5-0.7l0.8,0.8l-8.3,0.7l3,3.2l1.7-1.6
		l0.7,0.7l-1.7,1.6l1.4,1.5L398.5,282.5z"/>
	<path class="st4" d="M402.6,289.3l-0.7,0.6l-4.9-5.1l0.5-0.5l5.9,0.2c1.6,0.1,2.2-0.3,2.7-0.7c0.9-0.8,0.8-1.9-0.3-3
		c-0.7-0.8-1.7-1.2-2.7-1.2v-1c1.3,0,2.6,0.6,3.5,1.6c1.4,1.5,1.5,3.1,0.3,4.3c-0.7,0.7-1.5,1-3.4,1l-4.8-0.2L402.6,289.3z"/>
	<path class="st4" d="M349.8,288c2.2-2.1,4.6-2.1,6.2-0.4s1.5,4.1-0.8,6.2s-4.6,2.1-6.2,0.4S347.6,290.1,349.8,288z M353.8,292.3
		c1.5-1.4,1.7-2.6,0.9-3.4s-1.9-0.7-3.4,0.7s-1.7,2.6-0.9,3.4S352.3,293.7,353.8,292.3L353.8,292.3z"/>
	<path class="st4" d="M360,301.3c-1.4,1.3-3.3,1-4.6-0.4c-1.8-1.9-1.7-4.1,0.5-6.2c2.3-2.2,5-2,6.9,0c0.6,0.6,1.1,1.4,1.3,2.3
		l-1.7,0.5c-0.1-0.6-0.4-1.1-0.9-1.6c-0.9-1-2.4-1.2-3.5-0.3c-0.1,0.1-0.2,0.2-0.3,0.3c0.8,0.1,1.6,0.5,2.2,1.1
		C361.1,298.1,361.2,300,360,301.3C360,301.3,360,301.3,360,301.3z M358.5,299.9c0.6-0.5,0.6-1.4,0.1-2c0,0-0.1-0.1-0.1-0.1
		c-0.5-0.6-1.4-0.8-2-0.3c0,0-0.1,0-0.1,0.1c-0.6,0.6-0.6,1.5,0,2c0,0,0.1,0.1,0.1,0.1c0.5,0.6,1.3,0.8,2,0.3
		C358.4,299.9,358.5,299.9,358.5,299.9L358.5,299.9z"/>
	<path class="st4" d="M369,298.8l1.3,1.3l-12.1,5.4l-1.3-1.3L369,298.8z"/>
	<path class="st4" d="M368.1,311.6l-1.3,1.2l-4.8-5.1l1-1l4.9,0.3c0.7,0.1,1.4,0,1.9-0.5c0.5-0.5,0.5-1.2-0.2-1.9
		c-0.5-0.6-1.2-0.9-2-0.8l-0.3-1.8c1.4-0.2,2.8,0.4,3.8,1.5c1.4,1.5,1.6,3.2,0.4,4.4c-0.6,0.6-1.4,1-3.2,0.9l-2.9-0.2L368.1,311.6z"
		/>
	<path class="st4" d="M374.6,318.1l-1-1.1l-1.4,1.3l-1.4-1.5l1.4-1.3l-3.4-3.6l1-1l7.3-0.9l1.5,1.6l-6.8,0.9l1.7,1.8l1.3-1.2
		l1.4,1.5l-1.3,1.2l1,1.1L374.6,318.1z"/>
	<path class="st2" d="M406.2,234.9c3.8-5.8,2.3-13.6-2.8-18.3c-1.6-1.5-3.3-2.6-5.3-3.5c-4.9-2-11.3-0.6-13.9,4.1
		c-2.1,3.8-1.3,8.5,0.2,12.5c1.5,4.3,4,8.6,8.2,10.2s8.9,0.1,11.9-3C405.2,236.3,405.7,235.6,406.2,234.9z"/>
	<g>
		<path class="st4" d="M284,167.8c0.2-0.1,0.5-0.2,0.7-0.3c0.3-0.1,0.6-0.2,0.8-0.2c0.3-0.1,0.6-0.1,0.9-0.2c0.3,0,0.5-0.1,0.8-0.1
			c0.2,0,0.4,0,0.6,0c-0.1-0.2-0.2-0.4-0.3-0.6c0-0.2-0.1-0.5,0-0.7c0-0.2,0.1-0.5,0.2-0.7s0.3-0.4,0.4-0.6c0.3-0.3,0.6-0.5,1-0.6
			c0.4-0.1,0.7-0.1,1.1-0.1c0.4,0,0.7,0.1,1.1,0.3c0.3,0.2,0.7,0.4,0.9,0.7c0.2,0.2,0.4,0.5,0.5,0.8c0.1,0.3,0.3,0.6,0.4,1l-1.5,0.3
			c0-0.1-0.1-0.2-0.1-0.3c-0.1-0.1-0.1-0.2-0.2-0.3c-0.1-0.1-0.1-0.1-0.2-0.2c-0.1-0.1-0.1-0.1-0.2-0.2c-0.1-0.1-0.2-0.2-0.3-0.3
			s-0.3-0.2-0.4-0.2c-0.2,0-0.3-0.1-0.5-0.1s-0.3,0.1-0.4,0.2c-0.1,0.1-0.1,0.2-0.1,0.3c0,0.1,0,0.2,0,0.3c0,0.1,0.1,0.2,0.2,0.3
			c0.1,0.1,0.1,0.2,0.2,0.2c0.1,0.1,0.2,0.2,0.4,0.4c0.2,0.1,0.3,0.2,0.5,0.3c0.2,0.1,0.3,0.2,0.5,0.3s0.4,0.2,0.5,0.3l-0.6,1.5
			c-0.5-0.2-1-0.4-1.5-0.5c-0.5-0.1-1-0.2-1.4-0.2c-0.4,0-0.9,0-1.3,0.1c-0.4,0.1-0.7,0.1-1,0.2c-0.3,0.1-0.6,0.2-0.8,0.3
			c-0.2,0.1-0.4,0.2-0.5,0.2l-0.8-1.5C283.6,167.9,283.8,167.9,284,167.8z"/>
		<path class="st4" d="M298.6,172.2c-0.1,0.2-0.3,0.3-0.4,0.5c-0.3,0.2-0.5,0.5-0.9,0.6c-0.3,0.2-0.7,0.3-1,0.3s-0.7,0-1-0.1
			c-0.3-0.1-0.7-0.3-0.9-0.6c-0.1-0.1-0.1-0.1-0.2-0.2c-0.1-0.1-0.1-0.1-0.2-0.2c-0.2,0.3-0.5,0.6-0.8,0.9c-0.3,0.3-0.6,0.6-0.9,0.9
			c-0.3,0.3-0.6,0.6-0.9,0.9c-0.3,0.3-0.6,0.5-0.8,0.8l-1.2-1.2c0.5-0.4,0.9-0.9,1.4-1.3c0.5-0.5,0.9-0.9,1.3-1.4
			c0.4-0.5,0.8-0.9,1.1-1.3c0.3-0.4,0.6-0.9,0.8-1.3c0.1-0.2,0.1-0.3,0.2-0.4c0-0.1,0.1-0.2,0.1-0.3c0-0.1,0.1-0.2,0.1-0.3
			c0-0.1,0.1-0.2,0.1-0.3l1.7,0.4c0,0.1-0.1,0.3-0.1,0.4c0,0.1-0.1,0.2-0.1,0.3c0,0.1-0.1,0.2-0.1,0.4c-0.1,0.1-0.1,0.3-0.2,0.4
			c-0.1,0.2-0.1,0.3-0.2,0.5c0,0.1-0.1,0.3-0.1,0.4c0,0.1,0,0.3,0.1,0.4s0.1,0.2,0.2,0.3c0.1,0.1,0.3,0.2,0.4,0.2
			c0.1,0,0.3,0,0.4-0.1s0.2-0.1,0.4-0.2c0.1-0.1,0.2-0.2,0.3-0.3c0.1-0.1,0.2-0.2,0.3-0.3c0.1-0.1,0.2-0.2,0.3-0.4l1.4,1
			C298.9,171.9,298.7,172.1,298.6,172.2z"/>
		<path class="st4" d="M296,179.3c0.4-0.4,0.7-0.7,1.1-1.1c0.3-0.4,0.7-0.7,1-1.1c0.3-0.4,0.6-0.7,0.9-1.1c0.3-0.4,0.5-0.7,0.7-1.1
			s0.4-0.7,0.5-1.1l1.6,0.4c-0.1,0.4-0.2,0.7-0.3,1s-0.3,0.6-0.5,1c-0.2,0.3-0.4,0.6-0.6,0.9c-0.2,0.3-0.5,0.6-0.7,0.9
			c-0.2,0.2-0.4,0.5-0.6,0.7c-0.2,0.3-0.5,0.5-0.7,0.8c-0.3,0.3-0.5,0.5-0.8,0.8c-0.3,0.3-0.5,0.5-0.7,0.7l-0.5,0.5l-1.2-1.2
			C295.3,180,295.7,179.6,296,179.3z"/>
		<path class="st4" d="M304.4,183.1c-0.3,0.3-0.5,0.6-0.8,0.9c-0.3,0.3-0.5,0.7-0.7,1c-0.2,0.3-0.4,0.6-0.5,1
			c-0.1,0.3-0.2,0.6-0.3,0.8l-1.7-0.2c0-0.2,0.1-0.5,0.1-0.7c0.1-0.2,0.2-0.5,0.3-0.7c0.1-0.2,0.3-0.5,0.4-0.7
			c0.2-0.2,0.3-0.5,0.5-0.7c0.2-0.2,0.3-0.4,0.5-0.6c0.2-0.2,0.3-0.4,0.5-0.5c-0.1-0.1-0.2-0.2-0.3-0.3c-0.1-0.1-0.2-0.2-0.3-0.3
			c-0.2-0.2-0.4-0.5-0.6-0.7c-0.1-0.3-0.2-0.5-0.3-0.8c0-0.3,0-0.6,0.1-0.8c0.1-0.3,0.3-0.6,0.6-0.9c0.2-0.2,0.3-0.3,0.5-0.4
			c0.2-0.1,0.4-0.2,0.6-0.3c0.2-0.1,0.4-0.1,0.7-0.2c0.2,0,0.4,0,0.7,0c0.2,0,0.4,0.1,0.6,0.2s0.4,0.2,0.5,0.4
			c0.1,0.1,0.2,0.2,0.3,0.4c0.1,0.2,0.1,0.3,0.2,0.5c0,0.2,0,0.4,0,0.7c0,0.3-0.1,0.6-0.2,0.9c-0.1,0.2-0.2,0.4-0.3,0.6
			c-0.1,0.2-0.3,0.4-0.4,0.6c-0.1,0.2-0.3,0.4-0.4,0.6S304.5,182.9,304.4,183.1z M303.4,180.6c0,0,0.1,0.1,0.1,0.1
			c0.1,0.1,0.1,0.1,0.2,0.2c0.1,0.1,0.1,0.1,0.2,0.2c0.1,0,0.1,0.1,0.1,0.1c0.1-0.1,0.2-0.2,0.2-0.4c0.1-0.1,0.1-0.3,0.2-0.5
			c0-0.2,0.1-0.3,0.1-0.5c0-0.2,0-0.3-0.1-0.4c-0.1-0.1-0.1-0.1-0.3-0.1c-0.1,0-0.2,0-0.4,0c-0.1,0-0.3,0.1-0.4,0.1
			c-0.1,0.1-0.2,0.1-0.3,0.2c-0.1,0.1-0.1,0.1-0.1,0.2c0,0.1,0,0.2,0.1,0.3c0,0.1,0.1,0.2,0.2,0.3
			C303.3,180.4,303.4,180.5,303.4,180.6z"/>
	</g>
	<g>
		<path class="st4" d="M263.7,195.7c0.3-0.2,0.5-0.4,0.8-0.5c0.3-0.1,0.6-0.2,0.9-0.3s0.6-0.1,1-0.1c0.3,0,0.7,0,1,0.1
			c0.3,0.1,0.6,0.2,0.9,0.4c0.3,0.2,0.5,0.4,0.8,0.6c0.2,0.2,0.3,0.4,0.4,0.7c0.1,0.2,0.2,0.5,0.3,0.8l-1.6,0.6
			c-0.1-0.2-0.1-0.4-0.2-0.5c-0.1-0.1-0.2-0.3-0.3-0.4c-0.2-0.2-0.4-0.3-0.6-0.4c-0.2-0.1-0.5-0.2-0.8-0.2c-0.3,0-0.5,0-0.8,0
			c-0.3,0-0.5,0.1-0.7,0.3c-0.1,0.1-0.1,0.1-0.1,0.2s0,0.2,0.1,0.3c0,0.1,0.1,0.2,0.2,0.4c0.1,0.1,0.1,0.3,0.2,0.4
			c0.1,0.3,0.3,0.5,0.4,0.8c0.1,0.2,0.2,0.5,0.2,0.7c0,0.2,0,0.5,0,0.7c-0.1,0.2-0.2,0.5-0.5,0.7c-0.3,0.3-0.6,0.5-0.9,0.5
			c-0.3,0.1-0.7,0.1-1,0.1c-0.3,0-0.7-0.1-1-0.3c-0.3-0.1-0.7-0.3-1-0.5c-0.3-0.2-0.6-0.4-0.9-0.7c-0.3-0.3-0.6-0.5-0.8-0.8
			c-0.4-0.5-0.8-1-1-1.5s-0.4-1-0.4-1.5c0-0.5,0.1-1,0.3-1.5c0.2-0.5,0.5-0.9,1-1.3c0.1-0.1,0.1-0.1,0.2-0.2
			c0.1-0.1,0.2-0.1,0.2-0.2c0.3-0.3,0.6-0.5,1-0.7c0.3-0.2,0.6-0.3,0.9-0.5c0.3-0.1,0.5-0.2,0.7-0.3s0.3-0.1,0.3-0.1l0.5,1.5
			c-0.3,0.1-0.5,0.2-0.8,0.3c-0.2,0.1-0.5,0.2-0.7,0.3s-0.5,0.3-0.7,0.4s-0.4,0.3-0.6,0.5c-0.3,0.3-0.5,0.5-0.6,0.8
			c-0.1,0.3-0.1,0.6,0,0.9c0.1,0.3,0.2,0.6,0.4,0.9c0.2,0.3,0.4,0.6,0.6,0.8c0.3,0.4,0.6,0.7,1,0.9c0.3,0.3,0.6,0.5,0.9,0.6
			c0.3,0.2,0.6,0.3,0.8,0.3c0.2,0,0.4,0,0.5,0c-0.1-0.2-0.2-0.4-0.4-0.7c-0.1-0.2-0.3-0.5-0.4-0.7c-0.1-0.2-0.2-0.5-0.3-0.7
			c-0.1-0.3-0.1-0.5-0.1-0.7c0-0.2,0.1-0.5,0.2-0.7C263.2,196.1,263.4,195.9,263.7,195.7z"/>
		<path class="st4" d="M264.6,202.5c0.4,0.3,0.9,0.6,1.3,0.8s0.8,0.4,1.2,0.5c0.4,0.1,0.7,0.2,1,0.2c0.3,0,0.6,0,0.8-0.1
			c-0.1-0.1-0.2-0.2-0.3-0.4c-0.1-0.1-0.2-0.3-0.3-0.3c-0.2-0.3-0.4-0.6-0.5-0.9c-0.1-0.3-0.2-0.6-0.2-0.9c0-0.3,0.1-0.6,0.2-0.9
			s0.3-0.5,0.6-0.8c0.2-0.2,0.4-0.3,0.6-0.4c0.2-0.1,0.4-0.2,0.7-0.3c0.2-0.1,0.5-0.1,0.7-0.2c0.2,0,0.5,0,0.7,0
			c0.2,0,0.4,0.1,0.7,0.2c0.2,0.1,0.4,0.2,0.6,0.4c0.2,0.2,0.3,0.4,0.4,0.7c0.1,0.2,0.1,0.5,0.1,0.8c0,0.3,0,0.5-0.1,0.8
			c-0.1,0.3-0.2,0.5-0.3,0.8c-0.1,0.3-0.3,0.5-0.4,0.8c-0.2,0.3-0.3,0.5-0.5,0.7l0.2,0.2l-1.3,1.2l-0.2-0.3c-0.5,0.3-1,0.4-1.6,0.5
			c-0.6,0.1-1.1,0-1.6-0.1c-0.5-0.1-1.1-0.3-1.6-0.6c-0.5-0.3-1-0.6-1.5-1L264.6,202.5z M270.8,200.5c0-0.1-0.1-0.1-0.2-0.1
			c-0.1,0-0.3,0-0.4,0c-0.1,0-0.3,0-0.4,0.1s-0.3,0.1-0.4,0.2c-0.1,0.1-0.1,0.2-0.2,0.3c0,0.1,0,0.2,0.1,0.4c0,0.1,0.1,0.3,0.2,0.4
			c0.1,0.1,0.2,0.3,0.3,0.4c0.1,0.1,0.2,0.2,0.3,0.3l0.2,0.3c0.1-0.2,0.3-0.4,0.4-0.6c0.1-0.2,0.2-0.4,0.2-0.6
			c0.1-0.2,0.1-0.4,0.1-0.5C271,200.8,270.9,200.7,270.8,200.5z"/>
		<path class="st4" d="M271.3,203.9l0.3,0.3c0.1,0.1,0.2,0.2,0.4,0.3s0.2,0.1,0.3,0.1c0.1,0,0.2,0,0.3-0.1c0.1-0.1,0.3-0.2,0.4-0.3
			c0,0,0.1-0.1,0.2-0.2c0.1-0.1,0.3-0.3,0.5-0.5c0.2-0.2,0.4-0.4,0.7-0.7c0.2-0.3,0.5-0.5,0.8-0.8c0.3-0.3,0.5-0.5,0.7-0.8
			s0.5-0.5,0.6-0.7s0.3-0.3,0.4-0.5c0.1-0.1,0.1-0.2,0.1-0.2l1.5,1c0,0-0.1,0.2-0.3,0.3c-0.2,0.2-0.4,0.5-0.8,0.8
			c-0.4,0.4-0.8,0.8-1.4,1.4s-1.2,1.2-2,2c-0.3,0.3-0.6,0.5-1,0.7c-0.3,0.2-0.7,0.2-1,0.3c-0.3,0-0.7-0.1-1-0.2
			c-0.3-0.2-0.7-0.4-1-0.7l-0.3-0.3L271.3,203.9z"/>
		<path class="st4" d="M270.7,209.2c0.4,0.3,0.9,0.6,1.3,0.8c0.4,0.2,0.8,0.4,1.2,0.5c0.4,0.1,0.7,0.2,1,0.2c0.3,0,0.6,0,0.8-0.1
			c-0.1-0.1-0.2-0.3-0.3-0.4c-0.1-0.1-0.2-0.3-0.3-0.3c-0.2-0.3-0.4-0.6-0.5-0.9c-0.1-0.3-0.2-0.6-0.2-0.9c0-0.3,0.1-0.6,0.2-0.9
			c0.1-0.3,0.3-0.5,0.6-0.8c0.2-0.2,0.4-0.3,0.6-0.4c0.2-0.1,0.4-0.2,0.7-0.3c0.2-0.1,0.5-0.1,0.7-0.2s0.5,0,0.7,0
			c0.2,0,0.4,0.1,0.7,0.2c0.2,0.1,0.4,0.2,0.6,0.4c0.2,0.2,0.3,0.4,0.4,0.7c0.1,0.2,0.1,0.5,0.1,0.8c0,0.3,0,0.5-0.1,0.8
			c-0.1,0.3-0.2,0.5-0.3,0.8s-0.3,0.5-0.4,0.8c-0.2,0.3-0.3,0.5-0.5,0.7l0.2,0.2l-1.3,1.2l-0.2-0.3c-0.5,0.3-1,0.4-1.6,0.5
			c-0.6,0.1-1.1,0-1.6-0.1c-0.5-0.1-1.1-0.3-1.6-0.6s-1-0.6-1.5-1L270.7,209.2z M276.9,207.3c0-0.1-0.1-0.1-0.2-0.1
			c-0.1,0-0.3,0-0.4,0c-0.1,0-0.3,0-0.4,0.1c-0.1,0.1-0.3,0.1-0.4,0.2c-0.1,0.1-0.1,0.2-0.2,0.3c0,0.1,0,0.2,0.1,0.4
			c0,0.1,0.1,0.3,0.2,0.4c0.1,0.1,0.2,0.3,0.3,0.4c0.1,0.1,0.2,0.2,0.3,0.3l0.2,0.3c0.1-0.2,0.3-0.4,0.4-0.6
			c0.1-0.2,0.2-0.4,0.2-0.6c0.1-0.2,0.1-0.4,0.1-0.5C277.1,207.6,277,207.4,276.9,207.3z"/>
		<path class="st4" d="M279.4,215.5c-0.2-0.2-0.3-0.4-0.4-0.6c-0.1-0.2-0.2-0.4-0.3-0.7s-0.2-0.5-0.2-0.7c-0.1-0.2-0.1-0.4-0.1-0.6
			c-0.2,0-0.4,0-0.6,0c-0.2,0-0.3-0.1-0.5-0.2c-0.2-0.1-0.3-0.2-0.5-0.3c-0.1-0.1-0.3-0.3-0.4-0.4l-0.2-0.2l1.3-1.2l0.2,0.2
			c0.2,0.2,0.3,0.3,0.5,0.4s0.4,0.1,0.6,0.1s0.4-0.1,0.6-0.1c0.2-0.1,0.4-0.1,0.6-0.2c0.2-0.1,0.5-0.1,0.8-0.2
			c0.3,0,0.5-0.1,0.8-0.1c0.3,0,0.5,0.1,0.8,0.2c0.2,0.1,0.5,0.3,0.7,0.5c0.3,0.3,0.4,0.6,0.5,0.9c0.1,0.3,0,0.7-0.1,1
			c-0.1,0.3-0.3,0.7-0.5,1c-0.2,0.3-0.5,0.6-0.8,0.9c-0.2,0.2-0.5,0.4-0.8,0.5s-0.5,0.2-0.8,0.2c-0.2,0-0.5,0-0.7-0.1
			C279.7,215.8,279.6,215.6,279.4,215.5z M281.6,212.5c-0.1-0.1-0.2-0.1-0.3-0.1c-0.1,0-0.3,0-0.4,0c-0.1,0-0.3,0.1-0.5,0.1
			c-0.2,0-0.3,0.1-0.4,0.1c0,0.1,0.1,0.3,0.1,0.5c0.1,0.2,0.1,0.3,0.2,0.5c0.1,0.2,0.2,0.3,0.3,0.5c0.1,0.2,0.2,0.3,0.3,0.4
			c0.2-0.1,0.3-0.3,0.5-0.5c0.1-0.2,0.2-0.4,0.3-0.5c0.1-0.2,0.1-0.4,0.1-0.5S281.7,212.6,281.6,212.5z"/>
		<path class="st4" d="M297,226.5c0,0.1-0.1,0.3-0.2,0.4c-0.1,0.2-0.2,0.4-0.3,0.6c-0.1,0.2-0.2,0.4-0.3,0.6s-0.3,0.4-0.4,0.6
			c-0.1,0.2-0.3,0.4-0.5,0.5c-0.3,0.2-0.6,0.4-0.9,0.6c-0.3,0.1-0.6,0.2-0.9,0.2c-0.3,0-0.6-0.1-0.9-0.2c-0.3-0.1-0.6-0.3-0.9-0.6
			c-0.2-0.3-0.4-0.5-0.4-0.7c-0.1-0.2-0.1-0.5,0-0.7c-0.1,0-0.3,0-0.4,0c-0.1,0-0.2,0-0.4-0.1c-0.1-0.1-0.3-0.1-0.4-0.2
			c-0.1-0.1-0.3-0.2-0.4-0.4c-0.1-0.1-0.2-0.2-0.3-0.3c-0.1-0.1-0.1-0.2-0.2-0.3c-0.3,0.3-0.7,0.5-1,0.7c-0.4,0.1-0.7,0.2-1.1,0.3
			c-0.4,0-0.7,0-1.1-0.1c-0.4-0.1-0.7-0.2-1-0.4c-0.3-0.2-0.7-0.4-1-0.6s-0.6-0.5-0.8-0.8c-0.4-0.4-0.7-0.9-0.9-1.4
			c-0.2-0.5-0.3-1-0.3-1.5c0-0.5,0.1-1,0.4-1.5c0.2-0.5,0.6-0.9,1-1.3c0.3-0.2,0.5-0.4,0.9-0.6c0.3-0.2,0.6-0.3,1-0.5
			c0.3-0.1,0.7-0.2,1-0.3c0.3-0.1,0.6-0.2,0.9-0.2l0.1,1.6c-0.3,0-0.5,0.1-0.8,0.2c-0.3,0.1-0.5,0.2-0.8,0.3
			c-0.3,0.1-0.5,0.2-0.7,0.3c-0.2,0.1-0.4,0.3-0.6,0.4c-0.2,0.2-0.4,0.4-0.5,0.7c-0.1,0.3-0.1,0.5-0.1,0.8c0,0.3,0.1,0.6,0.2,0.9
			c0.1,0.3,0.3,0.6,0.5,0.8c0.3,0.3,0.5,0.5,0.8,0.7c0.3,0.2,0.5,0.3,0.8,0.5c0.3,0.1,0.5,0.2,0.8,0.2c0.2,0,0.5,0,0.7-0.1h0
			c0.3-0.1,0.6-0.3,0.8-0.5c0.2-0.2,0.4-0.4,0.5-0.6c0.1-0.2,0.3-0.5,0.4-0.7c0.1-0.3,0.2-0.5,0.3-0.8c0.1-0.3,0.2-0.6,0.3-0.8
			l1.7,0.6c-0.1,0.2-0.2,0.4-0.3,0.7c-0.1,0.2-0.2,0.4-0.3,0.7c-0.1,0.2-0.2,0.4-0.2,0.6c-0.1,0.2-0.1,0.4-0.1,0.5
			c0,0.2,0,0.3,0,0.5c0,0.1,0.1,0.2,0.2,0.3c0.1,0.1,0.3,0.2,0.4,0.2c0.1,0,0.3,0,0.4-0.1c0.1-0.1,0.3-0.1,0.4-0.2
			c0.1-0.1,0.3-0.2,0.4-0.3c0.1-0.1,0.2-0.2,0.3-0.4c0.1-0.1,0.2-0.2,0.3-0.3l1.2,1c-0.1,0.1-0.2,0.2-0.3,0.3
			c-0.1,0.1-0.2,0.3-0.3,0.4c-0.1,0.1-0.2,0.3-0.3,0.4c-0.1,0.2-0.2,0.3-0.3,0.5c-0.1,0.2-0.1,0.3-0.1,0.5c0,0.1,0,0.3,0.1,0.4
			c0.1,0.1,0.2,0.2,0.3,0.2c0.1,0,0.2,0.1,0.3,0.1c0.1,0,0.2,0,0.3-0.1c0.1,0,0.2-0.1,0.4-0.2c0.1-0.1,0.2-0.2,0.3-0.4
			c0.1-0.2,0.2-0.3,0.3-0.5c0.1-0.2,0.2-0.4,0.3-0.7c0.1-0.2,0.2-0.5,0.3-0.7l1.6,0.5C297.1,226.2,297.1,226.3,297,226.5z
			 M295.9,223.1l-1.5-0.1l0.1-1.5l1.5,0.1L295.9,223.1l1.5,0l-0.1,1.5l-1.5-0.1L295.9,223.1z M297.8,222.7l-1.4-0.1l0.1-1.4l1.4,0.1
			L297.8,222.7z"/>
		<path class="st4" d="M291.9,232.7c0.4,0.3,0.9,0.6,1.3,0.8s0.8,0.4,1.2,0.5c0.4,0.1,0.7,0.2,1,0.2c0.3,0,0.6,0,0.8-0.1
			c-0.1-0.1-0.2-0.2-0.3-0.4c-0.1-0.1-0.2-0.3-0.3-0.3c-0.2-0.3-0.4-0.6-0.5-0.9c-0.1-0.3-0.2-0.6-0.2-0.9c0-0.3,0.1-0.6,0.2-0.9
			c0.1-0.3,0.3-0.5,0.6-0.8c0.2-0.2,0.4-0.3,0.6-0.4c0.2-0.1,0.4-0.2,0.7-0.3c0.2-0.1,0.5-0.1,0.7-0.2c0.2,0,0.5,0,0.7,0
			c0.2,0,0.4,0.1,0.7,0.2c0.2,0.1,0.4,0.2,0.6,0.4c0.2,0.2,0.3,0.4,0.4,0.7c0.1,0.2,0.1,0.5,0.1,0.8c0,0.3,0,0.5-0.1,0.8
			s-0.2,0.5-0.3,0.8c-0.1,0.3-0.3,0.5-0.4,0.8c-0.2,0.3-0.3,0.5-0.5,0.7l0.2,0.2l-1.3,1.2l-0.2-0.3c-0.5,0.3-1,0.4-1.6,0.5
			c-0.6,0.1-1.1,0-1.6-0.1c-0.5-0.1-1.1-0.3-1.6-0.6c-0.5-0.3-1-0.6-1.5-1L291.9,232.7z M298.2,230.8c0-0.1-0.1-0.1-0.2-0.1
			c-0.1,0-0.3,0-0.4,0c-0.1,0-0.3,0-0.4,0.1c-0.1,0.1-0.3,0.1-0.4,0.2c-0.1,0.1-0.1,0.2-0.2,0.3c0,0.1,0,0.2,0.1,0.4
			c0,0.1,0.1,0.3,0.2,0.4s0.2,0.3,0.3,0.4s0.2,0.2,0.3,0.3l0.2,0.3c0.1-0.2,0.3-0.4,0.4-0.6c0.1-0.2,0.2-0.4,0.2-0.6
			c0.1-0.2,0.1-0.4,0.1-0.5S298.2,230.9,298.2,230.8z"/>
		<path class="st4" d="M298.7,234.1l0.5,0.6c0.1,0.1,0.2,0.2,0.4,0.4c0.1,0.1,0.3,0.2,0.5,0.3c0.2,0.1,0.3,0.1,0.5,0.1
			c0.1,0,0.3,0,0.4-0.1c0.1-0.1,0.1-0.2,0.2-0.3c0.1-0.2,0.2-0.3,0.3-0.6c0.1-0.2,0.2-0.4,0.3-0.7c0.1-0.2,0.2-0.5,0.3-0.7l1.7,0.7
			c-0.1,0.2-0.2,0.5-0.4,0.7s-0.3,0.5-0.4,0.8c-0.1,0.2-0.3,0.5-0.5,0.7c-0.2,0.2-0.3,0.4-0.5,0.6c-0.3,0.3-0.7,0.5-1,0.6
			c-0.3,0.1-0.7,0.1-1,0.1c-0.3-0.1-0.7-0.2-1-0.4c-0.3-0.2-0.6-0.5-0.9-0.8l-0.6-0.7L298.7,234.1z M303.3,232.4l0.1-1.8l1.8,0.1
			l-0.1,1.8L303.3,232.4z"/>
		<path class="st4" d="M303.3,241.9c-0.1-0.1-0.1-0.1-0.2-0.3c-0.1-0.1-0.2-0.3-0.2-0.4c-0.4,0.3-0.8,0.4-1.3,0.5
			c-0.5,0.1-0.9,0.2-1.4,0.2c-0.5,0-1-0.1-1.5-0.2c-0.5-0.1-1-0.3-1.5-0.5l0.4-1.7c0.3,0.1,0.6,0.2,0.9,0.3c0.3,0.1,0.6,0.2,0.9,0.2
			c0.3,0.1,0.6,0.1,0.9,0.1c0.3,0,0.6,0,0.8,0s0.5-0.1,0.7-0.1c0.2-0.1,0.4-0.2,0.6-0.3c0.1-0.1,0.2-0.2,0.4-0.4
			c0.1-0.2,0.3-0.4,0.4-0.6c0.1-0.2,0.3-0.5,0.4-0.7c0.1-0.3,0.2-0.5,0.3-0.7l1.6,0.7c-0.2,0.4-0.4,0.8-0.5,1.1
			c-0.1,0.3-0.2,0.6-0.3,0.8c0,0.2-0.1,0.4,0,0.5c0,0.1,0.1,0.2,0.2,0.3l0.1,0.1L303.3,241.9L303.3,241.9z"/>
		<path class="st4" d="M304.5,240.6l0.3,0.3c0.2-0.2,0.4-0.3,0.7-0.5c0.3-0.1,0.5-0.3,0.8-0.4c0.3-0.1,0.6-0.2,0.9-0.3
			c0.3-0.1,0.6-0.1,0.9-0.1c0.3,0,0.6,0,0.8,0.1c0.2,0.1,0.5,0.2,0.6,0.4c0.2,0.2,0.3,0.4,0.3,0.7c0,0.3,0,0.5,0,0.8
			c-0.1,0.3-0.2,0.5-0.3,0.8c-0.2,0.3-0.3,0.5-0.6,0.7c-0.3,0.2-0.6,0.4-0.9,0.5c-0.3,0.1-0.7,0.2-1.1,0.2c-0.4,0-0.7,0-1.1-0.1
			c-0.4-0.1-0.7-0.2-1-0.3c0,0.1-0.1,0.2-0.1,0.3c0,0.1-0.1,0.3-0.1,0.5c0,0.2,0,0.3-0.1,0.5c0,0.2,0,0.3,0,0.4
			c0.2-0.1,0.3-0.3,0.6-0.4s0.4-0.2,0.7-0.2s0.5-0.1,0.7-0.1c0.3,0,0.5,0,0.7,0.1c0.2,0,0.4,0.1,0.6,0.2c0.2,0.1,0.4,0.2,0.5,0.4
			l0.2,0.2l-1.3,1.2l-0.2-0.2c-0.1-0.1-0.3-0.2-0.4-0.3c-0.2-0.1-0.3-0.1-0.5-0.1c-0.2,0-0.4,0-0.5,0.1c-0.2,0.1-0.3,0.2-0.5,0.3
			c-0.1,0.1-0.1,0.1-0.1,0.2c0,0.1-0.1,0.1-0.1,0.2s-0.1,0.1-0.1,0.2c0,0.1,0,0.2,0,0.3l-1.6,0.1c-0.1-0.5-0.2-1-0.2-1.4
			c0-0.4,0-0.9,0.1-1.3s0.1-0.7,0.3-1.1c0.1-0.3,0.3-0.6,0.4-0.9l-0.5-0.5L304.5,240.6z M307.8,242.1c0.1-0.1,0.2-0.1,0.2-0.2
			c0.1-0.1,0.2-0.2,0.2-0.3c0.1-0.1,0.1-0.2,0.1-0.3c0-0.1,0-0.2,0-0.3c-0.1,0-0.2,0-0.3,0s-0.3,0-0.5,0.1c-0.2,0-0.3,0.1-0.5,0.1
			c-0.2,0.1-0.4,0.1-0.6,0.2c-0.2,0.1-0.3,0.2-0.5,0.2c-0.2,0.1-0.3,0.2-0.4,0.3c0.1,0.1,0.3,0.2,0.5,0.3c0.2,0.1,0.4,0.1,0.6,0.1
			c0.2,0,0.4,0,0.6,0S307.7,242.2,307.8,242.1z"/>
		<path class="st4" d="M310.4,249.8c-0.2-0.2-0.3-0.4-0.4-0.6s-0.2-0.4-0.3-0.7c-0.1-0.2-0.2-0.5-0.2-0.7c-0.1-0.2-0.1-0.4-0.1-0.6
			c-0.2,0-0.4,0-0.6,0s-0.3-0.1-0.5-0.2c-0.2-0.1-0.3-0.2-0.5-0.3c-0.1-0.1-0.3-0.3-0.4-0.4l-0.2-0.2l1.3-1.2l0.2,0.2
			c0.2,0.2,0.3,0.3,0.5,0.4c0.2,0.1,0.4,0.1,0.6,0.1c0.2,0,0.4-0.1,0.6-0.1c0.2-0.1,0.4-0.1,0.6-0.2c0.2-0.1,0.5-0.1,0.8-0.2
			c0.3,0,0.5-0.1,0.8-0.1c0.3,0,0.5,0.1,0.8,0.2c0.2,0.1,0.5,0.3,0.7,0.5c0.3,0.3,0.4,0.6,0.5,0.9c0.1,0.3,0,0.7-0.1,1
			c-0.1,0.3-0.3,0.7-0.5,1c-0.2,0.3-0.5,0.6-0.8,0.9c-0.2,0.2-0.5,0.4-0.8,0.5c-0.3,0.1-0.5,0.2-0.8,0.2s-0.5,0-0.7-0.1
			C310.7,250,310.5,249.9,310.4,249.8z M312.6,246.8c-0.1-0.1-0.2-0.1-0.3-0.1c-0.1,0-0.3,0-0.4,0c-0.1,0-0.3,0.1-0.5,0.1
			c-0.2,0-0.3,0.1-0.4,0.1c0,0.1,0.1,0.3,0.1,0.5c0.1,0.2,0.1,0.3,0.2,0.5c0.1,0.2,0.2,0.3,0.3,0.5c0.1,0.2,0.2,0.3,0.3,0.4
			c0.2-0.1,0.3-0.3,0.5-0.5s0.2-0.4,0.3-0.5c0.1-0.2,0.1-0.4,0.1-0.5C312.7,247,312.7,246.9,312.6,246.8z"/>
	</g>
	<g>
		<path class="st4" d="M308.6,113c-0.2-0.2-0.5-0.5-0.7-0.8c-0.3-0.3-0.5-0.6-0.7-0.9c-0.2-0.3-0.4-0.7-0.6-1
			c-0.2-0.4-0.3-0.7-0.3-1.1c0-0.4,0-0.7,0.1-1.1c0.1-0.4,0.3-0.7,0.6-1c0.2-0.2,0.3-0.3,0.5-0.4c0.2-0.1,0.4-0.2,0.6-0.3
			c0.2-0.1,0.4-0.2,0.6-0.2c0.2-0.1,0.4-0.1,0.6-0.2l0.1,1.7c-0.1,0-0.2,0-0.4,0.1c-0.1,0-0.3,0.1-0.4,0.1c-0.1,0-0.3,0.1-0.4,0.2
			c-0.1,0.1-0.2,0.1-0.3,0.2c-0.1,0.1-0.2,0.2-0.2,0.4c0,0.2,0,0.3,0.1,0.5c0.1,0.2,0.2,0.4,0.3,0.6c0.1,0.2,0.3,0.4,0.5,0.7
			c0.2,0.2,0.4,0.5,0.6,0.7c0.2,0.2,0.4,0.5,0.6,0.7c0.2,0.2,0.4,0.4,0.7,0.6c0.3,0.2,0.5,0.4,0.8,0.7c0.3,0.2,0.6,0.4,0.9,0.6
			c0.3,0.2,0.6,0.3,0.9,0.5c0.1-0.2,0.2-0.3,0.2-0.5c0.1-0.2,0.1-0.3,0.2-0.5c0.1-0.2,0.1-0.4,0.2-0.6c0.1-0.2,0.1-0.5,0.2-0.8
			l1.6,0.4c0,0.1-0.1,0.3-0.1,0.5c0,0.2-0.1,0.4-0.2,0.6c-0.1,0.2-0.1,0.4-0.2,0.6s-0.2,0.4-0.3,0.6c-0.1,0.2-0.2,0.4-0.3,0.5
			c-0.1,0.2-0.2,0.3-0.4,0.4c-0.2,0.2-0.5,0.3-0.8,0.4c-0.3,0-0.6,0-1-0.1c-0.3-0.1-0.7-0.2-1.1-0.4c-0.4-0.2-0.7-0.4-1-0.6
			c-0.3-0.2-0.6-0.5-0.9-0.7C309,113.4,308.8,113.2,308.6,113z M306.3,115.1l0-1.8l1.8,0l0,1.8L306.3,115.1z"/>
		<path class="st4" d="M315.1,119.6c-0.3-0.3-0.6-0.7-0.7-1s-0.2-0.6-0.2-0.9c0-0.3,0.1-0.6,0.2-0.9c0.2-0.3,0.4-0.5,0.6-0.8
			c0.1-0.1,0.3-0.3,0.5-0.5c0.2-0.2,0.4-0.4,0.7-0.6c0.3-0.2,0.5-0.5,0.8-0.8c0.3-0.3,0.6-0.6,0.9-0.9c0.3-0.3,0.6-0.6,0.8-0.9
			c0.3-0.3,0.5-0.6,0.6-0.8l1.6,0.8c-0.1,0.2-0.3,0.4-0.5,0.7c-0.2,0.3-0.5,0.5-0.7,0.8c-0.3,0.3-0.5,0.5-0.8,0.8
			c-0.3,0.3-0.5,0.5-0.7,0.7c-0.2,0.2-0.4,0.4-0.6,0.6s-0.5,0.4-0.7,0.6s-0.4,0.4-0.5,0.5s-0.3,0.3-0.3,0.4c0,0.1-0.1,0.2-0.1,0.2
			c0,0.1,0,0.1,0.1,0.2s0.1,0.1,0.1,0.2c0.1,0.1,0.1,0.1,0.2,0.2l0.1,0.1l-1.3,1.3L315.1,119.6z"/>
		<path class="st4" d="M319.8,121.9l-1.3,1.3l-0.1-0.1c-0.1-0.1-0.2-0.3-0.3-0.4c-0.1-0.1-0.2-0.3-0.3-0.4c-0.1-0.1-0.1-0.3-0.2-0.4
			c0-0.1-0.1-0.3-0.1-0.4c-0.2,0-0.4-0.1-0.7-0.2c-0.2-0.1-0.4-0.2-0.6-0.4c-0.2-0.2-0.4-0.3-0.6-0.5c-0.2-0.2-0.4-0.4-0.6-0.6
			l-0.1-0.1l1.3-1.3l0.1,0.1c0.2,0.2,0.4,0.4,0.5,0.5c0.2,0.1,0.3,0.3,0.4,0.3c0.1,0.1,0.3,0.1,0.4,0.2s0.2,0,0.4,0
			c0.1,0,0.3-0.1,0.4-0.2c0.1-0.1,0.2-0.2,0.3-0.3c0.1-0.1,0.2-0.3,0.3-0.4c0.1-0.1,0.2-0.3,0.2-0.4l1.5,0.8
			c-0.1,0.2-0.2,0.3-0.2,0.4c-0.1,0.1-0.2,0.2-0.2,0.3c-0.1,0.1-0.2,0.2-0.2,0.3c-0.1,0.1-0.2,0.2-0.3,0.4c-0.1,0.1-0.1,0.2-0.2,0.3
			c-0.1,0.1-0.1,0.2-0.2,0.3s0,0.2,0,0.3C319.5,121.5,319.6,121.7,319.8,121.9L319.8,121.9z M321.7,116.7l-1.5,0l0-1.5l1.5,0
			L321.7,116.7l1.5,0l0,1.5l-1.5,0L321.7,116.7z"/>
		<path class="st4" d="M319.7,121.8c0.2,0.2,0.4,0.3,0.7,0.3c0.2,0,0.5,0,0.8-0.1c0.3-0.1,0.6-0.2,0.9-0.3c0.3-0.2,0.6-0.3,0.9-0.5
			l0.9,1.3c-0.1,0.1-0.3,0.2-0.4,0.2c-0.2,0.1-0.3,0.2-0.5,0.3c-0.2,0.1-0.3,0.2-0.5,0.3c-0.1,0.1-0.3,0.2-0.3,0.3
			c-0.1,0.1-0.1,0.2-0.2,0.3c0,0.1,0,0.2,0.1,0.2c0.1,0.1,0.2,0.2,0.4,0.2c0.2,0,0.3,0,0.5,0c0.2,0,0.4-0.1,0.5-0.2
			c0.2-0.1,0.4-0.2,0.5-0.3c0.2-0.1,0.3-0.2,0.5-0.3s0.3-0.2,0.4-0.3l0.8,1.2c-0.1,0.1-0.2,0.2-0.3,0.3c-0.1,0.1-0.3,0.2-0.4,0.3
			c-0.1,0.1-0.3,0.2-0.4,0.4c-0.1,0.1-0.2,0.3-0.3,0.4c-0.1,0.1-0.1,0.3-0.1,0.4c0,0.1,0.1,0.3,0.2,0.4c0.1,0.1,0.2,0.1,0.3,0.2
			c0.1,0.1,0.2,0.1,0.3,0.1c0.1,0,0.2,0,0.3,0c0.1,0,0.2-0.1,0.3-0.2c0.1-0.1,0.3-0.3,0.4-0.5s0.2-0.4,0.3-0.7s0.2-0.5,0.3-0.7
			c0.1-0.2,0.1-0.4,0.2-0.5l1.5,0.4l-0.1,0.3c0,0.1-0.1,0.3-0.2,0.4c-0.1,0.2-0.2,0.4-0.3,0.6s-0.2,0.4-0.3,0.6
			c-0.1,0.2-0.3,0.4-0.4,0.6c-0.1,0.2-0.3,0.4-0.5,0.5c-0.3,0.3-0.5,0.5-0.8,0.6c-0.3,0.1-0.6,0.2-0.9,0.2c-0.3,0-0.6-0.1-0.9-0.2
			c-0.3-0.1-0.6-0.4-0.9-0.7c-0.1-0.1-0.3-0.3-0.3-0.4c-0.1-0.1-0.2-0.3-0.2-0.4c0-0.1-0.1-0.3-0.1-0.4s0-0.3,0-0.4
			c-0.1,0-0.3,0-0.4,0c-0.1,0-0.3,0-0.4-0.1c-0.1,0-0.3-0.1-0.4-0.2c-0.1-0.1-0.3-0.2-0.4-0.4c-0.1-0.1-0.2-0.3-0.3-0.4
			s-0.1-0.3-0.2-0.4c0-0.1-0.1-0.3-0.1-0.4s0-0.3,0-0.4c-0.1,0-0.3,0-0.4,0c-0.1,0-0.3,0-0.4-0.1c-0.1-0.1-0.3-0.1-0.4-0.2
			c-0.2-0.1-0.3-0.2-0.5-0.4l-0.1-0.1L319.7,121.8L319.7,121.8z M327.2,121.7l-1.5,0l0-1.5l1.5,0L327.2,121.7l1.5,0l0,1.5l-1.5,0
			L327.2,121.7z M329.1,121.3l-1.4,0l0-1.4l1.4,0L329.1,121.3z"/>
		<path class="st4" d="M326.3,134.2c0.4,0.3,0.9,0.6,1.3,0.8c0.4,0.2,0.8,0.3,1.2,0.4c0.4,0.1,0.7,0.1,1,0.1c0.3,0,0.6-0.1,0.8-0.1
			c-0.1-0.1-0.2-0.2-0.4-0.4c-0.1-0.1-0.2-0.2-0.3-0.3c-0.2-0.3-0.4-0.6-0.6-0.9c-0.1-0.3-0.2-0.6-0.2-0.9c0-0.3,0-0.6,0.1-0.9
			c0.1-0.3,0.3-0.5,0.6-0.8c0.2-0.2,0.3-0.3,0.6-0.4c0.2-0.1,0.4-0.2,0.7-0.3c0.2-0.1,0.5-0.2,0.7-0.2s0.5-0.1,0.7,0
			c0.2,0,0.5,0.1,0.7,0.2c0.2,0.1,0.4,0.2,0.6,0.4c0.2,0.2,0.3,0.4,0.4,0.7c0.1,0.2,0.2,0.5,0.2,0.8c0,0.3,0,0.5-0.1,0.8
			c-0.1,0.3-0.1,0.6-0.3,0.8c-0.1,0.3-0.2,0.5-0.4,0.8c-0.2,0.3-0.3,0.5-0.5,0.7l0.2,0.2l-1.3,1.3l-0.3-0.3c-0.5,0.3-1,0.5-1.6,0.6
			c-0.5,0.1-1.1,0.1-1.7,0c-0.6-0.1-1.1-0.2-1.6-0.5s-1.1-0.5-1.5-0.9L326.3,134.2z M332.5,132c0-0.1-0.1-0.1-0.2-0.1
			c-0.1,0-0.3,0-0.4,0c-0.1,0-0.3,0.1-0.4,0.1c-0.1,0.1-0.3,0.1-0.4,0.2c-0.1,0.1-0.1,0.2-0.1,0.3c0,0.1,0,0.2,0.1,0.4
			c0,0.1,0.1,0.3,0.2,0.4c0.1,0.1,0.2,0.3,0.3,0.4c0.1,0.1,0.2,0.2,0.3,0.3l0.2,0.3c0.1-0.2,0.2-0.4,0.3-0.6
			c0.1-0.2,0.2-0.4,0.2-0.6c0-0.2,0.1-0.4,0.1-0.5C332.6,132.3,332.6,132.2,332.5,132z"/>
		<path class="st4" d="M333.2,135.5c0.1,0.1,0.2,0.2,0.4,0.3s0.2,0.1,0.3,0.2c0.1,0,0.2,0.1,0.2,0.1c0.1,0,0.1,0,0.2,0h0
			c0.1,0,0.2,0,0.3-0.1s0.3-0.1,0.4-0.2c0.2-0.1,0.4-0.2,0.6-0.3c0.2-0.1,0.5-0.3,0.9-0.5l0.7,1.4c-0.1,0.1-0.3,0.1-0.4,0.2
			c-0.1,0.1-0.2,0.1-0.3,0.2c-0.1,0.1-0.2,0.2-0.3,0.3s-0.2,0.2-0.2,0.3c0.3-0.1,0.6-0.1,0.9-0.2c0.3-0.1,0.6-0.1,0.9-0.1
			c0.3,0,0.6,0,0.9,0c0.3,0,0.6,0.1,0.9,0.2c0.3,0.1,0.6,0.2,0.9,0.4c0.3,0.2,0.6,0.4,0.9,0.7c0.3,0.3,0.6,0.7,0.7,1
			c0.1,0.4,0.2,0.7,0.2,1.1s-0.1,0.7-0.2,1c-0.1,0.3-0.3,0.6-0.6,0.8c-0.2,0.2-0.4,0.3-0.5,0.4c-0.2,0.1-0.4,0.2-0.6,0.2l0.6,0.6
			l-1.3,1.3l-1.2-1.3c-0.1-0.1-0.3-0.3-0.4-0.4c-0.1-0.1-0.2-0.2-0.3-0.3c-0.1-0.1-0.1-0.2-0.2-0.3c-0.1-0.1-0.1-0.2-0.1-0.2
			c-0.3-0.2-0.6-0.4-0.9-0.7s-0.6-0.5-0.8-0.7c-0.3-0.3-0.5-0.5-0.7-0.7c-0.2-0.2-0.4-0.5-0.5-0.7c-0.1-0.2-0.2-0.5-0.3-0.7
			c-0.1-0.2-0.1-0.5-0.1-0.8c-0.4,0-0.8-0.1-1.1-0.3c-0.3-0.2-0.7-0.4-1.1-0.8l-0.1-0.1L333.2,135.5L333.2,135.5z M340.2,139.6
			c-0.2-0.2-0.4-0.3-0.6-0.4c-0.2-0.1-0.4-0.2-0.7-0.3c-0.2-0.1-0.5-0.1-0.7-0.2c-0.2,0-0.5,0-0.7-0.1c-0.2,0-0.4,0-0.6,0
			s-0.4,0.1-0.5,0.1c0.1,0.1,0.2,0.2,0.3,0.4c0.1,0.1,0.3,0.3,0.4,0.4c0.2,0.2,0.3,0.3,0.5,0.5s0.4,0.3,0.6,0.5
			c0.2,0.1,0.4,0.3,0.6,0.4c0.2,0.1,0.4,0.2,0.6,0.3c0.2,0.1,0.4,0.1,0.6,0.1c0.2,0,0.4-0.1,0.5-0.2c0.2-0.2,0.2-0.4,0.1-0.7
			C340.6,140.1,340.4,139.9,340.2,139.6z M341.9,137.8l0-1.8l1.8,0l0,1.8L341.9,137.8z"/>
		<path class="st4" d="M345.8,145.3c0-0.1-0.1-0.2-0.1-0.3c-0.1-0.2-0.2-0.4-0.3-0.5c-0.1-0.2-0.3-0.4-0.5-0.5
			c-0.1-0.1-0.3-0.2-0.4-0.2c-0.2-0.1-0.3-0.1-0.5-0.1c-0.2,0-0.3,0-0.4,0c-0.1,0-0.2,0.1-0.3,0.2c-0.1,0.1-0.2,0.3-0.2,0.5
			c0,0.2,0,0.4,0.1,0.5c0.1,0.2,0.1,0.4,0.3,0.6c0.1,0.2,0.2,0.3,0.4,0.5c0.2,0.1,0.3,0.3,0.5,0.4c0.2,0.1,0.4,0.3,0.5,0.4
			c0.1,0.1,0.2,0.1,0.3,0.2s0.2,0.1,0.3,0.2l-1.1,1.4c-0.2-0.1-0.5-0.3-0.8-0.5c-0.3-0.2-0.6-0.5-1-0.7c-0.4-0.3-0.7-0.6-1.1-1
			c-0.4-0.4-0.8-0.8-1.2-1.2l-0.6-0.6l1.3-1.3l0.1,0.1l0.6,0.6c0.1-0.2,0.1-0.5,0.3-0.7s0.3-0.4,0.5-0.6c0.2-0.2,0.5-0.4,0.9-0.5
			c0.3-0.1,0.7-0.2,1-0.2c0.4,0,0.7,0.1,1.1,0.2c0.4,0.1,0.7,0.3,1,0.6c0.1,0.1,0.3,0.3,0.4,0.4c0.1,0.1,0.2,0.3,0.3,0.4
			s0.2,0.3,0.2,0.4c0.1,0.1,0.1,0.3,0.1,0.4c0,0.1,0.1,0.3,0.1,0.4c0,0.1,0,0.3,0.1,0.4l-1.4,0.4
			C345.9,145.5,345.8,145.4,345.8,145.3z"/>
		<path class="st4" d="M356.2,161.3l-0.2-0.2c-0.4-0.4-0.7-0.9-0.9-1.3c-0.2-0.5-0.3-1-0.2-1.5c-0.2,0.1-0.4,0.1-0.7,0
			s-0.5-0.1-0.7-0.3c-0.3-0.1-0.5-0.3-0.8-0.5c-0.3-0.2-0.5-0.4-0.7-0.6c-0.2-0.2-0.5-0.4-0.7-0.6c-0.2-0.2-0.4-0.4-0.6-0.6
			c-0.3-0.3-0.6-0.6-0.8-0.9c-0.3-0.3-0.5-0.6-0.8-1c-0.2-0.3-0.4-0.7-0.6-1c-0.1-0.3-0.2-0.7-0.2-1c0-0.3,0-0.7,0.2-1
			c0.1-0.3,0.4-0.7,0.7-1c0.1-0.1,0.3-0.2,0.4-0.3c0.2-0.1,0.3-0.2,0.5-0.3c0.2-0.1,0.4-0.2,0.5-0.2s0.4-0.1,0.5-0.1l0.2,1.6
			c-0.1,0-0.2,0-0.3,0.1c-0.1,0-0.2,0.1-0.3,0.1c-0.1,0-0.2,0.1-0.3,0.1c-0.1,0.1-0.2,0.1-0.3,0.2c-0.1,0.1-0.2,0.3-0.2,0.4
			c0,0.2,0,0.4,0.1,0.6c0.1,0.2,0.2,0.4,0.4,0.7c0.2,0.2,0.3,0.5,0.5,0.7c0.2,0.3,0.4,0.5,0.6,0.7c0.2,0.2,0.4,0.5,0.6,0.7
			c0.2,0.2,0.3,0.3,0.5,0.5c0.2,0.2,0.4,0.3,0.6,0.5c0.2,0.2,0.4,0.3,0.6,0.5c0.2,0.1,0.4,0.2,0.6,0.3c0.2,0.1,0.4,0.1,0.5,0.1
			c0.2,0,0.3-0.1,0.4-0.2c0.1-0.1,0.2-0.3,0.3-0.5c0.1-0.2,0.1-0.4,0.1-0.7s0-0.5,0-0.8c0-0.3,0-0.6,0-0.8c0-0.3,0-0.5-0.1-0.8
			c0-0.3-0.1-0.5-0.1-0.7l1.2-1l5.2,2.2l-0.7,1.6l-4.3-1.9c0,0.3,0.1,0.7,0.1,1s0,0.7,0,1c0,0.3,0,0.6-0.1,0.9
			c-0.1,0.3-0.1,0.6-0.2,0.9c-0.1,0.2-0.2,0.5-0.2,0.7s-0.1,0.5-0.1,0.7s0,0.5,0.1,0.7c0.1,0.2,0.2,0.5,0.4,0.7l0.2,0.2L356.2,161.3
			z"/>
		<path class="st4" d="M357.3,159.9l0.5,0.5c0.1,0.1,0.2,0.2,0.4,0.3c0.2,0.1,0.3,0.2,0.5,0.3c0.2,0.1,0.3,0.1,0.5,0.1
			c0.1,0,0.3,0,0.4-0.1c0.1-0.1,0.1-0.2,0.2-0.3c0.1-0.2,0.2-0.4,0.3-0.6c0.1-0.2,0.2-0.4,0.3-0.7c0.1-0.2,0.2-0.5,0.3-0.7l1.7,0.6
			c-0.1,0.2-0.2,0.5-0.3,0.8c-0.1,0.3-0.2,0.5-0.4,0.8c-0.1,0.3-0.3,0.5-0.4,0.7c-0.2,0.2-0.3,0.4-0.5,0.6c-0.3,0.3-0.7,0.5-1,0.7
			c-0.3,0.1-0.7,0.2-1,0.1c-0.3,0-0.7-0.2-1-0.4c-0.3-0.2-0.7-0.5-1-0.8l-0.6-0.6L357.3,159.9z M361.8,158l0-1.8l1.8,0l0,1.8
			L361.8,158z"/>
		<path class="st4" d="M361.4,166.6c-0.3-0.3-0.6-0.7-0.7-1c-0.1-0.3-0.2-0.6-0.2-0.9c0-0.3,0.1-0.6,0.2-0.9
			c0.2-0.3,0.4-0.5,0.6-0.8c0.1-0.1,0.3-0.3,0.5-0.5c0.2-0.2,0.4-0.4,0.7-0.6c0.3-0.2,0.5-0.5,0.8-0.8c0.3-0.3,0.6-0.6,0.9-0.9
			s0.6-0.6,0.8-0.9c0.3-0.3,0.5-0.6,0.6-0.8l1.6,0.8c-0.1,0.2-0.3,0.4-0.5,0.7c-0.2,0.3-0.5,0.5-0.7,0.8s-0.5,0.5-0.8,0.8
			c-0.3,0.3-0.5,0.5-0.7,0.7c-0.2,0.2-0.4,0.4-0.6,0.6s-0.5,0.4-0.7,0.6c-0.2,0.2-0.4,0.4-0.5,0.5c-0.2,0.2-0.3,0.3-0.3,0.4
			c0,0.1-0.1,0.2-0.1,0.2c0,0.1,0,0.1,0.1,0.2c0,0.1,0.1,0.1,0.1,0.2c0.1,0.1,0.1,0.1,0.2,0.2l0.1,0.1l-1.3,1.3L361.4,166.6z"/>
		<path class="st4" d="M360.4,170.1l0-1.8l1.8,0l0,1.8L360.4,170.1z M362.6,165.3l0.5,0.5c0.1,0.1,0.2,0.2,0.4,0.3
			c0.2,0.1,0.3,0.2,0.5,0.3c0.2,0.1,0.3,0.1,0.5,0.1c0.1,0,0.3,0,0.4-0.1c0.1-0.1,0.1-0.2,0.2-0.3c0.1-0.2,0.2-0.4,0.3-0.6
			s0.2-0.4,0.3-0.7s0.2-0.5,0.3-0.7l1.7,0.6c-0.1,0.2-0.2,0.5-0.3,0.8c-0.1,0.3-0.2,0.5-0.4,0.8c-0.1,0.3-0.3,0.5-0.4,0.7
			c-0.2,0.2-0.3,0.4-0.5,0.6c-0.3,0.3-0.7,0.5-1,0.7s-0.7,0.2-1,0.1c-0.3,0-0.7-0.2-1-0.4c-0.3-0.2-0.7-0.5-1-0.8l-0.6-0.6
			L362.6,165.3z"/>
	</g>
</g>
<g id="freepik--Wallet--inject-249">
	<path class="st0" d="M243.2,237.3h255.7c9.6,0,17.4,7.8,17.4,17.4v176c0,9.6-7.8,17.4-17.4,17.4H243.2c-9.6,0-17.4-7.8-17.4-17.4
		v-176C225.8,245.1,233.6,237.3,243.2,237.3z"/>
	<path class="st2" d="M516.4,254.7c0,0,0-0.2,0-0.6c0-0.6-0.1-1.3-0.2-1.9c-0.4-2.4-1.2-4.8-2.6-6.8c-1-1.5-2.2-2.9-3.6-4.1
		c-1.7-1.4-3.6-2.4-5.7-3.1c-0.6-0.2-1.1-0.3-1.7-0.5s-1.2-0.2-1.9-0.3l-1.9-0.1h-10.8l-104.3,0.1h-72h-40.1h-26.3
		c-1.8-0.1-3.6,0-5.3,0.3c-3.5,0.6-6.8,2.4-9.3,5c-1.3,1.3-2.3,2.8-3.1,4.4c-0.8,1.6-1.3,3.4-1.6,5.2c-0.2,1.8-0.2,3.7-0.2,5.5V286
		c0,15.2,0,30.8,0,46.6v98c0,4.2,1.5,8.2,4.3,11.4c2.7,3.1,6.5,5.2,10.6,5.7c2,0.2,4.1,0.2,6.2,0.2h158.2h82.6h9.6
		c1.6,0,3.1-0.1,4.7-0.3c1.5-0.3,3-0.8,4.4-1.5c0.7-0.3,1.4-0.7,2-1.1c0.6-0.4,1.2-0.9,1.8-1.4c3.4-3,5.5-7.3,5.8-11.9
		c0.1-12,0-23.5,0.1-34.5c0-44,0.1-79.6,0.1-104.3c0-12.3,0-21.9,0-28.4c0-3.2,0-5.7,0-7.4S516.3,254.6,516.4,254.7
		c0-0.1,0,0.8,0,2.4c0,1.7,0,4.1,0,7.4c0,6.5,0,16,0,28.4c0,24.6,0,60.2,0.1,104.3c0,11,0.1,22.5,0,34.6c-0.2,3.1-1.1,6.1-2.8,8.6
		c-0.8,1.3-1.9,2.5-3,3.5c-0.6,0.5-1.2,1-1.9,1.5c-0.6,0.4-1.3,0.8-2,1.2c-1.4,0.7-2.9,1.2-4.5,1.5c-1.6,0.3-3.2,0.4-4.8,0.3h-9.6
		h-82.6h-91.3H247c-2.1,0.1-4.2,0-6.2-0.2c-4.2-0.6-8.1-2.6-10.9-5.9c-2.8-3.2-4.4-7.4-4.4-11.7c0-33.6,0-66.4,0-98V286
		c0-7.6,0-15.1,0-22.6v-5.6c-0.1-1.9,0-3.7,0.2-5.6c0.2-1.8,0.8-3.6,1.6-5.3c0.8-1.7,1.9-3.2,3.2-4.5c1.3-1.3,2.7-2.4,4.4-3.3
		c1.6-0.9,3.4-1.5,5.2-1.8l1.4-0.2l1.4-0.1c0.9-0.1,1.8,0,2.7,0h66.4h72l104.3,0.1h10.7l2,0.1c0.6,0.1,1.3,0.2,1.9,0.3
		s1.2,0.3,1.8,0.5c2.1,0.7,4,1.8,5.7,3.2c1.4,1.2,2.6,2.6,3.6,4.1c1.3,2.1,2.2,4.4,2.5,6.9c0.1,0.6,0.2,1.3,0.2,1.9
		C516.4,254.5,516.4,254.7,516.4,254.7z"/>
	<path class="st2" d="M506.2,250.3c2-0.3,4-0.3,6,0C510.2,250.6,508.2,250.6,506.2,250.3z"/>
	<path class="st2" d="M481.7,250.3c4.1-0.3,8.2-0.3,12.2,0C489.9,250.6,485.8,250.6,481.7,250.3z"/>
	<path class="st2" d="M457.2,250.3c4.1-0.3,8.2-0.3,12.2,0C465.4,250.6,461.3,250.6,457.2,250.3z"/>
	<path class="st2" d="M432.8,250.3c4.1-0.3,8.2-0.3,12.2,0C440.9,250.6,436.8,250.6,432.8,250.3z"/>
	<path class="st2" d="M408.3,250.3c4.1-0.3,8.2-0.3,12.2,0C416.5,250.6,412.4,250.6,408.3,250.3z"/>
	<path class="st2" d="M383.8,250.3c4.1-0.3,8.2-0.3,12.2,0C392,250.6,387.9,250.6,383.8,250.3z"/>
	<path class="st2" d="M359.3,250.3c4.1-0.3,8.2-0.3,12.2,0C367.5,250.6,363.4,250.6,359.3,250.3z"/>
	<path class="st2" d="M334.9,250.3c4.1-0.3,8.2-0.3,12.2,0C343,250.6,338.9,250.6,334.9,250.3z"/>
	<path class="st2" d="M310.4,250.3c4.1-0.3,8.2-0.3,12.2,0C318.5,250.6,314.5,250.6,310.4,250.3z"/>
	<path class="st2" d="M285.9,250.3c2-0.3,4.1-0.3,6.1-0.3c2-0.1,4.1,0,6.1,0.3c-2,0.3-4.1,0.4-6.1,0.3
		C290,250.6,287.9,250.5,285.9,250.3z"/>
	<path class="st2" d="M261.4,250.3c2-0.3,4.1-0.3,6.1-0.3c2-0.1,4.1,0,6.1,0.3c-2,0.3-4.1,0.4-6.1,0.3
		C265.5,250.6,263.5,250.5,261.4,250.3z"/>
	<path class="st2" d="M243.2,256.3c-0.3-2-0.4-4-0.3-6l0.3-0.3h2.3l1.9,0.1c0.6,0,1.2,0,1.8,0.2c-0.6,0.1-1.2,0.2-1.8,0.2l-1.9,0.1
		h-1.1h-1.2l0.3-0.3C243.5,252.2,243.5,254.3,243.2,256.3z"/>
	<path class="st2" d="M243.2,278.7c-0.3-1.9-0.4-3.7-0.3-5.6c-0.1-1.9,0-3.7,0.3-5.6c0.3,1.9,0.3,3.7,0.3,5.6
		C243.5,275,243.5,276.8,243.2,278.7z"/>
	<path class="st2" d="M243.2,301.1c-0.3-3.7-0.3-7.5,0-11.2C243.5,293.6,243.5,297.4,243.2,301.1z"/>
	<path class="st2" d="M243.2,323.5c-0.3-3.7-0.3-7.5,0-11.2C243.5,316.1,243.5,319.8,243.2,323.5z"/>
	<path class="st2" d="M243.2,346c-0.3-3.7-0.3-7.5,0-11.2C243.5,338.5,243.5,342.3,243.2,346z"/>
	<path class="st2" d="M243.2,368.4c-0.3-3.7-0.3-7.5,0-11.2C243.5,360.9,243.5,364.7,243.2,368.4z"/>
	<path class="st2" d="M243.2,390.8c-0.3-3.7-0.3-7.5,0-11.2C243.5,383.3,243.5,387.1,243.2,390.8z"/>
	<path class="st2" d="M243.2,413.3c-0.3-3.7-0.3-7.5,0-11.2C243.5,405.8,243.5,409.5,243.2,413.3z"/>
	<path class="st2" d="M249.2,430.5c-2,0.3-4,0.3-6,0.3c-0.5-0.5-0.1-0.1-0.3-0.3l0,0v-1.2c0-0.4,0-0.8,0-1.1c0-0.7,0-1.3,0-1.9
		c0-0.6,0-1.2,0.2-1.8c0.1,0.6,0.2,1.2,0.2,1.8c0,0.6,0,1.3,0.1,1.9c0,0.4,0,0.7,0,1.1c0,0.2,0,0.4,0,0.6v0.6l0,0
		c-0.1-0.1,0.3,0.3-0.3-0.3C245.1,430.1,247.2,430.2,249.2,430.5z"/>
	<path class="st2" d="M273.3,430.5c-2,0.3-4,0.3-6,0.3c-2,0.1-4,0-6-0.3c2-0.3,4-0.3,6-0.3C269.3,430.1,271.3,430.2,273.3,430.5z"/>
	<path class="st2" d="M297.4,430.5c-2,0.3-4,0.3-6,0.3c-2,0.1-4,0-6-0.3c2-0.3,4-0.3,6-0.3C293.4,430.1,295.5,430.2,297.4,430.5z"/>
	<path class="st2" d="M321.6,430.5c-4,0.3-8,0.3-12.1,0C313.5,430.1,317.5,430.1,321.6,430.5z"/>
	<path class="st2" d="M345.7,430.5c-4,0.3-8,0.3-12.1,0C337.6,430.1,341.7,430.1,345.7,430.5z"/>
	<path class="st2" d="M369.8,430.5c-4,0.3-8,0.3-12.1,0C361.8,430.1,365.8,430.1,369.8,430.5z"/>
	<path class="st2" d="M393.9,430.5c-4,0.3-8,0.3-12.1,0C385.9,430.1,389.9,430.1,393.9,430.5z"/>
	<path class="st2" d="M418,430.5c-4,0.3-8,0.3-12.1,0C410,430.1,414,430.1,418,430.5z"/>
	<path class="st2" d="M442.2,430.5c-4,0.3-8,0.3-12.1,0C434.1,430.1,438.1,430.1,442.2,430.5z"/>
	<path class="st2" d="M466.3,430.5c-4,0.3-8,0.3-12.1,0C458.2,430.1,462.3,430.1,466.3,430.5z"/>
	<path class="st2" d="M490.4,430.5c-4,0.3-8,0.3-12.1,0C482.4,430.1,486.4,430.1,490.4,430.5z"/>
	<path class="st2" d="M508.5,430.5c-2,0.3-4,0.3-6,0C504.5,430.1,506.5,430.1,508.5,430.5z"/>
	<g class="st3">
		<path d="M326,354.2c0,0,0.1,10-3,16s-4,8.4-10.4,10.7s-86.9,11.2-86.9,11.2v-27.2L326,354.2z"/>
	</g>
	<g class="st3">
		<path d="M324.6,316.5c0,0,0.9-10.2-24.7-14c-29.3-4.3-74.1-9.6-74.1-9.6v19.3L324.6,316.5z"/>
	</g>
	<path class="st0" d="M228.4,307.3h83.3c7.9,0,14.3,6.4,14.3,14.3v37.3c0,7.9-6.4,14.3-14.3,14.3h-83.3c-7.9,0-14.3-6.4-14.3-14.3
		v-37.3C214.1,313.7,220.5,307.3,228.4,307.3z"/>
	<path class="st2" d="M228.4,373.2c0,0-0.3,0-0.9,0c-0.8,0-1.7-0.1-2.5-0.3c-1.3-0.3-2.6-0.8-3.8-1.5c-1.6-0.9-3.1-2.2-4.2-3.6
		c-1.5-1.9-2.4-4-2.9-6.4c-0.2-1.3-0.3-2.7-0.2-4c0-1.4,0-2.8,0-4.3c0-6,0-12.7,0-20.2c0-3.8,0-7.7,0-11.8c0.1-4.4,2.2-8.5,5.7-11.1
		c1.8-1.4,3.9-2.3,6.2-2.7c1.1-0.2,2.3-0.3,3.5-0.2h18h64.4c4.4,0,8.6,2,11.3,5.4c1.8,2.2,2.9,4.9,3.2,7.8c0.1,1.4,0.1,2.8,0.1,4.1
		c0,2.7,0,5.5,0,8.1v15.9c0,2.6,0,5.2,0,7.7c0,1.3,0,2.5,0,3.8c0,0.6-0.1,1.3-0.2,1.9c-0.1,0.6-0.3,1.2-0.5,1.8
		c-1.7,4.8-5.7,8.3-10.6,9.4c-0.6,0.1-1.2,0.2-1.8,0.3c-0.6,0-1.2,0.1-1.8,0.1h-10.1h-24.5l-35.5-0.1l-9.6,0h-2.5L228.4,373.2
		c0,0.1,0.3,0.1,0.9,0.1h2.5l9.6,0l35.5-0.1h24.5h6.7c2.3-0.1,4.6,0.2,6.9-0.4c4.7-1.1,8.5-4.6,10.1-9.2c0.9-2.3,0.7-4.8,0.7-7.4
		v-7.7c0-5.2,0-10.5,0-15.9v-8.1c0-1.4,0-2.8-0.1-4.1c-0.3-2.7-1.3-5.3-3.1-7.5c-0.9-1.1-1.9-2-3-2.8c-1.2-0.8-2.4-1.4-3.8-1.8
		c-1.3-0.4-2.7-0.6-4.1-0.6h-64.4h-18c-1.1,0-2.3,0-3.4,0.2c-2.2,0.4-4.2,1.3-6,2.6c-3.4,2.6-5.5,6.5-5.6,10.8c-0.1,4.1,0,8,0,11.8
		c0,7.5,0,14.3,0,20.2c0,1.5,0,2.9,0,4.3c-0.1,1.3,0,2.6,0.2,4c1,5.6,5.2,10,10.6,11.4c0.8,0.2,1.6,0.3,2.5,0.4L228.4,373.2z"/>
	<circle class="st2" cx="292.3" cy="342.7" r="24"/>
	<path class="st5" d="M298.5,362.3c2-0.8,3.9-1.8,5.7-3c1.9-1.4,3.5-3.1,4.8-5c3.3-4.7,4.3-10.8,2.6-16.3c-0.7-2.2-1.7-4.4-3.1-6.3
		c-1.3-1.7-2.8-3.3-4.5-4.6c0,0,0.1,0.1,0.4,0.2c0.4,0.2,0.7,0.5,1.1,0.8c1.3,1,2.4,2.1,3.3,3.4c1.4,1.9,2.5,4,3.2,6.3
		c1.8,5.7,0.8,11.9-2.7,16.7c-1.4,1.9-3.1,3.6-5,5c-1.3,0.9-2.7,1.7-4.2,2.2c-0.4,0.2-0.8,0.3-1.2,0.4
		C298.8,362.2,298.6,362.3,298.5,362.3z"/>
</g>
<g id="freepik--Money--inject-249">
	<path class="st6" d="M667.4,189.1c2.3,24.3-15.6,45.9-40,48.2c-24.3,2.3-45.9-15.6-48.2-40c-2.3-24.3,15.6-45.9,40-48.2
		c0.1,0,0.1,0,0.2,0C643.7,147,665.2,164.9,667.4,189.1z"/>
	<g class="st3">
		<path d="M656.8,189c-0.2,0-0.5-1.4-1.2-4c-1.1-3.5-2.7-6.9-4.8-9.9c-1.5-2.1-3.1-4-5-5.7c-2.1-2-4.5-3.6-7.1-5
			c-1.4-0.7-2.8-1.4-4.3-1.9c-1.5-0.5-3.1-1-4.7-1.3c-1.6-0.3-3.3-0.5-5-0.6c-1.7-0.1-3.5,0-5.2,0.2c-1.7,0.2-3.4,0.5-5.1,1
			c-1.6,0.5-3.2,1.1-4.7,1.8c-2.9,1.3-5.6,3.1-8,5.2c-2.2,1.9-4.1,4.1-5.7,6.5c-1.4,2.1-2.6,4.4-3.5,6.7c-1.3,3.5-2.1,7.1-2.3,10.8
			c-0.2,2.6-0.1,4.1-0.3,4.1s-0.6-1.4-0.7-4.1c-0.2-3.9,0.3-7.7,1.6-11.4c1.8-5.5,5-10.5,9.3-14.4c2.5-2.3,5.4-4.3,8.5-5.7
			c1.6-0.8,3.4-1.4,5.1-1.9c1.8-0.5,3.6-0.9,5.5-1.1c1.9-0.2,3.7-0.3,5.6-0.2c1.8,0.1,3.6,0.3,5.4,0.7c3.4,0.7,6.6,1.9,9.6,3.5
			c5.1,2.8,9.4,6.8,12.5,11.8c2.1,3.3,3.5,6.9,4.2,10.7C657,187.5,657,189,656.8,189z"/>
	</g>
	<g class="st3">
		<path d="M628.9,212.8l0.6,5.8l-5.2,0.6l-0.6-5.7c-5.2,0.2-10.3-0.9-13.4-2.8l2.2-6.7c3.2,1.8,6.8,2.7,10.5,2.7l-0.9-8.7
			c-5.9-0.8-12.6-2.1-13.4-9.5c-0.6-5.5,3-10.7,11.1-12.5l-0.6-5.8l5.2-0.5l0.6,5.7c3.8-0.2,7.5,0.5,10.9,2.1L634,184
			c-2.6-1.2-5.4-1.8-8.3-1.9l0.9,8.9c5.9,0.8,12.5,2,13.3,9.4C640.5,205.8,637,210.9,628.9,212.8z M621.3,190.3l-0.8-7.4
			c-2.7,0.9-3.6,2.5-3.5,4.3S618.9,189.8,621.3,190.3z M631.6,201.9c-0.2-1.8-1.8-2.7-4.1-3.2l0.8,7.2
			C630.8,205.1,631.8,203.6,631.6,201.9z"/>
	</g>
	<path class="st2" d="M589.7,196.2c0,0.1,0.1,0.2,0.1,0.3c0,0.2,0.1,0.5,0.1,0.8s0.1,0.8,0.2,1.3c0.1,0.6,0.2,1.2,0.3,1.7
		c1.4,6.2,4.6,11.9,9.1,16.5l1.6,1.4c0.3,0.2,0.5,0.5,0.8,0.7l0.9,0.7c0.6,0.4,1.2,0.9,1.8,1.3l2,1.2c2.9,1.6,5.9,2.8,9.2,3.6
		c6.9,1.6,14.2,0.9,20.7-1.9c3-1.3,5.8-3,8.3-5.2l1.7-1.6c0.6-0.5,1-1.1,1.5-1.6c0.3-0.3,0.5-0.5,0.8-0.8s0.5-0.6,0.7-0.9
		c0.4-0.6,0.9-1.1,1.3-1.7c1.5-2.1,2.7-4.4,3.6-6.9c1.4-3.5,2.2-7.2,2.3-11c0-0.6,0-1.2,0-1.8c0-0.5,0-0.9,0-1.3s0-0.6,0-0.8
		c0-0.1,0-0.2,0-0.3c0,0.1,0,0.2,0,0.3c0,0.2,0,0.5,0.1,0.8s0,0.8,0.1,1.3c0,0.6,0,1.2,0,1.8c-0.1,3.8-0.8,7.6-2.2,11.1
		c-0.9,2.5-2.1,4.8-3.6,7L650,214c-0.2,0.3-0.4,0.6-0.7,0.9l-0.8,0.8c-0.5,0.6-1,1.1-1.6,1.7l-1.8,1.6c-2.6,2.2-5.4,3.9-8.5,5.3
		c-6.6,2.9-14,3.6-21,1.9c-3.3-0.8-6.4-2-9.3-3.6l-2-1.2c-0.7-0.4-1.2-0.9-1.8-1.4l-0.9-0.7c-0.3-0.2-0.5-0.5-0.8-0.7l-1.6-1.5
		c-1.8-1.9-3.5-4-4.8-6.2c-2-3.2-3.4-6.8-4.2-10.5c-0.1-0.6-0.2-1.2-0.3-1.8c-0.1-0.5-0.1-0.9-0.2-1.3s-0.1-0.6-0.1-0.8
		C589.7,196.3,589.7,196.3,589.7,196.2z"/>
	<path class="st6" d="M605,319.6c-6.1,12.8-21.5,18.2-34.3,12.1c-12.8-6.1-18.2-21.5-12.1-34.3c6.1-12.8,21.5-18.2,34.3-12.1
		c0,0,0,0,0.1,0C605.8,291.5,611.2,306.9,605,319.6C605,319.6,605,319.6,605,319.6z"/>
	<g class="st3">
		<path d="M599.8,316.4c0.1-0.8,0.3-1.6,0.6-2.4c0.5-2.1,0.7-4.2,0.6-6.4c-0.1-1.5-0.4-2.9-0.8-4.3c-0.5-1.6-1.2-3.2-2.1-4.6
			c-0.5-0.8-1-1.5-1.6-2.2c-1.9-2.3-4.3-4.1-7-5.3c-0.9-0.4-1.9-0.7-2.8-1c-0.9-0.2-1.9-0.4-2.9-0.5c-0.9-0.1-1.9-0.1-2.8-0.1
			c-0.9,0-1.8,0.1-2.7,0.3c-1.7,0.3-3.3,0.8-4.8,1.5c-1.3,0.6-2.6,1.4-3.8,2.3c-1.7,1.3-3.2,2.9-4.3,4.7c-0.4,0.7-0.8,1.4-1.4,2
			c0.1-0.8,0.4-1.6,0.9-2.3c1.1-2,2.5-3.8,4.2-5.3c1.2-1,2.5-1.9,3.9-2.6c1.6-0.8,3.3-1.4,5.1-1.8c2-0.4,4-0.5,6-0.3
			c1.1,0.1,2.1,0.3,3.1,0.6c1.1,0.3,2.1,0.6,3.1,1.1c1,0.4,2,1,2.9,1.6c0.9,0.6,1.7,1.2,2.5,1.9c0.8,0.7,1.5,1.4,2.1,2.2
			c0.6,0.8,1.2,1.6,1.7,2.4c0.9,1.6,1.6,3.2,2.1,5c0.4,1.5,0.6,3.1,0.7,4.6c0.1,2.3-0.3,4.5-1.1,6.6
			C600.7,315.1,600.3,315.8,599.8,316.4z"/>
	</g>
	<g class="st3">
		<path d="M578.8,320l-1.4,3.1l-2.8-1.3l1.4-3c-2.4-1.2-4.4-3.1-5.9-5.4l3.1-2.7c1.1,1.8,2.6,3.4,4.5,4.5l2.2-4.6
			c-2.7-2.2-5.7-4.8-3.8-8.7c1.4-2.9,4.7-4.5,9.3-2.9l1.4-3.1l2.8,1.3l-1.4,3c1.9,1,3.6,2.5,4.8,4.3l-3,2.8c-1-1.4-2.2-2.5-3.6-3.4
			l-2.2,4.7c2.7,2.1,5.6,4.7,3.8,8.6C586.6,320,583.4,321.5,578.8,320z M581.7,306.5l1.8-3.9c-1.6-0.4-2.6,0.2-3,1.1
			S580.7,305.5,581.7,306.5L581.7,306.5z M583.4,315.4c0.4-1-0.1-1.9-1.1-2.8l-1.8,3.8C582,316.7,583,316.2,583.4,315.4L583.4,315.4
			z"/>
	</g>
	<path class="st2" d="M564.2,300c0,0-0.3,0.8-0.8,2.3c-0.7,2.1-1,4.3-0.9,6.4c0,1.5,0.2,3,0.6,4.5c0.4,1.7,1.1,3.3,1.9,4.8
		c0.9,1.6,2.1,3.2,3.5,4.5c3,2.8,6.8,4.7,10.8,5.2c1.9,0.2,3.8,0.2,5.7-0.1c3.2-0.5,6.2-1.8,8.8-3.8c1.7-1.3,3.2-2.9,4.5-4.8
		c0.8-1.3,1.2-2.1,1.3-2c-0.1,0.2-0.1,0.4-0.3,0.6c-0.3,0.5-0.5,1.1-0.8,1.6c-1.2,1.9-2.7,3.6-4.4,4.9c-2.6,2.1-5.7,3.5-8.9,4
		c-1.9,0.3-3.9,0.4-5.8,0.1c-2.1-0.3-4.1-0.9-6-1.8c-1.9-0.9-3.6-2.1-5.1-3.6c-1.4-1.4-2.6-2.9-3.6-4.6c-0.9-1.5-1.5-3.2-2-4.9
		c-0.4-1.5-0.5-3-0.5-4.5c0-2.2,0.3-4.4,1.1-6.5c0.2-0.6,0.4-1.1,0.7-1.6C563.9,300.4,564,300.2,564.2,300z"/>
	<path class="st6" d="M180.4,316c3.4,22.9-12.4,44.3-35.4,47.7s-44.3-12.4-47.7-35.4s12.4-44.3,35.4-47.7c0,0,0.1,0,0.1,0
		C155.8,277.2,177.1,293.1,180.4,316C180.4,316,180.4,316,180.4,316z"/>
	<g class="st3">
		<path d="M170.4,316.4c-0.2,0-0.5-1.3-1.4-3.7c-1.2-3.3-2.9-6.4-5.1-9.2c-1.5-1.9-3.2-3.6-5-5.1c-2.1-1.7-4.5-3.2-7-4.3
			c-1.3-0.6-2.7-1.1-4.2-1.5c-1.5-0.5-3-0.8-4.5-1c-1.6-0.2-3.2-0.3-4.8-0.3c-1.6,0-3.3,0.2-4.9,0.5c-1.6,0.3-3.2,0.7-4.8,1.2
			c-1.5,0.5-3,1.2-4.4,1.9c-1.4,0.7-2.7,1.5-3.9,2.5c-1.2,0.9-2.3,1.8-3.4,2.9c-3.7,3.6-6.4,8.1-8,13c-1.1,3.3-1.6,6.8-1.6,10.4
			c0,2.5,0.2,3.9,0,3.9s-0.6-1.3-0.9-3.9c-0.4-3.7-0.1-7.3,0.9-10.9c0.7-2.5,1.6-4.8,2.8-7.1c1.4-2.6,3.2-4.9,5.2-7
			c1.1-1.1,2.3-2.2,3.6-3.2c1.3-1,2.7-1.9,4.2-2.7c1.5-0.8,3.1-1.5,4.7-2.1c3.4-1.2,6.9-1.8,10.5-1.9c1.7,0,3.5,0.1,5.2,0.3
			c1.7,0.2,3.3,0.6,4.9,1.1c1.5,0.5,3,1,4.4,1.7c5,2.4,9.3,6,12.5,10.5c2.1,3,3.7,6.4,4.6,9.9C170.5,315,170.5,316.4,170.4,316.4z"
			/>
	</g>
	<g class="st3">
		<path d="M145.2,340.4l0.9,5.5l-4.9,0.8l-0.9-5.4c-4.9,0.5-9.8-0.3-12.9-2l1.7-6.4c3.1,1.5,6.6,2.2,10.1,2l-1.3-8.2
			c-5.7-0.5-12.1-1.3-13.2-8.3c-0.8-5.2,2.2-10.3,9.9-12.4l-0.9-5.5l4.9-0.8l0.9,5.4c3.5-0.4,7.1,0.1,10.5,1.4l-1.5,6.4
			c-2.5-1-5.2-1.4-7.9-1.4l1.3,8.4c5.7,0.4,11.9,1.3,13.1,8.2C155.8,333.2,152.8,338.2,145.2,340.4z M136.8,319.5l-1.1-7
			c-2.5,1-3.3,2.6-3.1,4.2S134.6,319.1,136.8,319.5z M147.2,329.9c-0.3-1.7-1.9-2.4-4.1-2.8l1.1,6.8
			C146.6,333,147.4,331.5,147.2,329.9L147.2,329.9z"/>
	</g>
	<path class="st2" d="M107.3,326.7c0,0.1,0.1,0.2,0.1,0.3c0.1,0.2,0.1,0.4,0.2,0.7l0.3,1.2c0.1,0.6,0.2,1.1,0.4,1.6
		c1,3.4,2.6,6.7,4.6,9.6c1.4,2,3.1,3.9,4.9,5.5l1.6,1.3c0.3,0.2,0.5,0.4,0.8,0.6l0.9,0.6c0.6,0.4,1.2,0.8,1.8,1.2l1.9,1
		c2.8,1.4,5.8,2.4,8.8,2.9c3.3,0.5,6.7,0.6,10,0.1c3.3-0.5,6.5-1.5,9.5-3c2.8-1.4,5.4-3.2,7.6-5.3l1.6-1.6c0.5-0.5,0.9-1.1,1.4-1.6
		l0.7-0.8c0.2-0.3,0.4-0.6,0.6-0.9c0.4-0.6,0.8-1.1,1.1-1.7c1.3-2.1,2.3-4.3,3.1-6.7c1.1-3.4,1.7-7,1.6-10.5c0-0.6,0-1.1-0.1-1.7
		c0-0.5-0.1-0.9-0.1-1.2s0-0.5-0.1-0.8c0-0.1,0-0.2,0-0.3c0,0.1,0,0.2,0.1,0.3c0,0.2,0.1,0.5,0.1,0.8s0.1,0.8,0.1,1.2
		c0.1,0.6,0.1,1.1,0.1,1.7c0.1,3.6-0.4,7.2-1.5,10.6c-0.8,2.4-1.8,4.7-3.1,6.8l-1.1,1.7c-0.2,0.3-0.4,0.6-0.6,0.9l-0.7,0.8
		c-0.5,0.5-0.9,1.1-1.4,1.7s-1,1.1-1.6,1.6c-2.3,2.2-4.9,4-7.7,5.4c-6.1,3.1-13.1,4.1-19.8,2.9c-3.1-0.6-6.2-1.6-9-3l-2-1.1
		c-0.6-0.4-1.2-0.8-1.8-1.2l-0.9-0.6c-0.3-0.2-0.5-0.5-0.8-0.7l-1.6-1.3c-1.8-1.7-3.5-3.6-4.9-5.6c-2.1-3-3.6-6.3-4.5-9.8
		c-0.2-0.5-0.3-1.1-0.4-1.6c-0.1-0.5-0.2-0.9-0.2-1.2l-0.1-0.8C107.2,326.8,107.2,326.8,107.3,326.7z"/>
</g>
<g id="freepik--Floor--inject-249">
	<path class="st2" d="M708.5,448.2c0,0.1-149.3,0.3-333.5,0.3s-333.5-0.1-333.5-0.3s149.3-0.3,333.5-0.3S708.5,448.1,708.5,448.2z"
		/>
</g>
<g id="freepik--Character--inject-249">
	<path class="st7" d="M553,260.3c0,0-0.1-6.6-0.4-6.7l-13.6,3.1c-0.2,0.9-1.9,11.8-1.6,12.8l15.4,4.3
		C552.8,273.8,553,260.7,553,260.3z"/>
	<path class="st7" d="M553,272.8c0-0.1,0.1-0.2,0.1-0.3c0.2-1.5,0.1-8-0.7-8.3s-3.1,0.2-3.3,1s0.4,8.2,0.4,8.2s0.2,1.1,2.1,1.4
		C552.8,275,553,272.8,553,272.8z"/>
	<path class="st7" d="M549.1,275.1c0-0.1,0.1-0.2,0.1-0.3c0.2-1.5,0.1-8-0.7-8.3s-3.1,0.2-3.3,1.1s0.4,8.2,0.4,8.2s0.2,1.1,2.1,1.4
		C548.8,277.4,549.1,275.1,549.1,275.1z"/>
	<path class="st7" d="M545.3,276.3c0,0,0-0.1,0.1-0.3c0.2-1.5,0.1-8-0.7-8.3s-3.1,0.2-3.3,1.1s0.4,8.2,0.4,8.2s0.2,1.2,2.1,1.4
		C545,278.5,545.3,276.3,545.3,276.3z"/>
	<path class="st7" d="M541.5,277.4c0,0,0-0.1,0.1-0.3c0.2-1.5,0.1-8-0.7-8.3s-3.1,0.2-3.3,1s0.4,8.2,0.4,8.2s0.2,1.1,2.1,1.4
		C541.2,279.6,541.5,277.4,541.5,277.4z"/>
	<path class="st8" d="M549.1,267.2c0.2,1,0.3,2.1,0.3,3.2c0.1,1,0.1,2.1-0.1,3.1c-0.2-1-0.3-2.1-0.3-3.2
		C548.9,269.2,548.9,268.2,549.1,267.2z"/>
	<path class="st8" d="M545.2,267.1c0.3,1.5,0.4,3,0.4,4.5c0.1,1.5,0.1,3,0,4.5c-0.3-1.5-0.4-3-0.4-4.5
		C545.1,270.2,545.1,268.6,545.2,267.1z"/>
	<g class="st9">
		<path class="st8" d="M541.3,267.5c0.3,1.5,0.4,3,0.4,4.5c0.1,1.5,0.1,3,0,4.5c-0.3-1.5-0.4-3-0.4-4.5
			C541.2,270.5,541.2,269,541.3,267.5z"/>
	</g>
	<path class="st7" d="M538.9,257c0,0-5.4,12.3-4.6,13.1c1,0.8,2.2,1.4,3.3,1.9L538.9,257z"/>
	<path class="st7" d="M509,92.1l-4,46l-23-1.8c-0.1-2.7,0-13.1,0-13.1s-9.6-1.5-9.7-11.1c0-4.7,0.6-14.3,1.3-22.9
		c0.8-9.6,9.1-16.8,18.7-16.3l0,0c9.8,0.6,17.2,9,16.7,18.7C509,91.8,509,91.9,509,92.1z"/>
	<path class="st8" d="M482,123c4.4,0.1,8.8-1.2,12.5-3.6c0,0-3,6.9-12.5,6L482,123z"/>
	<path class="st2" d="M476.1,95.8c0,0.7,0.6,1.3,1.3,1.4c0.7,0.1,1.3-0.5,1.4-1.2c0,0,0,0,0,0c0-0.7-0.6-1.4-1.3-1.4
		C476.8,94.6,476.2,95.1,476.1,95.8C476.2,95.8,476.2,95.8,476.1,95.8z"/>
	<path class="st2" d="M475.6,94c0.2,0.2,1.2-0.6,2.7-0.6s2.5,0.7,2.7,0.6s-0.1-0.4-0.6-0.8c-0.6-0.4-1.4-0.7-2.2-0.7
		c-0.8,0-1.5,0.2-2.1,0.7C475.7,93.6,475.6,93.9,475.6,94z"/>
	<path class="st2" d="M490.6,95.8c0,0.8,0.6,1.4,1.4,1.4c0.7,0,1.3-0.5,1.4-1.2c0,0,0,0,0,0c0-0.7-0.6-1.4-1.3-1.4
		C491.3,94.6,490.7,95.1,490.6,95.8C490.7,95.8,490.7,95.8,490.6,95.8z"/>
	<path class="st2" d="M490.1,94.2c0.2,0.2,1.2-0.6,2.7-0.6s2.6,0.7,2.7,0.6s-0.1-0.4-0.6-0.7c-0.6-0.4-1.4-0.7-2.2-0.7
		c-0.8,0-1.5,0.2-2.1,0.7C490.2,93.8,490,94.2,490.1,94.2z"/>
	<path class="st2" d="M484.8,105.2c-0.8-0.2-1.6-0.4-2.4-0.4c-0.4,0-0.7-0.1-0.8-0.4c0-0.4,0.1-0.8,0.3-1.1l1.1-2.9
		c1.5-4.1,2.7-7.4,2.5-7.5s-1.5,3.2-3.1,7.3c-0.4,1-0.7,2-1.1,2.9c-0.2,0.5-0.3,1-0.2,1.5c0.1,0.3,0.3,0.5,0.6,0.6
		c0.2,0.1,0.4,0.1,0.6,0.1C483.2,105.3,484,105.3,484.8,105.2z"/>
	<path class="st2" d="M489.1,106.2c-0.2,0-0.2,1.6-1.6,2.7s-3.1,1-3.1,1.2s0.4,0.3,1.1,0.3c0.9,0,1.8-0.3,2.6-0.9
		c0.7-0.6,1.2-1.4,1.3-2.3C489.4,106.6,489.2,106.2,489.1,106.2z"/>
	<path class="st2" d="M489.7,88.5c0.1,0.4,1.6,0.2,3.4,0.4s3.1,0.7,3.4,0.3c0.1-0.2-0.1-0.6-0.7-0.9c-1.5-1-3.4-1.2-5.1-0.6
		C490,88,489.7,88.3,489.7,88.5z"/>
	<path class="st2" d="M476.2,89.7c0.3,0.3,1.3,0,2.5,0s2.3,0.2,2.5-0.1c0.1-0.2-0.1-0.5-0.5-0.8c-1.2-0.8-2.8-0.7-4,0.1
		C476.2,89.2,476.1,89.5,476.2,89.7z"/>
	<path class="st2" d="M511,86.2c-0.5,4.7-1.8,10.5-2.2,15.3c0,0.4-0.1,0.9-0.3,1.3c-0.7,0.9-2.3,2.9-3.1,2.1c-2-1.9-2.8-7.1-3.2-9.9
		s-0.3-5.5-0.7-8.3v-0.2c-0.3-1.9-1.3-3.7-2.8-4.9c-0.3-0.2-0.7-0.4-1.1-0.6c-2.8-1-7.5,0.8-10.3,1.9c-1.4,0.5-2.9,1.2-4.3,1.8
		c-3.2,1.5-7,1.2-9.9-0.8c-1.7-1.2-1.9-5.2-1.1-7.6c2-6.7,10.4-9,21.2-6.4S512.1,76.6,511,86.2z"/>
	<path class="st7" d="M505.7,96.4c0.2-0.1,6.6-2,6.4,4.6s-6.7,5-6.8,4.8S505.7,96.4,505.7,96.4z"/>
	<path class="st8" d="M507.4,103.4c0,0,0.1,0.1,0.3,0.2c0.3,0.1,0.6,0.1,0.9,0c0.9-0.5,1.4-1.5,1.4-2.5c0-0.6-0.1-1.1-0.3-1.7
		c-0.1-0.4-0.4-0.8-0.8-0.9c-0.3-0.1-0.6,0-0.7,0.3c-0.1,0.2-0.1,0.3-0.1,0.3s-0.1-0.1-0.1-0.4c0-0.2,0.1-0.3,0.3-0.4
		c0.2-0.1,0.4-0.2,0.6-0.2c0.5,0.1,1,0.5,1.2,1.1c0.3,0.6,0.4,1.2,0.3,1.8c0,1.2-0.7,2.3-1.8,2.8c-0.3,0.1-0.7,0-1-0.2
		C507.4,103.6,507.4,103.4,507.4,103.4z"/>
	<path class="st10" d="M510.9,86.6c-2.9,1.6-6.4,1.7-9.4,0.2c1.6,0.3,3.1,0.5,4.7,0.6C507.8,87.2,509.4,87,510.9,86.6z"/>
	<path class="st10" d="M510.7,88.5c-1.3,0.9-2.9,1.3-4.5,1.3c-1.6,0.1-3.2-0.3-4.5-1.1c1.5,0.3,3,0.5,4.5,0.6
		C507.7,89.1,509.2,88.8,510.7,88.5z"/>
	<path class="st2" d="M465.1,414.9l4.3,19.6c0,0-18.5,10.9-18.1,14.6l38.3-6.9l-5.4-30.8L465.1,414.9z"/>
	<path class="st10" d="M489.6,442.2l-0.7-3.1l-36.5,7.8c0,0-1.6,1-1.2,2.2L489.6,442.2z"/>
	<path class="st2" d="M508.6,417l0.6,20c0,0-20.2,7.4-20.4,11.1l38.9,0.2l0.3-31.3L508.6,417z"/>
	<g class="st11">
		<path class="st10" d="M527.8,448.3l-0.1-3.1l-37.3,1c0,0-1.7,0.7-1.5,2L527.8,448.3z"/>
	</g>
	<path class="st2" d="M463,431.7c0,0-20-97.9-20-99.8l35.7-18.8l13.8,114.9L463,431.7z"/>
	<path class="st2" d="M507.9,435l-27.5-169.7v-36.6l37.6,3.5c0.5,1.4,12.8,202.9,12.8,202.9l-3.9-0.2L507.9,435"/>
	<polygon class="st2" points="458.6,226.1 443,331.8 478,323.4 492.2,229.6 	"/>
	<path class="st10" d="M491,235.1c0,0,0,0.2,0,0.5s0.1,0.9,0.2,1.5c0.2,1.4,0.4,3.3,0.7,5.8c0.6,5.1,1.5,12.4,2.7,21.4
		c2.3,18,5.9,43,9.7,70.5c1.9,13.8,3.6,26.9,5.1,38.8c0.4,3,0.7,5.9,1.1,8.7s0.9,5.6,1.3,8.2c0.8,5.3,1.5,10.2,2.2,14.7
		c1.3,9,2.4,16.3,3.1,21.3c0.3,2.5,0.6,4.5,0.8,5.8c0.1,0.7,0.1,1.2,0.2,1.5c0,0.1,0,0.3,0,0.4c0,0.1-0.1,0-0.1,0l0,0
		c0,0,0.1,0,0.1,0c0-0.1,0-0.3,0-0.4c0-0.3,0-0.9-0.1-1.5c-0.1-1.3-0.3-3.3-0.7-5.8c-0.7-5-1.7-12.4-3-21.4
		c-0.7-4.5-1.4-9.4-2.2-14.7c-0.4-2.6-0.8-5.4-1.2-8.2s-0.7-5.7-1.1-8.7c-1.5-12-3.2-25.1-5.1-38.8c-3.8-27.5-7.4-52.4-9.8-70.4
		L492,243c-0.3-2.5-0.6-4.5-0.8-5.8l-0.2-1.5C491,235.3,491,235.1,491,235.1z"/>
	<path class="st10" d="M470,430.8c0,0,0-0.2-0.1-0.5s-0.1-0.8-0.2-1.5c-0.2-1.3-0.5-3.2-1-5.6l-3.6-20.7l-12.1-68.2
		c-0.4-1.6-0.5-3.3-0.3-5c0.2-1.6,0.5-3.3,0.7-4.9c0.5-3.3,1-6.5,1.5-9.6c1-6.3,2-12.4,2.9-18.2c1.9-11.6,3.8-22,5.4-30.7
		s3.1-15.7,4.2-20.6c0.5-2.4,1-4.3,1.3-5.6c0.1-0.6,0.3-1.1,0.3-1.4s0.1-0.5,0.1-0.5s0,0.2-0.1,0.5s-0.2,0.8-0.4,1.4
		c-0.3,1.3-0.8,3.1-1.4,5.5c-1.2,4.8-2.7,11.8-4.4,20.5s-3.6,19.1-5.5,30.7c-1,5.8-2,11.9-3,18.2c-0.5,3.2-1,6.4-1.5,9.6
		c-0.3,1.6-0.5,3.3-0.7,4.9c-0.2,1.7-0.1,3.4,0.3,5.1c4.8,26.6,9.1,50.7,12.3,68.2c1.6,8.7,2.9,15.8,3.8,20.7c0.5,2.4,0.8,4.3,1,5.6
		c0.1,0.6,0.2,1.1,0.3,1.5S470,430.8,470,430.8z"/>
	<path class="st10" d="M480.3,264.1c-0.1,0,1.5,11,3.6,24.5s4,24.4,4.1,24.4s-1.5-11-3.6-24.5S480.4,264.1,480.3,264.1z"/>
	<path class="st10" d="M507.5,434.6c0.3,0.1,0.6,0.2,0.9,0.2c0.6,0.1,1.4,0.1,2.5,0.2c2.1,0.2,5,0.3,8.2,0.4s6.1,0,8.2-0.1
		c1,0,1.9-0.1,2.5-0.1c0.3,0,0.6,0,0.9-0.1c-1.1-0.1-2.3-0.1-3.4-0.1c-2.1,0-5,0-8.2,0s-6.1-0.1-8.2-0.2
		C509.8,434.6,508.7,434.6,507.5,434.6z"/>
	<path class="st10" d="M463,431.7c0.4,0,0.8,0,1.2-0.1l3.2-0.3c2.7-0.3,6.4-0.8,10.4-1.3s7.8-1,10.4-1.4l3.1-0.5
		c0.4,0,0.8-0.1,1.1-0.2c-0.4,0-0.8,0-1.2,0c-0.8,0.1-1.8,0.2-3.2,0.3c-2.7,0.3-6.4,0.8-10.4,1.3s-7.8,1-10.4,1.4l-3.1,0.5
		C463.8,431.4,463.4,431.5,463,431.7z"/>
	<path class="st0" d="M410.5,163.7l22.5,17.1c0,0,20.9-35.7,22.8-37.9s6.5-4.6,6.5-4.6l-2.6,45.7c0,0-11.3,28.9-26.8,27.3
		c-11.9-1.2-32.4-32.6-32.4-32.6L410.5,163.7z"/>
	<g class="st1">
		<path d="M432.6,180.2c-3.1,4.9-4,10.9-2.3,16.4c0.1,0.6,0.4,1.1,0.9,1.4c0.8,0.4,1.8,0,2.3-0.8c0.4-0.8,0.6-1.7,0.6-2.5
			c0.4,0.8,0.9,1.6,1.7,2.2c0.8,0.6,1.8,0.5,2.5-0.1c0.7-0.8,0.3-2.1-0.1-3.1c-1.9-4.3-3.8-8.7-5.7-13"/>
	</g>
	<path class="st2" d="M416.2,168.8c0.1,0.1-2.2,3.9-5.1,8.6s-5.5,8.4-5.6,8.3s2.2-4,5.1-8.6S416,168.7,416.2,168.8z"/>
	<path class="st2" d="M410.5,168.2c-0.1,0,0.2-0.4,0.7-0.1c0.3,0.1,0.5,0.4,0.6,0.7c0.1,0.5-0.2,1.1-0.8,1.2c-0.3,0.1-0.7,0-0.9-0.3
		c-0.2-0.2-0.3-0.6-0.2-0.9C410,168.2,410.4,168.1,410.5,168.2c0,0.1-0.2,0.3-0.2,0.6s0.3,0.7,0.7,0.4c0.2-0.1,0.3-0.4,0.2-0.6
		c0-0.1-0.1-0.2-0.2-0.2C410.8,168.2,410.5,168.3,410.5,168.2z"/>
	<path class="st2" d="M433,191.6c-0.7-1.7-1.1-3.5-1-5.4c0-3.1,0.7-5.5,0.9-5.4s-0.3,2.4-0.3,5.4S433.2,191.6,433,191.6z"/>
	<path class="st2" d="M437.4,191.4c-0.1,0.1-1.6-2.1-2.9-5.1c-0.9-1.8-1.4-3.6-1.7-5.6c0.2-0.1,1,2.4,2.3,5.3
		S437.5,191.4,437.4,191.4z"/>
	<path class="st0" d="M509.3,134l-3.4-6.7h-24.6l-3.9,7.6l-15.2,3.4l-6.5,97.9c0,1.2,0.3,2.5,0.9,3.6l0,0l59.7,2.2l2.4,1
		c2.1-1.3,0.8-6.8,0.8-9.3l0.8-48.5l11.8-38.7L509.3,134z"/>
	<g class="st1">
		<path d="M483.9,137.4l4.3-4.4c1.6,3.9,3.3,7.9,4.9,11.8c5.6-3.3,11-7,16-11.2l-16.5,5.3c-1.4-3.7-2.8-7.4-4.2-11.1
			c-1,3.4-2.4,6.6-4.2,9.6"/>
	</g>
	<path class="st0" d="M553.1,256.7l-16.1,0.8v-46.2l-16.6-26.1l11.8-38.7c2.4,1,20.8,47,25.4,59.5c0.7,1.8,1,3.7,0.9,5.6
		L553.1,256.7z"/>
	<path class="st2" d="M462.3,158.5c0.2,0-0.6,9.5-1.8,21.1s-2.2,21.1-2.4,21.1s0.6-9.5,1.8-21.1S462.1,158.5,462.3,158.5z"/>
	<path class="st2" d="M488.3,127.8c-0.8,2.7-1.8,5.3-2.9,7.9l-0.3,0.8c-0.1,0.3-0.3,0.6-0.5,0.8c-0.3,0.2-0.7,0.2-1.1,0.1
		c-0.2-0.1-0.5-0.3-0.7-0.4l-2.2-1.5c-0.7-0.4-1.4-0.9-2-1.5c0.8,0.3,1.5,0.7,2.2,1.1l2.3,1.4c0.4,0.3,0.9,0.6,1.1,0.4
		c0.3-0.4,0.5-0.9,0.7-1.4C486.6,131.2,488.2,127.8,488.3,127.8z"/>
	<path class="st2" d="M507.9,133.8c-1.2,0.6-2.5,1.1-3.8,1.5c-2.4,0.9-5.6,2-9.2,3.2l-2,0.7l-0.3,0.1l-0.1-0.3
		c-1.3-3.1-2.4-5.8-3.1-7.7c-0.5-1-0.8-2.1-1.1-3.2c0.6,1,1.1,2,1.5,3c0.9,1.9,2,4.6,3.3,7.7l-0.4-0.2l2-0.7
		c3.6-1.2,6.9-2.3,9.3-3.1C505.2,134.4,506.5,134.1,507.9,133.8z"/>
	<path class="st2" d="M529.6,147.9c0,0.2-3.4,1.1-7.4,2.9s-7,3.7-7.1,3.6c0.6-0.6,1.2-1.1,1.9-1.4c3.2-2,6.7-3.6,10.4-4.6
		C528.1,148,528.8,147.9,529.6,147.9z"/>
	<path class="st2" d="M488.3,127.8c0,0.1,0,0.2,0,0.3c0,0.2,0,0.5,0,0.9c0,0.8,0.1,1.9,0.1,3.3c0,2.9,0,7-0.2,12.2
		c-0.4,10.3-1.6,24.4-3.7,39.9c-1,7.8-2.1,15.2-2.8,21.9c-0.7,6-1,12-1,18c0.1,4,0.4,8.1,1,12.1c0.2,1.4,0.4,2.5,0.5,3.3
		c0,0.4,0.1,0.6,0.1,0.9c0,0.1,0,0.2,0,0.3c0-0.1-0.1-0.2-0.1-0.3c0-0.2-0.1-0.5-0.2-0.8c-0.1-0.7-0.4-1.8-0.6-3.3
		c-0.7-4-1.1-8.1-1.1-12.1c-0.1-6,0.2-12,0.8-18c0.7-6.8,1.8-14.1,2.8-21.9c2-15.5,3.4-29.6,3.9-39.9c0.3-5.1,0.3-9.3,0.4-12.1
		c0-1.4,0-2.5,0-3.3c0-0.3,0-0.6,0-0.9C488.2,128,488.2,127.9,488.3,127.8z"/>
	<path class="st2" d="M554,249.6c0,0.2-3.8,0.1-8.5-0.1s-8.5-0.6-8.5-0.7s3.8-0.1,8.5,0.1C548.3,249,551.2,249.2,554,249.6z"/>
	<path class="st2" d="M539.7,251.4c0,0.1,0,0.2,0,0.4s0.3,0.3,0.5,0.2s0.1-0.4-0.1-0.5S539.8,251.5,539.7,251.4
		c-0.1-0.1,0.1-0.4,0.5-0.3c0.3,0,0.5,0.2,0.6,0.5c0.1,0.3,0,0.7-0.3,0.9c-0.3,0.3-0.7,0.3-1,0.1c-0.2-0.2-0.3-0.4-0.3-0.7
		C539.4,251.5,539.7,251.4,539.7,251.4z"/>
	<g class="st1">
		<path d="M520.6,185.1l-5.2-9.5c-2.1,16.7-0.9,33.7,3.5,49.9l1.6-40.3"/>
	</g>
	<path class="st2" d="M494,167.7c0.3-0.1,0.7-0.1,1-0.1l2.8-0.1c2.4-0.1,5.9-0.1,10.2-0.1h0.3v0.3c-0.3,3.7-0.6,8-0.9,12.5v0.2
		l-0.1,0.1l-0.6,0.3l-6.8,3.6l-0.2,0.1l-0.1-0.1l-6.4-5.2l-0.1-0.1V179c0.3-3.4,0.5-6.2,0.7-8.3c0.1-0.9,0.2-1.6,0.2-2.3
		C493.9,168.2,493.9,167.9,494,167.7c0,0.3,0,0.6,0,0.9c0,0.6-0.1,1.4-0.1,2.3c-0.1,2-0.3,4.8-0.5,8.2l-0.1-0.2l6.4,5.1h-0.3
		l6.8-3.6l0.6-0.3l-0.2,0.2c0.4-4.6,0.7-8.8,1-12.5l0.3,0.3c-4.1,0-7.5-0.1-10-0.1l-2.9-0.1C494.7,167.8,494.3,167.7,494,167.7z"/>
	<path class="st2" d="M464.5,240.2c0,0.2-1.3-0.1-2.1-1.3s-0.6-2.4-0.4-2.4s0.2,1,0.9,2S464.5,240.1,464.5,240.2z"/>
	<path class="st2" d="M466,239.6c-1.7-1.5-2.3-3.9-1.5-6c0.2,0,0,1.4,0.4,3.1S466.1,239.5,466,239.6z"/>
	<path class="st2" d="M511.1,232.9c0.1,0,0.3,2.4-0.9,4.9s-3.1,4-3.2,3.9s1.5-1.7,2.6-4.1S510.9,232.8,511.1,232.9z"/>
	<path class="st7" d="M409.3,165.6c0,0-18.2-13.8-20.7-14.7c-4.2-1.5-5.3-1.1-5.3-1.1l10,10.7c0,0-10.5,3.6-11.3,4s-1.1,2.7,1.4,2.7
		c2.1,0,12.2,0.2,12.2,0.2l8.3,6.1L409.3,165.6z"/>
</g>
<g id="freepik--speech-bubble--inject-249">
	<path class="st2" d="M570.1,46.9c0.2,0,0.4,0,0.6,0l1.8,0c0.4,0,0.8,0,1.3,0l1.5,0.2l1.8,0.3l2,0.5c3.5,0.9,6.8,2.4,9.8,4.3
		c9.1,5.7,15,15.4,16,26.1c0.1,1.6,0.2,3.2,0.1,4.8c-0.1,0.8,0,1.6-0.2,2.4s-0.3,1.6-0.4,2.4c-0.6,3.4-1.7,6.6-3.3,9.7
		c-1.7,3.2-3.8,6.1-6.3,8.7c-2.7,2.6-5.7,4.8-9.1,6.5c-3.5,1.8-7.2,2.9-11.1,3.4c-1,0.2-2,0.2-3,0.3c-1,0.1-2,0.1-3,0
		c-2-0.1-4-0.3-6-0.8c-4.2-0.9-8.3-2.6-11.9-5h0.4l-12.2,4.9l-0.7,0.3l0.2-0.8c1.2-4.5,2.4-8.8,3.6-13l0.1,0.3
		c-3.3-4.4-5.5-9.5-6.5-14.8c-0.5-2.5-0.6-5.1-0.5-7.6c0-1.2,0.1-2.5,0.3-3.7c0.1-0.6,0.2-1.2,0.3-1.8s0.3-1.2,0.4-1.7
		c2-8,6.8-15,13.5-19.8c2.5-1.7,5.2-3.1,8.1-4.2c0.6-0.2,1.2-0.5,1.8-0.7l1.7-0.4l1.6-0.4c0.5-0.1,1-0.2,1.5-0.2
		c0.9-0.1,1.7-0.3,2.4-0.3l1.8-0.1h1.1C569.9,46.9,570,46.9,570.1,46.9c-0.1,0-0.2,0.1-0.4,0.1l-1.1,0.1l-1.8,0.1
		c-0.7,0.1-1.5,0.2-2.4,0.4c-13.5,2.3-24.3,12.4-27.6,25.6c-0.1,0.6-0.3,1.1-0.4,1.7s-0.2,1.2-0.3,1.8c-0.2,1.2-0.3,2.4-0.3,3.6
		c-0.1,2.5,0,5,0.5,7.4c1,5.3,3.2,10.2,6.4,14.5l0.1,0.2v0.2c-1.1,4.2-2.3,8.5-3.5,13l-0.5-0.4l12.1-4.9l0.2-0.1l0.2,0.1
		c3.5,2.3,7.5,4,11.7,4.9c1.9,0.4,3.9,0.7,5.8,0.7c1,0,2,0,2.9-0.1c1,0,1.9-0.1,2.9-0.2c3.8-0.5,7.5-1.6,10.8-3.3
		c3.3-1.7,6.3-3.8,8.9-6.4c2.5-2.5,4.6-5.4,6.2-8.5c1.5-3,2.7-6.2,3.3-9.5c0.1-0.8,0.3-1.6,0.4-2.4s0.1-1.6,0.2-2.4
		c0.1-1.6,0.1-3.1-0.1-4.7c-0.9-10.5-6.7-20-15.5-25.8c-3-2-6.2-3.4-9.7-4.4l-2-0.5l-1.8-0.3l-1.5-0.3c-0.5,0-0.9-0.1-1.3-0.1
		l-1.8-0.1C570.5,47,570.3,47,570.1,46.9z"/>
	<path class="st10" d="M581.5,90c-0.1,0-0.3,0-0.4,0H580l-4.4,0.1l-14.7,0.1h-0.1v-0.1c-0.1-0.8-0.2-1.6-0.4-2.4
		c-1-7.1-1.9-13.5-2.5-17.6l0.1,0.1h-3.9h-1h-0.4c0.1,0,0.2,0,0.4,0h1L558,70h0.1v0.1c0.6,4.2,1.6,10.5,2.6,17.6l0.3,2.4l-0.1-0.1
		h14.7l4.4,0h1.2C581.3,90,581.4,90,581.5,90z"/>
	<path class="st10" d="M561.2,90.4L561.2,90.4h-0.5l-0.1-0.5l0,0l0,0v-0.1l-0.3-2l-2.5-17.5H553c-0.4,0-0.5,0-0.5-0.1v-0.1l0,0
		c0,0,0,0,0.5-0.1h1l3.7-0.1v-0.1l0.1,0.1h0.3v0.2c0,0.1,0,0.1,0,0.2l0.1,0.1h-0.1c0.6,4.2,1.5,10.4,2.6,17.3L561,90h14.4h5.6
		c0.5,0,0.5,0,0.5,0.2s0,0.1-0.5,0.2h-1.2l-4.4,0.1l-14.4,0.1L561.2,90.4z M561.2,90.1L561.2,90.1h3.9H561.2z M559.9,83l1,6.8l0,0
		l-0.3-2.2C560.3,86.1,560.1,84.5,559.9,83z"/>
	<path class="st10" d="M560.3,85.8h0.4h1.2l4.4-0.1l15.2-0.1l-0.1,0.1c0.4-2.6,0.9-5.3,1.4-8.2c0.3-1.5,0.5-2.9,0.7-4.3l0.1,0.2
		l-18,0.1H559h-0.4l0,0h0.4h1.4l5.3-0.1l18-0.2h0.2v0.2c-0.2,1.4-0.5,2.8-0.7,4.3c-0.5,2.9-1,5.6-1.4,8.2V86h-0.1h-15.2H562h-1.2
		h-0.4L560.3,85.8z"/>
	<path class="st10" d="M566.3,86h-5.9c-0.1,0-0.2,0-0.2-0.1s0.1-0.1,0.2-0.1h1.5l4.4-0.1l15-0.1l1.4-8c0.2-1.4,0.5-2.7,0.7-4
		l-17.6,0.1h-7.1c-0.1,0-0.3,0-0.3-0.1s0.1-0.1,0.3-0.1h1.8l5.3-0.1l17.7-0.2l0,0l0,0h0.6l-0.1,0.5l0,0l0,0l-2,12l0,0l0,0l-0.1,0.5
		h-0.5l0,0l0,0L566.3,86z M581.3,85.7h-2.2H581.3z M583.6,73.4c-0.2,1.3-0.5,2.7-0.7,4l-1.3,8l0,0L583.6,73.4L583.6,73.4z
		 M583.4,73.2H579H583.4z"/>
	<path class="st10" d="M566.1,95.7c0,0,0-0.2-0.1-0.5c-0.1-0.4-0.4-0.8-0.8-1.1c-0.5-0.4-1.2-0.5-1.8-0.2c-0.8,0.3-1.3,1-1.3,1.8
		c0,0.8,0.5,1.5,1.3,1.8c0.6,0.2,1.3,0.1,1.8-0.3c0.4-0.3,0.6-0.6,0.8-1.1C566.1,95.9,566.1,95.7,566.1,95.7c0,0.2,0,0.3,0,0.5
		c-0.1,0.5-0.4,0.9-0.7,1.2c-0.9,0.8-2.3,0.6-3.1-0.3c-0.8-0.9-0.6-2.3,0.3-3.1c0.2-0.2,0.4-0.3,0.6-0.4c0.7-0.3,1.5-0.1,2.1,0.3
		c0.4,0.3,0.6,0.7,0.8,1.2C566.2,95.5,566.1,95.7,566.1,95.7z"/>
	<path class="st10" d="M564,98c-0.3,0-0.5,0-0.7-0.1c-0.9-0.3-1.6-1.2-1.6-2.2c0-1.3,1-2.3,2.3-2.3c0.5,0,1,0.2,1.4,0.5
		c0.4,0.3,0.7,0.8,0.8,1.3c0,0.2,0,0.4,0,0.5c0,0.2,0,0.4,0,0.5c-0.1,0.5-0.4,1-0.8,1.3C565,97.8,564.5,98,564,98z M563.6,93.7
		l-0.3,0.1c-1.1,0.4-1.6,1.6-1.2,2.6c0.2,0.6,0.7,1,1.2,1.2l0.3,0.1l-0.3-0.1c-1.1-0.4-1.6-1.6-1.2-2.6c0.2-0.6,0.7-1,1.2-1.2
		L563.6,93.7z M564,93.9c-0.2,0-0.4,0-0.7,0.1c-0.7,0.3-1.2,0.9-1.2,1.7c0,1,0.8,1.8,1.8,1.8c0.4,0,0.8-0.1,1.1-0.4
		c0.3-0.3,0.6-0.6,0.7-1c0-0.1,0.1-0.2,0.1-0.4c0,0,0-0.1,0-0.1c0,0,0-0.1,0-0.1c0-0.1,0-0.2-0.1-0.4c-0.1-0.4-0.4-0.8-0.7-1
		C564.8,94,564.4,93.9,564,93.9L564,93.9z"/>
	<path class="st10" d="M579.4,95.6c0,0,0-0.2-0.1-0.5c-0.1-0.4-0.4-0.8-0.8-1.1c-0.9-0.6-2.2-0.4-2.8,0.6c-0.2,0.3-0.3,0.7-0.3,1
		c0,0.8,0.5,1.5,1.3,1.8c0.6,0.2,1.3,0.1,1.8-0.3c0.4-0.3,0.6-0.6,0.8-1.1C579.4,95.8,579.4,95.6,579.4,95.6c0,0.2,0,0.3,0,0.5
		c-0.1,0.5-0.3,0.9-0.7,1.2c-0.9,0.7-2.3,0.6-3.1-0.4c-0.7-0.9-0.6-2.3,0.4-3.1c0.8-0.6,1.9-0.6,2.7,0c0.4,0.3,0.6,0.7,0.8,1.2
		C579.4,95.3,579.4,95.4,579.4,95.6z"/>
	<path class="st10" d="M577.3,97.9c-0.3,0-0.5,0-0.8-0.1c-1.2-0.4-1.9-1.7-1.5-2.9s1.7-1.9,2.9-1.5c0.3,0.1,0.5,0.2,0.7,0.4
		c0.4,0.3,0.7,0.8,0.8,1.3c0,0.2,0,0.4,0,0.5c0,0.2,0,0.4,0,0.5C579.3,97.2,578.3,97.9,577.3,97.9L577.3,97.9z M576.8,93.6l-0.2,0.1
		c-1.1,0.4-1.6,1.6-1.2,2.6c0.2,0.6,0.7,1,1.2,1.2l0.3,0.1l-0.3-0.1c-1.1-0.4-1.6-1.6-1.2-2.7c0.2-0.6,0.7-1,1.2-1.2L576.8,93.6z
		 M577.3,93.8c-0.2,0-0.4,0-0.7,0.1c-0.9,0.4-1.4,1.4-1,2.4c0.4,0.9,1.4,1.4,2.4,1c0.2-0.1,0.3-0.1,0.4-0.2c0.3-0.3,0.6-0.6,0.7-1
		c0-0.1,0.1-0.2,0.1-0.4c0,0,0-0.1,0-0.1c0,0,0-0.1,0-0.1c0-0.1,0-0.2-0.1-0.4c-0.1-0.4-0.4-0.8-0.7-1
		C578.1,93.9,577.7,93.8,577.3,93.8L577.3,93.8z"/>
</g>
<g id="freepik--Money--inject-277">
	<rect x="604" y="414" class="st2" width="52.7" height="11.4"/>
	<polygon class="st12" points="624.9,414 625.8,425.4 633.2,425.4 633.6,414 	"/>
	<rect x="591.3" y="414" class="st10" width="52.7" height="11.4"/>
	<path class="st2" d="M643.8,415.8c0,0.1-11.7,0.3-26.2,0.3s-26.2-0.1-26.2-0.3s11.7-0.3,26.2-0.3S643.8,415.6,643.8,415.8z"/>
	<path class="st2" d="M643.7,418.4c0,0.1-11.7,0.3-26.2,0.3s-26.2-0.1-26.2-0.3s11.7-0.3,26.2-0.3S643.7,418.2,643.7,418.4z"/>
	<path class="st2" d="M643.7,421c0,0.1-11.7,0.3-26.2,0.3s-26.2-0.1-26.2-0.3s11.7-0.3,26.2-0.3S643.7,420.8,643.7,421z"/>
	<path class="st2" d="M643.7,423.6c0,0.1-11.7,0.3-26.2,0.3s-26.2-0.1-26.2-0.3s11.7-0.3,26.2-0.3S643.7,423.5,643.7,423.6z"/>
	<polygon class="st12" points="612.2,414 613,425.4 620.5,425.4 620.9,414 	"/>
	<rect x="610.4" y="402.7" class="st2" width="52.7" height="11.4"/>
	<polygon class="st12" points="631.3,402.7 632.2,414.1 639.6,414.1 640,402.7 	"/>
	<rect x="597.7" y="402.7" class="st10" width="52.7" height="11.4"/>
	<path class="st2" d="M650.1,404.5c0,0.1-11.7,0.3-26.2,0.3s-26.2-0.1-26.2-0.3s11.7-0.3,26.2-0.3S650.1,404.3,650.1,404.5z"/>
	<path class="st2" d="M650.1,407.1c0,0.1-11.7,0.3-26.2,0.3s-26.2-0.1-26.2-0.3s11.7-0.3,26.2-0.3S650.1,407,650.1,407.1z"/>
	<path class="st2" d="M650.1,409.7c0,0.1-11.7,0.3-26.2,0.3s-26.2-0.1-26.2-0.3s11.7-0.3,26.2-0.3S650.1,409.6,650.1,409.7z"/>
	<path class="st2" d="M650.1,412.3c0,0.1-11.7,0.3-26.2,0.3s-26.2-0.1-26.2-0.3s11.7-0.3,26.2-0.3S650.1,412.2,650.1,412.3z"/>
	<polygon class="st12" points="618.6,402.7 619.4,414.1 626.9,414.1 627.2,402.7 	"/>
	<rect x="606.9" y="436.7" class="st2" width="52.7" height="11.4"/>
	<polygon class="st12" points="627.8,436.6 628.6,448 636.1,448 636.4,436.6 	"/>
	<rect x="594.1" y="436.6" class="st10" width="52.7" height="11.4"/>
	<path class="st2" d="M646.6,438.4c0,0.1-11.7,0.3-26.2,0.3s-26.2-0.1-26.2-0.3s11.7-0.3,26.2-0.3S646.6,438.3,646.6,438.4z"/>
	<path class="st2" d="M646.6,441c0,0.1-11.7,0.3-26.2,0.3s-26.2-0.1-26.2-0.3s11.7-0.3,26.2-0.3S646.6,440.9,646.6,441z"/>
	<path class="st2" d="M646.6,443.6c0,0.1-11.7,0.3-26.2,0.3s-26.2-0.1-26.2-0.3s11.7-0.3,26.2-0.3S646.6,443.5,646.6,443.6z"/>
	<path class="st2" d="M646.6,446.3c0,0.1-11.7,0.3-26.2,0.3s-26.2-0.1-26.2-0.3s11.7-0.3,26.2-0.3S646.6,446.1,646.6,446.3z"/>
	<polygon class="st12" points="615,436.6 615.9,448 623.3,448 623.7,436.6 	"/>
	<rect x="613.2" y="425.4" class="st2" width="52.7" height="11.4"/>
	<polygon class="st12" points="634.1,425.4 635,436.8 642.5,436.8 642.8,425.4 	"/>
	<rect x="600.5" y="425.4" class="st10" width="52.7" height="11.4"/>
	<path class="st2" d="M652.9,427.2c0,0.1-11.7,0.3-26.2,0.3s-26.2-0.1-26.2-0.3s11.7-0.3,26.2-0.3S652.9,427,652.9,427.2z"/>
	<path class="st2" d="M652.9,429.8c0,0.1-11.7,0.3-26.2,0.3s-26.2-0.1-26.2-0.3s11.7-0.3,26.2-0.3S652.9,429.6,652.9,429.8z"/>
	<path class="st2" d="M652.9,432.4c0,0.1-11.7,0.3-26.2,0.3s-26.2-0.1-26.2-0.3s11.7-0.3,26.2-0.3S652.9,432.2,652.9,432.4z"/>
	<path class="st2" d="M652.9,435c0,0.1-11.7,0.3-26.2,0.3s-26.2-0.1-26.2-0.3s11.7-0.3,26.2-0.3S652.9,434.8,652.9,435z"/>
	<polygon class="st12" points="621.4,425.4 622.2,436.8 629.7,436.8 630.1,425.4 	"/>
	<rect x="571.4" y="425.3" class="st6" width="52.7" height="11.4"/>
	<rect x="571.4" y="425.3" class="st13" width="52.7" height="11.4"/>
	<polygon class="st12" points="592.3,425.3 593.2,436.7 600.6,436.7 601,425.3 	"/>
	<rect x="565.6" y="436.7" class="st6" width="52.7" height="11.4"/>
	<rect x="565.6" y="436.7" class="st13" width="52.7" height="11.4"/>
	<polygon class="st12" points="586.6,436.6 587.4,448 594.9,448 595.2,436.6 	"/>
	<rect x="552.9" y="436.7" class="st6" width="52.7" height="11.4"/>
	<g class="st1">
		<path d="M605.4,438.4c0,0.1-11.7,0.3-26.2,0.3s-26.2-0.1-26.2-0.3s11.7-0.3,26.2-0.3S605.4,438.3,605.4,438.4z"/>
	</g>
	<g class="st1">
		<path d="M605.3,441c0,0.1-11.7,0.3-26.2,0.3S553,441.2,553,441s11.7-0.3,26.2-0.3S605.3,440.9,605.3,441z"/>
	</g>
	<g class="st1">
		<path d="M605.3,443.6c0,0.1-11.7,0.3-26.2,0.3s-26.2-0.1-26.2-0.3s11.7-0.3,26.2-0.3S605.3,443.5,605.3,443.6z"/>
	</g>
	<g class="st1">
		<path d="M605.3,446.3c0,0.1-11.7,0.3-26.2,0.3s-26.2-0.1-26.2-0.3s11.7-0.3,26.2-0.3S605.3,446.1,605.3,446.3z"/>
	</g>
	<polygon class="st12" points="573.8,436.6 574.6,448 582.1,448 582.5,436.6 	"/>
	<rect x="560.5" y="425.3" class="st6" width="52.7" height="11.4"/>
	<g class="st1">
		<path d="M613,427c0,0.1-11.7,0.3-26.2,0.3s-26.2-0.1-26.2-0.3s11.7-0.3,26.2-0.3S613,426.9,613,427z"/>
	</g>
	<g class="st1">
		<path d="M612.9,429.7c0,0.1-11.7,0.3-26.2,0.3s-26.2-0.1-26.2-0.3s11.7-0.3,26.2-0.3S612.9,429.5,612.9,429.7z"/>
	</g>
	<g class="st1">
		<path d="M612.9,432.3c0,0.1-11.7,0.3-26.2,0.3s-26.2-0.1-26.2-0.3s11.7-0.3,26.2-0.3S612.9,432.1,612.9,432.3z"/>
	</g>
	<g class="st1">
		<path d="M612.9,434.9c0,0.1-11.7,0.3-26.2,0.3s-26.2-0.1-26.2-0.3s11.7-0.3,26.2-0.3S612.9,434.7,612.9,434.9z"/>
	</g>
	<polygon class="st12" points="581.4,425.3 582.2,436.7 589.7,436.7 590.1,425.3 	"/>
	<rect x="622.8" y="390.8" class="st2" width="52.7" height="11.4"/>
	<polygon class="st12" points="643.7,390.8 644.6,402.2 652.1,402.2 652.4,390.8 	"/>
	<rect x="610.1" y="390.8" class="st10" width="52.7" height="11.4"/>
	<path class="st2" d="M662.6,392.5c0,0.1-11.7,0.3-26.2,0.3s-26.2-0.1-26.2-0.3s11.7-0.3,26.2-0.3
		C650.8,392.3,662.6,392.4,662.6,392.5z"/>
	<path class="st2" d="M662.5,395.2c0,0.1-11.7,0.3-26.2,0.3s-26.2-0.1-26.2-0.3s11.7-0.3,26.2-0.3S662.5,395,662.5,395.2z"/>
	<path class="st2" d="M662.5,397.8c0,0.1-11.7,0.3-26.2,0.3s-26.2-0.1-26.2-0.3c0-0.2,11.7-0.3,26.2-0.3S662.5,397.6,662.5,397.8z"
		/>
	<path class="st2" d="M662.5,400.4c0,0.1-11.7,0.3-26.2,0.3s-26.2-0.1-26.2-0.3s11.7-0.3,26.2-0.3S662.5,400.2,662.5,400.4z"/>
	<polygon class="st14" points="631,390.8 631.8,402.2 639.3,402.2 639.7,390.8 	"/>
	<rect x="616.4" y="379.5" class="st2" width="52.7" height="11.4"/>
	<polygon class="st12" points="637.3,379.5 638.2,390.9 645.6,390.9 646,379.5 	"/>
	<rect x="603.7" y="379.5" class="st10" width="52.7" height="11.4"/>
	<path class="st2" d="M656.2,381.3c0,0.2-11.7,0.3-26.2,0.3s-26.2-0.1-26.2-0.3c0-0.1,11.7-0.3,26.2-0.3S656.2,381.1,656.2,381.3z"
		/>
	<path class="st2" d="M656.1,383.9c0,0.1-11.7,0.3-26.2,0.3c-14.5,0-26.2-0.1-26.2-0.3s11.7-0.3,26.2-0.3S656.1,383.8,656.1,383.9z"
		/>
	<path class="st2" d="M656.1,386.5c0,0.1-11.7,0.3-26.2,0.3c-14.5,0-26.2-0.1-26.2-0.3s11.7-0.3,26.2-0.3S656.1,386.3,656.1,386.5z"
		/>
	<path class="st2" d="M656.1,389.1c0,0.2-11.7,0.3-26.2,0.3c-14.5,0-26.2-0.1-26.2-0.3c0-0.1,11.7-0.3,26.2-0.3
		S656.1,389,656.1,389.1z"/>
	<polygon class="st14" points="624.6,379.5 625.4,390.9 632.9,390.9 633.3,379.5 	"/>
</g>
</svg>
