<svg xmlns="http://www.w3.org/2000/svg" width="837" height="25" viewBox="0 0 837 25"><defs><mask id="rarvb" width="2" height="2" x="-1" y="-1"><path fill="#fff" d="M-76 0h971v24H-76z"/><path d="M422.338 21.382v-.013C418.832 23.013 414.366 24 409.5 24c-4.866 0-9.332-.986-12.838-2.63v.013c-8.306-3.928-9.957-9.086-56.636-13.964C269.596.058-70.687 0-76 0h483.235v.074A35.5 35.5 0 0 1 409.5 0a35.5 35.5 0 0 1 2.265.074V0H895c-5.313 0-345.596.058-416.026 7.418-46.68 4.878-48.33 10.036-56.636 13.964z"/></mask><filter id="rarva" width="991" height="45" x="-86" y="-10" filterUnits="userSpaceOnUse"><feOffset dy="1" in="SourceGraphic" result="FeOffset1065Out"/><feGaussianBlur in="FeOffset1065Out" result="FeGaussianBlur1066Out" stdDeviation="0 0"/></filter></defs><g><g><g filter="url(#rarva)"><path fill="none" d="M422.338 21.382v-.013C418.832 23.013 414.366 24 409.5 24c-4.866 0-9.332-.986-12.838-2.63v.013c-8.306-3.928-9.957-9.086-56.636-13.964C269.596.058-70.687 0-76 0h483.235v.074A35.5 35.5 0 0 1 409.5 0a35.5 35.5 0 0 1 2.265.074V0H895c-5.313 0-345.596.058-416.026 7.418-46.68 4.878-48.33 10.036-56.636 13.964z" mask="url(&quot;#rarvb&quot;)"/><path fill="#dfdfdf" d="M422.338 21.382v-.013C418.832 23.013 414.366 24 409.5 24c-4.866 0-9.332-.986-12.838-2.63v.013c-8.306-3.928-9.957-9.086-56.636-13.964C269.596.058-70.687 0-76 0h483.235v.074A35.5 35.5 0 0 1 409.5 0a35.5 35.5 0 0 1 2.265.074V0H895c-5.313 0-345.596.058-416.026 7.418-46.68 4.878-48.33 10.036-56.636 13.964z"/></g><path fill="#fff" d="M422.338 21.382v-.013C418.832 23.013 414.366 24 409.5 24c-4.866 0-9.332-.986-12.838-2.63v.013c-8.306-3.928-9.957-9.086-56.636-13.964C269.596.058-70.687 0-76 0h483.235v.074A35.5 35.5 0 0 1 409.5 0a35.5 35.5 0 0 1 2.265.074V0H895c-5.313 0-345.596.058-416.026 7.418-46.68 4.878-48.33 10.036-56.636 13.964z"/></g></g></svg>