<?xml version="1.0" encoding="utf-8"?>
<!-- Generator: Adobe Illustrator 24.0.1, SVG Export Plug-In . SVG Version: 6.00 Build 0)  -->
<svg version="1.1" id="Layer_1" xmlns="http://www.w3.org/2000/svg" xmlns:xlink="http://www.w3.org/1999/xlink" x="0px" y="0px"
	 viewBox="0 0 500 500" style="enable-background:new 0 0 500 500;" xml:space="preserve">
<style type="text/css">
	.st0{fill:#FFC9B6;}
	.st1{fill:#F5F5F5;}
	.st2{fill:#263238;}
	.st3{fill:#455A64;}
	.st4{fill:#37474F;}
	.st5{fill:#E0E0E0;}
	.st6{fill:#FFFFFF;}
	.st7{fill:#E6E6E6;}
	.st8{fill:#FFB400;}
	.st9{fill:#604A57;}
	.st10{fill:#3A2934;}
	.st11{opacity:0.5;fill:#FFDEF1;}
	.st12{fill:#5400FF;}
	.st13{opacity:0.1;enable-background:new    ;}
	.st14{fill:#FFA8A7;}
	.st15{fill:#F28F8F;}
	.st16{opacity:0.1;}
	.st17{fill:#290484;}
	.st18{fill:#996B04;}
	.st19{fill:#FEC76E;}
	.st20{fill:#98B1B7;}
	.st21{fill:#5E757C;}
	.st22{fill:#475960;}
</style>
<g>
	<path class="st0" d="M303.8,138.4c-3.4,3.1-10.3,11.1-13.4,13.8c-2.7,2.3-5.3,3.3-11.5,4.3c-5,0.8-16.5,0.4-16.6,0.3l-3.2,3.1
		c0.1,0,15.2,2.9,19.1,3c7.7,0.1,13.7-0.3,17.3-3.3c2.3-1.9,7.3-5.6,10-9.4c2.9-4.2,5.2-8.9,6.7-13.8
		C312.2,136.4,307.3,135.1,303.8,138.4z"/>
</g>
<g id="freepik--Floor--inject-5">
	<path id="freepik--floor--inject-5" class="st1" d="M406.9,281.6c-85.8-42.1-225-42.1-310.8,0s-85.8,110.4,0,152.5
		s225,42.1,310.8,0C492.7,392,492.7,323.7,406.9,281.6z"/>
</g>
<g id="freepik--Device--inject-5">
	<g id="freepik--device--inject-5">
		<path class="st2" d="M171.7,248.4c1.5,1,2.6,2.7,2.8,4.5l4.4,42.9c0.3,1.9,1.4,3.6,3,4.6l19.6,11.3c0.9,0.5,1.6,1.2,2.1,2.1
			c1.3,2.4,0.4,5.5-2.1,6.8l-54.6,31.5c-1.7,0.8-3.6,0.8-5.3,0l-25.5-14.7c-1.5-1-2.4-2.8-2.1-4.6l9.8-56.8c0.4-1.9,1.6-3.5,3.2-4.6
			l39.6-22.9C168.2,247.6,170.1,247.6,171.7,248.4z"/>
		<path class="st3" d="M194.2,313.3h8.9c0.6,0.8,1,1.8,1.1,2.9c-0.1,1.8-1.1,3.5-2.7,4.4l-54.6,31.5c-0.8,0.4-1.7,0.7-2.7,0.6v-10.6
			L194.2,313.3z"/>
		<path class="st2" d="M172.7,251c1,0,1.8,0.9,1.8,1.9l4.4,42.9c0.3,1.9,1.4,3.6,3,4.6l19.6,11.3c1.5,0.9,1.5,2.2,0,3.1l-54.6,31.5
			c-1.7,0.8-3.6,0.8-5.3,0L122,335c-1.5-1-2.4-2.8-2.1-4.6l9-51.6c0.4-1.9,1.6-3.5,3.2-4.6l39.6-22.9
			C171.9,251.1,172.3,251,172.7,251z"/>
		<path class="st4" d="M201.5,314.8l-54.6,31.5c-1.7,0.8-3.6,0.8-5.3,0L122,335c-0.8-0.5-1.4-1.2-1.8-2.1l59.7-34.5
			c0.5,0.8,1.2,1.5,1.9,2l19.6,11.3C203,312.6,203,313.9,201.5,314.8z"/>
		<path class="st3" d="M48.2,361.5l207.2-119.6c2.2-1.4,3.6-3.8,3.7-6.4V65.3c-0.1-2.6-1.5-5-3.7-6.5l-1.9-1.1
			c-2.3-1.2-5.1-1.2-7.5,0L38.2,177c-2.2,1.4-3.6,3.8-3.7,6.4v170.1c0.1,2.6,1.5,5,3.7,6.5l2.5,1.5C43,362.7,45.8,362.7,48.2,361.5z
			"/>
		<path class="st2" d="M49.4,360.8l-1.3,0.7c-2.3,1.2-5.1,1.2-7.4,0l-2.5-1.4c-2.2-1.4-3.6-3.8-3.7-6.5V183.5c0-1.3,0.4-2.6,1.1-3.7
			l13.9,8L49.4,360.8z"/>
		<path class="st4" d="M48.2,361.5l207.2-119.6c2.2-1.4,3.6-3.8,3.7-6.4V65.4c0-2.4-1.7-3.3-3.7-2.2L48.2,182.8
			c-2.2,1.4-3.6,3.8-3.7,6.4v170.1C44.4,361.7,46.1,362.7,48.2,361.5z"/>
		<path class="st5" d="M139.1,300.4c0,1.6,1.2,2.2,2.7,1.3l19.6-11.3c1.5-1,2.5-2.6,2.7-4.4c0-1.6-1.2-2.2-2.7-1.4L141.7,296
			C140.2,296.9,139.2,298.6,139.1,300.4z"/>
		<path class="st6" d="M51.9,191.7v147.9c0,1.4,0.9,1.9,2.1,1.2l195.1-112.7c1.3-0.8,2-2.2,2.1-3.7V76.3c0-1.4-0.9-1.9-2.1-1.2
			L54,188C52.7,188.9,51.9,190.2,51.9,191.7z"/>
		<g id="freepik--Tab--inject-5">
			<path class="st7" d="M57.5,197.5v131.1c0,1.7,1.2,2.5,2.7,1.6l183.3-105.8c1.6-1.1,2.6-2.8,2.7-4.8V90.9c0-3.8-2.7-5.3-5.9-3.4
				l-179,103.4C59,192.3,57.6,194.8,57.5,197.5z"/>
			<path class="st8" d="M57.5,203v-5.5c0.1-2.7,1.6-5.1,3.8-6.6l179-103.4c3.3-1.9,5.9-0.3,5.9,3.4V94L57.5,203z"/>
			<path class="st6" d="M223.4,102.2c-0.1,1.4-0.8,2.7-2,3.5c-1.1,0.7-2,0.1-2-1.2c0.1-1.4,0.8-2.7,2-3.5
				C222.6,100.4,223.5,100.9,223.4,102.2z"/>
			<path class="st6" d="M231.5,97.6c-0.1,1.4-0.8,2.7-2,3.5c-1.1,0.7-2,0.1-2-1.2c0.1-1.4,0.8-2.7,2-3.5
				C230.6,95.7,231.5,96.3,231.5,97.6z"/>
			<path class="st6" d="M239.6,92.9c-0.1,1.4-0.8,2.7-2,3.5c-1.1,0.7-2,0.1-2-1.2c0.1-1.4,0.8-2.7,2-3.5
				C238.7,91.1,239.6,91.6,239.6,92.9z"/>
		</g>
	</g>
</g>
<g>
	<polygon class="st9" points="243.4,150 174.4,189.9 174.4,173.4 243.4,133.5 	"/>
	<polygon class="st9" points="243.4,215.4 174.4,255.2 174.4,214.3 243.4,174.5 	"/>
	<polygon class="st9" points="243.4,129.5 174.4,169.3 174.4,141.4 243.4,101.6 	"/>
	<polygon class="st9" points="243.4,159.4 174.4,199.2 174.4,193.7 243.4,153.9 	"/>
	<polygon class="st9" points="243.4,169.2 174.4,209 174.4,203.5 243.4,163.7 	"/>
	<polygon class="st6" points="245.7,183.2 176.7,223.1 176.7,217.5 245.7,177.7 	"/>
	<polygon class="st6" points="245.7,192.4 176.7,232.3 176.7,226.7 245.7,186.9 	"/>
	<polygon class="st6" points="245.7,201.8 176.7,241.7 176.7,236.1 245.7,196.3 	"/>
	<polygon class="st6" points="241.2,213.5 176.7,250.7 176.7,245.2 241.2,207.9 	"/>
	<path class="st10" d="M236.8,149.1l-55.9,32.3c-1.4,0.8-2.6-0.1-2.6-2v0c0-1.9,1.2-4.2,2.6-5l55.9-32.3c1.4-0.8,2.6,0.1,2.6,2v0
		C239.5,146,238.3,148.2,236.8,149.1z"/>
</g>
<g>
	<g>
		<polygon class="st11" points="163.7,168.5 60.6,228.1 60.6,325.9 163.7,266.4 		"/>
		<polygon class="st12" points="163.7,147 60.6,206.6 60.6,228.1 163.7,168.5 		"/>
		<g>
			<path class="st6" d="M136.5,176.6c-0.3,0.2-0.5,0.3-0.7,0.4c-0.2,0.1-0.4,0.1-0.6,0.1c-0.2,0-0.3-0.1-0.5-0.2
				c-0.1-0.1-0.3-0.2-0.4-0.4c-0.8,1.5-2.1,2.9-3.7,4c-1,0.6-1.7,1-2.4,1.1c-0.6,0.1-1.1,0-1.4-0.5c-0.1-0.2-0.2-0.5-0.3-0.7
				c0-0.2-0.1-0.4-0.1-0.7c0-0.1,0-0.2,0-0.5c0-0.2,0-0.5,0.1-0.9c0.1-0.4,0.2-0.7,0.3-1.1l0.9,0.1c-0.1,0.2-0.2,0.5-0.2,0.7
				c-0.1,0.2-0.1,0.4-0.1,0.6c0,0.1,0,0.1,0,0.2c0,0.1,0,0.2,0,0.4c0,0.1,0.1,0.3,0.2,0.4c0.1,0.1,0.2,0.2,0.4,0.2
				c0.2,0,0.4,0,0.6-0.1c0.3-0.1,0.5-0.2,0.8-0.4c0.3-0.2,0.6-0.4,1-0.6c0.3-0.2,0.6-0.4,0.9-0.7c0.3-0.2,0.6-0.5,0.8-0.7
				c0.3-0.2,0.5-0.5,0.7-0.7c0.2-0.2,0.4-0.5,0.5-0.7c0.1-0.2,0.2-0.4,0.3-0.7c0.1-0.2,0.1-0.5,0.2-0.7c0.1-0.2,0.1-0.5,0.1-0.7
				s0.1-0.4,0.1-0.7l1.1-0.3c-0.1,0.2-0.1,0.5-0.1,0.7c0,0.2,0,0.4,0,0.6c0,0,0,0.1,0,0.2s0,0.2,0.1,0.4c0,0.1,0.1,0.3,0.2,0.3
				c0.1,0.1,0.2,0.1,0.4,0.1c0.2,0,0.3-0.1,0.6-0.3l0.2-0.1l0,1.5L136.5,176.6z M130.8,174.2l-0.8,1.5l-0.8-0.5l0.8-1.5L130.8,174.2
				z M132.6,173.1l-0.8,1.5l-0.8-0.5l0.8-1.5L132.6,173.1z"/>
			<path class="st6" d="M136.4,175.1l1-0.7c0.4-0.2,0.8-0.5,1.2-0.9c0.4-0.3,0.8-0.7,1.2-1.1c0.4-0.4,0.8-0.8,1.1-1.3
				c0.4-0.4,0.7-0.9,1-1.3c-0.3,0.1-0.5,0.2-0.7,0.2c-0.2,0-0.4,0-0.6,0.1s-0.4,0-0.6,0.1c-0.2,0-0.4,0.1-0.6,0.2
				c-0.1,0.1-0.2,0.2-0.3,0.3s-0.2,0.2-0.3,0.4c-0.1,0.1-0.1,0.3-0.2,0.4c-0.1,0.1-0.1,0.3-0.2,0.4c0,0.1-0.1,0.2-0.1,0.3
				c0,0.1,0,0.1-0.1,0.2l-1-0.2c0.1-0.3,0.2-0.6,0.4-0.9c0.1-0.3,0.3-0.6,0.5-0.9c0.2-0.3,0.4-0.6,0.6-0.8c0.2-0.2,0.4-0.4,0.6-0.6
				c0.2-0.2,0.5-0.3,0.7-0.3c0.2-0.1,0.5-0.1,0.7-0.1c0.2,0,0.5,0,0.7-0.1c0.2,0,0.5,0,0.7-0.1s0.5-0.1,0.7-0.2
				c0.2-0.1,0.5-0.2,0.7-0.3l-0.1,1.6c-0.4,0.5-0.9,1.1-1.3,1.7c-0.5,0.6-0.9,1.2-1.4,1.8c-0.5,0.6-1,1.1-1.6,1.7
				c-0.5,0.5-1.1,1-1.7,1.4l-1,0.7L136.4,175.1z M140.1,166.5l-0.9,1.7l-0.9-0.6l0.8-1.7L140.1,166.5z"/>
			<path class="st6" d="M145.4,161.3c0.1,0.7,0.2,1.4,0.2,2c0,0.7,0.1,1.3,0.1,2c0,0.5,0,1.1,0,1.5c0,0.5,0,0.9,0,1.3
				c0,0.4,0,0.8,0,1.1c0,0.4,0,0.7,0,1l-1.2,1c0-1.3,0-2.5,0-3.5c0-0.4,0-0.8,0-1.1c0-0.8-0.1-1.5-0.1-2.2c0-0.7-0.1-1.3-0.2-1.9
				L145.4,161.3z"/>
			<path class="st6" d="M147,167.3c0.1,0,0.3,0,0.4,0c0.2,0,0.3,0,0.5-0.1c0.2,0,0.4-0.1,0.5-0.1c0.2-0.1,0.3-0.1,0.4-0.2
				c0.1,0,0.1-0.1,0.2-0.1c0.1-0.1,0.2-0.1,0.2-0.2c0.1-0.1,0.2-0.1,0.3-0.2c0.1-0.1,0.2-0.2,0.2-0.3s0.1-0.2,0.2-0.3
				c0-0.1,0.1-0.2,0.1-0.3c0,0,0,0,0,0c0-0.2,0-0.3-0.1-0.5s-0.2-0.3-0.3-0.4c-0.1-0.1-0.3-0.3-0.4-0.4c-0.2-0.1-0.3-0.2-0.5-0.3
				c-0.2-0.1-0.3-0.2-0.5-0.2c-0.2-0.1-0.3-0.1-0.5-0.1l0.7-1.7c0.3,0.1,0.6,0.2,0.9,0.3c0.3,0.1,0.5,0.3,0.8,0.5
				c0.2,0.2,0.4,0.4,0.6,0.7c0.2,0.3,0.3,0.6,0.4,0.9c0,0.2,0.1,0.4,0.1,0.6c0,0.2,0,0.4-0.1,0.8c-0.1,0.3-0.2,0.7-0.4,1.1
				s-0.4,0.8-0.7,1.1c-0.3,0.3-0.5,0.5-0.9,0.7c-0.1,0-0.1,0.1-0.2,0.1c-0.2,0.1-0.4,0.2-0.6,0.3c-0.2,0.1-0.4,0.2-0.6,0.2
				c-0.2,0-0.4,0.1-0.6,0.1c-0.2,0-0.4,0-0.5,0L147,167.3z"/>
			<path class="st6" d="M155.3,164.3l-0.1,0.1c-0.1,0.1-0.2,0.1-0.3,0.2c-0.1,0.1-0.3,0.1-0.4,0c0,0.5-0.1,1.1-0.3,1.6
				c-0.2,0.6-0.4,1.2-0.7,1.7c-0.3,0.6-0.6,1.2-1,1.7c-0.4,0.6-0.7,1.1-1.1,1.6l-0.5-1c0.2-0.3,0.4-0.6,0.6-0.9
				c0.2-0.3,0.4-0.6,0.6-0.9c0.2-0.3,0.4-0.6,0.5-0.9s0.3-0.6,0.4-0.9c0.1-0.3,0.2-0.6,0.3-0.9c0.1-0.3,0.1-0.5,0.1-0.8
				c0-0.2,0-0.4-0.1-0.5c0-0.2-0.1-0.4-0.2-0.6c-0.1-0.2-0.1-0.4-0.2-0.6c-0.1-0.2-0.1-0.4-0.2-0.6l1.1-1.3c0.1,0.4,0.2,0.7,0.4,0.9
				c0.1,0.2,0.2,0.4,0.3,0.5c0.1,0.1,0.2,0.2,0.3,0.2c0.1,0,0.2,0,0.4-0.1l0.1-0.1L155.3,164.3z"/>
			<path class="st6" d="M155.1,162.9l1-0.6c0.1-0.1,0.3-0.2,0.5-0.3c0.2-0.1,0.3-0.3,0.5-0.4s0.3-0.3,0.3-0.5
				c0.1-0.2,0.1-0.4,0.1-0.6c0-0.1,0-0.2-0.1-0.4s-0.1-0.3-0.1-0.5c-0.1-0.2-0.1-0.4-0.2-0.6c-0.1-0.2-0.2-0.4-0.3-0.5l1-1.4
				c0.1,0.2,0.2,0.4,0.2,0.6c0.1,0.2,0.2,0.4,0.2,0.6c0.1,0.2,0.1,0.5,0.2,0.7c0,0.2,0.1,0.5,0.1,0.7c0,0.5,0,0.9-0.2,1.3
				c-0.1,0.4-0.3,0.8-0.5,1.1c-0.2,0.3-0.5,0.7-0.8,1c-0.3,0.3-0.6,0.5-1,0.8l-1,0.6L155.1,162.9z M155.3,166.3l0.8-1.5l0.8,0.5
				l-0.8,1.5L155.3,166.3z M157.7,166.4l-0.7,1.4l-0.7-0.4l0.7-1.4L157.7,166.4z M157.1,165.1l0.8-1.5l0.8,0.5l-0.8,1.5L157.1,165.1
				z"/>
		</g>
		<g>
			<path class="st6" d="M182.2,152.3c-0.2,0.1-0.5,0.3-0.8,0.4c-0.3,0.1-0.5,0.2-0.7,0.3c-0.2,0.1-0.5,0.1-0.7,0.2
				c-0.2,0-0.4,0-0.5-0.1c-0.2-0.1-0.3-0.2-0.4-0.4c-0.1-0.2-0.1-0.4-0.1-0.7c0-0.2,0-0.3,0-0.5c0-0.2,0.1-0.3,0.1-0.5
				c0-0.2,0.1-0.3,0.2-0.5c0.1-0.2,0.1-0.3,0.2-0.5l0.6,0.3c0,0.1-0.1,0.2-0.1,0.3c0,0.1-0.1,0.3-0.1,0.4s-0.1,0.3-0.1,0.4
				c0,0,0,0.1,0,0.1c0,0.1,0,0.1,0,0.2c0,0.1,0.1,0.1,0.3,0.2c0.1,0,0.3,0,0.5-0.1c0.2-0.1,0.5-0.2,0.7-0.3c0.3-0.1,0.6-0.3,0.9-0.5
				c0.2-0.1,0.4-0.2,0.6-0.4c0.2-0.1,0.4-0.3,0.7-0.5c0.2-0.2,0.5-0.4,0.7-0.6c0.2-0.2,0.4-0.4,0.6-0.6c0-0.1-0.1-0.3-0.1-0.4
				c0-0.1-0.1-0.2-0.2-0.3c-0.1-0.1-0.1-0.2-0.2-0.3c-0.1-0.1-0.1-0.2-0.2-0.3l0.7-1c0,0,0,0,0.1,0.1c0,0.1,0.1,0.1,0.1,0.2
				c0,0.1,0.1,0.2,0.2,0.4c0.1,0.1,0.1,0.3,0.2,0.4c0,0.1,0.1,0.3,0.1,0.4c0,0.1,0,0.3,0,0.4c0,0.2,0,0.3-0.1,0.5
				c-0.1,0.2-0.2,0.3-0.3,0.5c-0.1,0.2-0.3,0.4-0.4,0.5c-0.2,0.2-0.3,0.3-0.5,0.5c-0.2,0.2-0.4,0.3-0.5,0.5
				c-0.2,0.2-0.4,0.3-0.5,0.4c-0.2,0.1-0.3,0.2-0.5,0.3C182.5,152.1,182.3,152.2,182.2,152.3C182.2,152.3,182.2,152.3,182.2,152.3z
				 M182.8,153.3l-0.7,1.2l-0.7-0.4l0.7-1.2L182.8,153.3z"/>
			<path class="st6" d="M187.9,149l-0.1,0.1c-0.5,0.3-0.8,0.3-1.1,0.2c-0.2-0.1-0.4-0.5-0.4-1.1c0-0.1,0-0.2,0-0.4
				c0-0.2,0-0.5,0-0.7c0-0.2,0-0.4,0-0.6c0-0.2,0-0.4,0-0.6c0-0.2,0-0.4,0-0.6c0-0.2,0-0.4,0-0.6c0-0.2,0-0.4,0-0.5
				c0-0.2,0-0.3,0-0.4l0.9-0.8c0,0.1,0,0.3,0.1,0.5c0,0.2,0,0.5,0,0.7c0,0.3,0,0.5,0,0.8c0,0.3,0,0.5,0,0.8c0,0.1,0,0.3,0,0.5
				c0,0.2,0,0.3,0,0.4c0,0.1,0,0.2,0,0.3c0,0.1,0,0.2,0,0.3c0,0.1,0,0.2,0,0.3c0,0.1,0,0.2,0,0.3c0,0,0,0,0,0.1c0,0.1,0,0.2,0,0.2
				c0,0.1,0,0.1,0.1,0.1c0,0,0.1,0,0.2,0c0.1,0,0.1-0.1,0.2-0.1l0.2-0.1L187.9,149z"/>
			<path class="st6" d="M190.8,146.2l0,1.1l-0.1,0c-0.2,0.1-0.4,0.2-0.6,0.2c-0.2,0-0.3,0-0.4-0.1c-0.1,0.2-0.2,0.3-0.3,0.5
				c-0.1,0.1-0.3,0.3-0.5,0.4c-0.2,0.1-0.4,0.3-0.6,0.4c-0.2,0.1-0.4,0.2-0.5,0.3l-0.1,0.1l0-1.1l0.1-0.1c0.3-0.2,0.5-0.3,0.7-0.5
				c0.2-0.1,0.3-0.3,0.4-0.4c0.1-0.1,0.2-0.3,0.2-0.4c0.1-0.1,0.1-0.3,0.1-0.4c0-0.1,0-0.2,0-0.3c0-0.1-0.1-0.3-0.1-0.5l0.8-0.8
				c0,0.1,0.1,0.2,0.1,0.3c0,0.1,0,0.2,0,0.3c0,0.1,0,0.2,0,0.3c0,0.1,0,0.2,0,0.4c0,0.1,0,0.2,0,0.3c0,0.1,0.1,0.2,0.1,0.2
				c0,0.1,0.1,0.1,0.2,0.1C190.6,146.3,190.7,146.3,190.8,146.2L190.8,146.2z M189.3,143.4l-0.6,1l-0.6-0.4l0.6-1L189.3,143.4z
				 M190.6,142.7l-0.6,1l-0.6-0.4l0.6-1L190.6,142.7z"/>
			<path class="st6" d="M190.8,146.2c0.1-0.1,0.2-0.2,0.3-0.3c0.1-0.1,0.2-0.3,0.3-0.4c0.1-0.2,0.1-0.3,0.2-0.5
				c0.1-0.2,0.1-0.3,0.2-0.5c0-0.2,0.1-0.3,0.1-0.5c0-0.2,0.1-0.3,0.1-0.4l0.9-0.3c0,0.1,0,0.2-0.1,0.3c0,0.1-0.1,0.3-0.1,0.4
				c0,0.2-0.1,0.3-0.1,0.4c0,0.1,0,0.2,0,0.3c0,0,0,0.1,0,0.1c0,0.1,0,0.1,0.1,0.2c0,0,0.1,0,0.2,0c0.1-0.1,0.2-0.1,0.3-0.3
				c0.1-0.1,0.2-0.3,0.2-0.4c0.1-0.2,0.1-0.3,0.2-0.5c0-0.2,0.1-0.3,0.1-0.5c0-0.2,0.1-0.3,0.1-0.5s0-0.3,0.1-0.4l0.8-0.3
				c0,0.1,0,0.2,0,0.3s0,0.2,0,0.3c0,0.1,0,0.2,0,0.4c0,0.1,0,0.2,0,0.4c0,0,0,0,0,0.1c0,0.1,0,0.1,0,0.2c0,0.1,0,0.1,0.1,0.2
				c0,0,0.1,0.1,0.1,0.1c0.1,0,0.1,0,0.2-0.1c0.2-0.1,0.3-0.2,0.4-0.4c0.1-0.2,0.2-0.3,0.2-0.5c0-0.1,0-0.3,0-0.5
				c0-0.2-0.1-0.3-0.1-0.4c0-0.1-0.1-0.3-0.1-0.4c-0.1-0.1-0.1-0.2-0.1-0.3l0.7-0.9c0,0,0,0.1,0.1,0.1c0,0.1,0.1,0.1,0.1,0.2
				c0,0.1,0.1,0.2,0.1,0.3c0,0.1,0.1,0.3,0.1,0.4c0,0.1,0.1,0.3,0.1,0.4c0,0.2,0,0.3,0,0.5c0,0.3,0,0.5-0.1,0.8
				c-0.1,0.2-0.2,0.5-0.3,0.7c-0.1,0.2-0.3,0.4-0.5,0.6c-0.2,0.2-0.4,0.3-0.6,0.5c0,0,0,0,0,0c0,0,0,0,0,0c-0.1,0.1-0.2,0.1-0.3,0.1
				c-0.1,0-0.2,0-0.2,0c-0.1,0-0.1-0.1-0.2-0.1c-0.1,0-0.1-0.1-0.2-0.2c-0.1,0.1-0.1,0.2-0.2,0.4c-0.1,0.1-0.1,0.2-0.2,0.3
				c-0.1,0.1-0.2,0.2-0.3,0.3c-0.1,0.1-0.2,0.2-0.4,0.3c0,0,0,0,0,0c-0.1,0.1-0.2,0.1-0.3,0.1c-0.1,0-0.2,0-0.2,0
				c-0.1,0-0.1,0-0.2-0.1c-0.1,0-0.1-0.1-0.2-0.2c0,0.1-0.1,0.2-0.2,0.3c-0.1,0.1-0.1,0.2-0.2,0.3c-0.1,0.1-0.2,0.2-0.3,0.3
				c-0.1,0.1-0.3,0.2-0.4,0.3l-0.1,0.1l0-1.1L190.8,146.2z M193.9,140.5l-0.6,1l-0.6-0.4l0.6-1L193.9,140.5z M193.4,139.6l0.5-1
				l0.5,0.3l-0.5,1L193.4,139.6z M195.2,139.7l-0.6,1l-0.6-0.4l0.6-1L195.2,139.7z"/>
			<path class="st6" d="M199.1,144.3c0.3-0.3,0.6-0.6,0.9-0.9c0.3-0.3,0.5-0.6,0.7-0.9c0.2-0.3,0.4-0.6,0.5-0.8
				c0.1-0.3,0.2-0.5,0.3-0.7c-0.2,0.1-0.4,0.2-0.5,0.3c-0.2,0.1-0.3,0.2-0.5,0.2c-0.2,0.1-0.3,0.1-0.4,0.1c-0.1,0-0.2,0-0.3-0.1
				c-0.1-0.1-0.2-0.2-0.2-0.3c-0.1-0.1-0.1-0.3-0.1-0.6c0-0.2,0-0.3,0-0.5c0-0.2,0.1-0.4,0.1-0.6c0.1-0.2,0.1-0.4,0.2-0.6
				c0.1-0.2,0.2-0.4,0.3-0.5c0.1-0.2,0.2-0.3,0.3-0.4c0.1-0.1,0.2-0.2,0.4-0.3c0.4-0.2,0.7-0.2,1,0c0.1,0.1,0.2,0.2,0.3,0.3
				c0.1,0.1,0.1,0.2,0.2,0.4c0.1,0.1,0.1,0.3,0.1,0.5c0,0.2,0.1,0.4,0.1,0.6l0.2-0.1l0,1.1l-0.3,0.2c-0.1,0.5-0.2,0.9-0.4,1.3
				c-0.2,0.4-0.4,0.9-0.7,1.2c-0.3,0.4-0.6,0.8-0.9,1.1s-0.7,0.6-1,0.9L199.1,144.3z M200.7,138.9c-0.1,0-0.1,0.1-0.2,0.2
				s-0.1,0.2-0.2,0.3c-0.1,0.1-0.1,0.3-0.1,0.4c0,0.1-0.1,0.3-0.1,0.4c0,0.1,0,0.2,0.1,0.3c0,0.1,0.1,0.1,0.2,0.1c0.1,0,0.1,0,0.2,0
				s0.2-0.1,0.3-0.1c0,0,0.1-0.1,0.2-0.1c0.1,0,0.1-0.1,0.2-0.1c0.1,0,0.1-0.1,0.2-0.1c0.1,0,0.1-0.1,0.2-0.1c0-0.1,0-0.2,0-0.3
				c0-0.1-0.1-0.2-0.1-0.3c0-0.1-0.1-0.2-0.1-0.3c-0.1-0.1-0.1-0.1-0.2-0.2c-0.1-0.1-0.1-0.1-0.2-0.1
				C200.8,138.8,200.7,138.8,200.7,138.9z"/>
			<path class="st6" d="M202.4,139.5L202.4,139.5c0.3-0.2,0.4-0.3,0.5-0.4c0.1-0.1,0.2-0.3,0.3-0.4c0.1-0.1,0.1-0.3,0.2-0.5
				c0-0.2,0.1-0.3,0.1-0.5c0-0.2,0.1-0.3,0.1-0.5c0-0.2,0.1-0.3,0.1-0.5l0.8-0.1c0,0.1,0,0.2-0.1,0.2c0,0.1,0,0.1,0,0.2
				c0,0.1,0,0.1,0,0.2s0,0.1,0,0.2c0,0,0,0.1,0,0.1c0,0,0,0.1,0,0.1s0,0.1,0,0.1c0,0,0,0.1,0.1,0.1c0-0.1,0.1-0.3,0.2-0.4
				c0.1-0.2,0.1-0.3,0.2-0.5c0.1-0.2,0.2-0.4,0.3-0.5s0.2-0.4,0.3-0.6c0.1-0.2,0.3-0.4,0.4-0.6c0.1-0.2,0.3-0.4,0.4-0.6
				c0.2-0.2,0.3-0.3,0.5-0.5c0.2-0.1,0.3-0.3,0.5-0.4c0.2-0.1,0.4-0.2,0.6-0.2c0.2,0,0.4,0,0.5,0.1c0.1,0.1,0.3,0.2,0.3,0.4
				c0.1,0.2,0.1,0.4,0.1,0.6c0,0,0,0,0,0.1c0,0.4-0.1,0.8-0.3,1.2l0.6-0.4l0,1.1l-0.9,0.5c-0.2,0.1-0.4,0.3-0.6,0.3
				c-0.2,0.1-0.3,0.1-0.4,0.1c-0.2,0.2-0.5,0.4-0.7,0.6c-0.2,0.2-0.5,0.3-0.7,0.4c-0.3,0.2-0.6,0.3-0.8,0.4
				c-0.2,0.1-0.4,0.2-0.5,0.2c-0.1,0-0.3,0-0.4,0s-0.2-0.1-0.3-0.2c-0.2,0.3-0.4,0.6-0.6,0.9c-0.2,0.2-0.5,0.4-0.8,0.6l-0.1,0.1
				L202.4,139.5z M205.2,137.8c0.2-0.1,0.4-0.2,0.6-0.3c0.1,0,0.1-0.1,0.2-0.1c0.1-0.1,0.3-0.2,0.5-0.3c0.2-0.1,0.4-0.3,0.6-0.4
				c0.2-0.2,0.4-0.3,0.5-0.5c0.2-0.2,0.3-0.4,0.4-0.6c0.1-0.2,0.2-0.4,0.2-0.6c0-0.1-0.1-0.2-0.1-0.3c-0.1-0.1-0.2-0.1-0.3-0.1
				c-0.1,0-0.2,0-0.3,0.1c-0.1,0-0.1,0.1-0.2,0.1c0,0-0.1,0.1-0.1,0.1c-0.2,0.2-0.4,0.4-0.6,0.6c-0.2,0.2-0.4,0.4-0.5,0.7
				c-0.2,0.2-0.3,0.5-0.4,0.8C205.4,137.3,205.3,137.6,205.2,137.8z M208,132l-0.7,1.2l-0.7-0.4l0.7-1.2L208,132z"/>
			<path class="st6" d="M212.1,132.4c-0.1-0.1-0.2-0.1-0.3-0.1c-0.1,0-0.2,0-0.3,0c-0.1,0-0.3,0.1-0.4,0.1c-0.1,0.1-0.2,0.1-0.3,0.2
				c-0.1,0.1-0.2,0.2-0.2,0.3c-0.1,0.1-0.1,0.2-0.1,0.3c0,0.1-0.1,0.2-0.1,0.3c0,0,0,0,0,0.1c0,0.1,0,0.2,0.1,0.3
				c0.1,0.1,0.1,0.2,0.2,0.2c0.1,0,0.2,0,0.4,0c0.1,0,0.2-0.1,0.3-0.1c0,0,0.1,0,0.1,0c0.1-0.1,0.3-0.2,0.4-0.3
				c0.1-0.1,0.3-0.2,0.4-0.3l0.4-0.3l0.1,1c-0.1,0.1-0.3,0.3-0.5,0.4c-0.2,0.1-0.4,0.3-0.6,0.5c-0.2,0.2-0.5,0.4-0.8,0.5
				c-0.3,0.2-0.6,0.4-1,0.6l-0.8,0.5l0-1.1l0.2-0.1l0.7-0.4c-0.1-0.1-0.2-0.2-0.2-0.4c0-0.2-0.1-0.3-0.1-0.6c0-0.3,0-0.5,0.1-0.8
				c0.1-0.3,0.2-0.5,0.3-0.8c0.1-0.3,0.3-0.5,0.5-0.7c0.2-0.2,0.4-0.4,0.6-0.5c0.1-0.1,0.2-0.1,0.3-0.2c0.1,0,0.2-0.1,0.3-0.1
				s0.2,0,0.3,0c0.1,0,0.2,0,0.2,0c0.1,0,0.2,0,0.2,0.1c0.1,0,0.1,0.1,0.2,0.1L212.1,132.4z"/>
			<path class="st6" d="M220.2,126.5c0.1-0.1,0.2-0.2,0.3-0.2c0,0,0.1,0,0.1-0.1c0.1,0,0.2-0.1,0.2-0.1c0.1,0,0.2-0.1,0.3-0.1
				c0.1,0,0.2,0,0.3,0l-0.3,1.2c-0.1,0-0.2,0-0.4,0.1c-0.1,0-0.1,0.1-0.2,0.1c-0.1,0-0.2,0.1-0.2,0.2c-0.1,0.1-0.2,0.1-0.3,0.2
				c-0.1,0.1-0.2,0.2-0.3,0.3c-0.1,0.1-0.2,0.3-0.3,0.4c-0.1,0.1-0.2,0.3-0.2,0.4c-0.1,0.1-0.1,0.3-0.2,0.4c0,0.1-0.1,0.3-0.1,0.4
				c0,0.1,0,0.2,0.1,0.2c0,0,0.1,0.1,0.2,0.1c0.1,0,0.2,0,0.3-0.1c0.1,0,0.2-0.1,0.3-0.1c0.1,0,0.3-0.1,0.4-0.1c0.1,0,0.3,0,0.4,0
				c0.1,0,0.2,0.1,0.3,0.2c0.1,0.1,0.1,0.2,0.1,0.4c0,0,0,0.1,0,0.1c0,0.3-0.1,0.6-0.2,0.9c-0.1,0.3-0.2,0.5-0.4,0.8
				c-0.2,0.3-0.3,0.5-0.5,0.7c-0.2,0.2-0.4,0.4-0.6,0.6c-0.2,0.2-0.4,0.4-0.7,0.5c-0.2,0.2-0.4,0.3-0.6,0.4
				c-0.4,0.2-0.8,0.4-1.1,0.4c-0.3,0.1-0.6,0-0.8-0.1c-0.2-0.1-0.4-0.3-0.5-0.7c-0.1-0.2-0.1-0.5-0.1-0.8c0-0.2,0-0.3,0-0.5
				c0-0.2,0-0.4,0.1-0.6c0-0.2,0.1-0.4,0.1-0.6c0-0.2,0.1-0.4,0.1-0.6c0-0.2,0.1-0.3,0.1-0.5c0-0.1,0.1-0.3,0.1-0.3
				c0-0.1,0-0.1,0-0.2l0.8-0.1c-0.1,0.2-0.1,0.5-0.2,0.7c0,0.2-0.1,0.4-0.1,0.6c0,0.2-0.1,0.4-0.1,0.6c0,0.2-0.1,0.4-0.1,0.6
				c0,0.1,0,0.2,0,0.3c0,0.2,0,0.4,0.1,0.5c0.1,0.2,0.2,0.3,0.3,0.3c0.2,0.1,0.3,0.1,0.6,0c0.2-0.1,0.5-0.2,0.7-0.3
				c0.3-0.2,0.6-0.4,0.9-0.6c0.3-0.2,0.5-0.4,0.7-0.6s0.4-0.4,0.5-0.6s0.2-0.3,0.2-0.5c0,0,0,0-0.1,0c0,0-0.1,0-0.2,0
				c-0.1,0-0.1,0-0.2,0.1c-0.1,0-0.1,0-0.2,0.1c-0.2,0.1-0.4,0.1-0.5,0.1c-0.2,0-0.3,0-0.4,0c-0.1,0-0.2-0.1-0.3-0.3
				c-0.1-0.1-0.1-0.4-0.1-0.6c0-0.3,0.1-0.6,0.2-1c0.1-0.3,0.2-0.7,0.4-1c0.2-0.3,0.4-0.6,0.6-0.9
				C219.7,126.9,219.9,126.7,220.2,126.5z"/>
			<path class="st6" d="M223.7,128.1l-0.1,0.1c-0.5,0.3-0.8,0.3-1.1,0.2c-0.2-0.1-0.4-0.5-0.4-1.1c0-0.1,0-0.2,0-0.4
				c0-0.2,0-0.5,0-0.7c0-0.2,0-0.4,0-0.6c0-0.2,0-0.4,0-0.6c0-0.2,0-0.4,0-0.6c0-0.2,0-0.4,0-0.6c0-0.2,0-0.4,0-0.5s0-0.3,0-0.4
				l0.9-0.8c0,0.1,0,0.3,0.1,0.5c0,0.2,0,0.5,0,0.7c0,0.3,0,0.5,0,0.8c0,0.3,0,0.5,0,0.8c0,0.1,0,0.3,0,0.5c0,0.2,0,0.3,0,0.4
				c0,0.1,0,0.2,0,0.3c0,0.1,0,0.2,0,0.3c0,0.1,0,0.2,0,0.3c0,0.1,0,0.2,0,0.3c0,0,0,0,0,0.1c0,0.1,0,0.2,0,0.2c0,0.1,0,0.1,0.1,0.1
				c0,0,0.1,0,0.2,0c0.1,0,0.1-0.1,0.2-0.1l0.2-0.1L223.7,128.1z"/>
			<path class="st6" d="M223.6,127.1l0.5-0.3c0-0.2,0-0.4,0.1-0.6c0-0.2,0.1-0.5,0.1-0.7c0.1-0.3,0.1-0.5,0.2-0.8
				c0.1-0.3,0.2-0.5,0.3-0.7c0.1-0.2,0.2-0.4,0.4-0.6c0.1-0.2,0.3-0.3,0.4-0.4c0,0,0,0,0,0c0.1-0.1,0.2-0.1,0.3-0.1
				c0.1,0,0.2,0,0.3,0.1c0.1,0,0.2,0.1,0.2,0.2c0.1,0.1,0.1,0.2,0.1,0.3c0,0.1,0.1,0.3,0.1,0.4c0,0,0,0.1,0,0.1c0,0.1,0,0.2,0,0.3
				c0,0.2-0.1,0.5-0.2,0.7c-0.1,0.3-0.2,0.5-0.3,0.8c-0.1,0.3-0.3,0.5-0.4,0.7c-0.2,0.2-0.3,0.4-0.6,0.6c0,0.1,0.1,0.1,0.1,0.2
				c0,0.1,0.1,0.1,0.2,0.2c0.1,0.1,0.1,0.1,0.2,0.2c0.1,0.1,0.1,0.1,0.1,0.1c0,0,0-0.1,0-0.1c0-0.1,0-0.3,0.1-0.5
				c0-0.2,0.1-0.4,0.2-0.6c0.1-0.2,0.2-0.4,0.3-0.6s0.2-0.4,0.3-0.5s0.2-0.3,0.4-0.4c0.1-0.1,0.3-0.2,0.4-0.3l0.1,0l0,1.1l-0.1,0.1
				c-0.1,0.1-0.2,0.2-0.3,0.3c-0.1,0.1-0.2,0.3-0.3,0.4c-0.1,0.2-0.2,0.3-0.2,0.5c0,0.2-0.1,0.3-0.1,0.5c0,0.1,0,0.1,0,0.2
				c0,0.1,0,0.1,0,0.1c0,0,0,0.1,0.1,0.1c0,0,0.1,0.1,0.1,0.1l-0.6,1.1c-0.2,0-0.4-0.1-0.6-0.2c-0.2-0.1-0.3-0.2-0.5-0.3
				c-0.1-0.1-0.3-0.3-0.4-0.5c-0.1-0.2-0.2-0.4-0.3-0.6l-0.6,0.4L223.6,127.1z M225.9,124.6C225.9,124.6,225.9,124.6,225.9,124.6
				c0-0.1,0-0.2,0-0.3c0-0.1,0-0.1-0.1-0.2c0-0.1-0.1-0.1-0.1-0.1c0,0-0.1-0.1-0.2-0.1c0,0-0.1,0.1-0.2,0.2
				c-0.1,0.1-0.1,0.2-0.2,0.4c-0.1,0.2-0.1,0.3-0.2,0.5c0,0.2-0.1,0.3-0.1,0.5c0,0.2-0.1,0.3-0.1,0.5c0,0.1,0,0.2,0,0.3
				c0,0,0,0,0,0.1l0,0c0.1-0.1,0.2-0.2,0.4-0.3c0.1-0.1,0.2-0.3,0.3-0.5c0.1-0.2,0.2-0.3,0.2-0.5
				C225.8,124.9,225.9,124.8,225.9,124.6z"/>
			<path class="st6" d="M227.2,125l0.7-0.4c0.1-0.1,0.2-0.1,0.3-0.2c0.1-0.1,0.2-0.2,0.3-0.3c0.1-0.1,0.2-0.2,0.3-0.4
				c0.1-0.1,0.1-0.3,0.1-0.4c0-0.1,0-0.2,0-0.3c0-0.1-0.1-0.2-0.1-0.4c0-0.1-0.1-0.3-0.1-0.4c-0.1-0.1-0.1-0.3-0.2-0.4l0.8-0.9
				c0.1,0.1,0.1,0.3,0.2,0.4c0.1,0.1,0.1,0.3,0.1,0.5c0,0.2,0.1,0.3,0.1,0.5c0,0.2,0,0.3,0,0.5c0,0.3-0.1,0.6-0.2,0.9
				s-0.2,0.5-0.4,0.8s-0.4,0.5-0.6,0.7c-0.2,0.2-0.5,0.4-0.7,0.5l-0.7,0.4L227.2,125z M228.8,119.8l-0.6,1l-0.6-0.4l0.6-1
				L228.8,119.8z M230.1,119.1l-0.6,1l-0.6-0.4l0.6-1L230.1,119.1z"/>
			<path class="st6" d="M232.1,120.5c0,0.1,0.1,0.3,0.1,0.5c0,0.2,0.1,0.3,0.1,0.5c0,0.2,0.1,0.3,0.1,0.5c0,0.2,0,0.4,0,0.5
				c0,0.2,0,0.5-0.1,0.8c-0.1,0.3-0.2,0.6-0.3,0.8s-0.2,0.6-0.4,0.9c-0.2,0.3-0.3,0.6-0.5,0.9c-0.2,0.3-0.4,0.6-0.6,0.8
				c-0.2,0.3-0.4,0.5-0.6,0.8l-0.4-0.7c0.2-0.2,0.3-0.4,0.5-0.6c0.2-0.2,0.3-0.4,0.5-0.6s0.3-0.4,0.4-0.7c0.1-0.2,0.2-0.4,0.3-0.6
				c0.1-0.2,0.2-0.4,0.2-0.6c0.1-0.2,0.1-0.4,0.1-0.5c0-0.2,0-0.3,0-0.5c0-0.2-0.1-0.3-0.1-0.5c0-0.1-0.1-0.3-0.1-0.4
				c0-0.1-0.1-0.2-0.1-0.4L232.1,120.5z"/>
			<path class="st6" d="M234.9,121.6l-0.1,0.1c-0.5,0.3-0.8,0.3-1.1,0.2c-0.2-0.1-0.4-0.5-0.4-1.1c0-0.1,0-0.2,0-0.4
				c0-0.2,0-0.5,0-0.7c0-0.2,0-0.4,0-0.6c0-0.2,0-0.4,0-0.6c0-0.2,0-0.4,0-0.6c0-0.2,0-0.4,0-0.6c0-0.2,0-0.4,0-0.5
				c0-0.2,0-0.3,0-0.4l0.9-0.8c0,0.1,0,0.3,0.1,0.5c0,0.2,0,0.5,0,0.7c0,0.3,0,0.5,0,0.8c0,0.3,0,0.5,0,0.8c0,0.1,0,0.3,0,0.5
				c0,0.2,0,0.3,0,0.4c0,0.1,0,0.2,0,0.3c0,0.1,0,0.2,0,0.3c0,0.1,0,0.2,0,0.3c0,0.1,0,0.2,0,0.3c0,0,0,0,0,0.1c0,0.1,0,0.2,0,0.2
				c0,0.1,0,0.1,0.1,0.1c0,0,0.1,0,0.2,0c0.1,0,0.1-0.1,0.2-0.1l0.2-0.1L234.9,121.6z"/>
			<path class="st6" d="M234.8,120.6l0.4-0.3c0.1-0.1,0.2-0.1,0.4-0.2c0.1-0.1,0.2-0.2,0.4-0.2c0.1-0.1,0.2-0.2,0.3-0.3
				c0.1-0.1,0.2-0.2,0.3-0.3c0.1-0.1,0.1-0.2,0.2-0.4c0-0.1,0.1-0.3,0.1-0.4c0-0.2,0-0.4-0.1-0.5c-0.1-0.2-0.2-0.3-0.3-0.4
				c-0.1-0.1-0.3-0.3-0.5-0.4c-0.2-0.1-0.4-0.2-0.6-0.4l0.1-1l2.8-3.1l0.3,0.8l-2.3,2.5c0.1,0,0.2,0.1,0.3,0.2
				c0.1,0.1,0.2,0.1,0.3,0.2c0.2,0.1,0.3,0.3,0.4,0.4c0.1,0.1,0.2,0.3,0.3,0.5c0.1,0.2,0.1,0.3,0.1,0.5s0,0.3,0,0.5
				c0,0.3,0,0.6-0.1,0.9c-0.1,0.3-0.2,0.6-0.4,0.8c-0.2,0.3-0.3,0.5-0.5,0.7c-0.2,0.2-0.4,0.4-0.6,0.5l-1.1,0.7L234.8,120.6z"/>
		</g>
	</g>
	<g>
		<g>
			<path class="st6" d="M72.2,238.9L72.2,238.9c-1.5,0.8-2.7-0.1-2.7-2l0,0c0-2,1.2-4.3,2.7-5.1l0,0c1.5-0.8,2.7,0.1,2.7,2l0,0
				C74.9,235.8,73.7,238.1,72.2,238.9z"/>
			<path class="st6" d="M112.5,215.8l-27.9,16.1c-1.5,0.9-2.7-0.1-2.7-2.1l0,0c0-2,1.2-4.4,2.7-5.2l27.9-16.1
				c1.5-0.9,2.7,0.1,2.7,2.1l0,0C115.2,212.5,114,214.9,112.5,215.8z"/>
			<path class="st6" d="M152,193l-20.8,12c-1.5,0.9-2.7-0.1-2.7-2.1l0,0c0-2,1.2-4.4,2.7-5.2l20.8-12c1.5-0.9,2.7,0.1,2.7,2.1l0,0
				C154.7,189.7,153.5,192.1,152,193z"/>
		</g>
		<g>
			<path class="st6" d="M72.2,252.9L72.2,252.9c-1.5,0.8-2.7-0.1-2.7-2l0,0c0-2,1.2-4.3,2.7-5.1l0,0c1.5-0.8,2.7,0.1,2.7,2l0,0
				C74.9,249.7,73.7,252,72.2,252.9z"/>
			<path class="st6" d="M104.6,234.3l-20.1,11.6c-1.5,0.9-2.7-0.1-2.7-2.1l0,0c0-2,1.2-4.4,2.7-5.2l20.1-11.6
				c1.5-0.9,2.7,0.1,2.7,2.1l0,0C107.4,231,106.1,233.4,104.6,234.3z"/>
			<path class="st6" d="M152,206.9l-20.8,12c-1.5,0.9-2.7-0.1-2.7-2.1v0c0-2,1.2-4.4,2.7-5.2l20.8-12c1.5-0.9,2.7,0.1,2.7,2.1l0,0
				C154.7,203.7,153.5,206,152,206.9z"/>
		</g>
		<g>
			<path class="st6" d="M72.2,266.9L72.2,266.9c-1.5,0.8-2.7-0.1-2.7-2l0,0c0-2,1.2-4.3,2.7-5.1l0,0c1.5-0.8,2.7,0.1,2.7,2l0,0
				C74.9,263.8,73.7,266.1,72.2,266.9z"/>
			<path class="st6" d="M112.5,243.8l-27.9,16.1c-1.5,0.9-2.7-0.1-2.7-2.1l0,0c0-2,1.2-4.4,2.7-5.2l27.9-16.1
				c1.5-0.9,2.7,0.1,2.7,2.1l0,0C115.2,240.6,114,242.9,112.5,243.8z"/>
			<path class="st6" d="M152,221l-20.8,12c-1.5,0.9-2.7-0.1-2.7-2.1l0,0c0-2,1.2-4.4,2.7-5.2l20.8-12c1.5-0.9,2.7,0.1,2.7,2.1l0,0
				C154.7,217.7,153.5,220.1,152,221z"/>
		</g>
		<g>
			<g>
				<path class="st6" d="M72.2,280.9L72.2,280.9c-1.5,0.8-2.7-0.1-2.7-2l0,0c0-2,1.2-4.3,2.7-5.1l0,0c1.5-0.8,2.7,0.1,2.7,2v0
					C74.9,277.7,73.7,280,72.2,280.9z"/>
				<path class="st6" d="M104.6,262.3l-20.1,11.6c-1.5,0.9-2.7-0.1-2.7-2.1l0,0c0-2,1.2-4.4,2.7-5.2l20.1-11.6
					c1.5-0.9,2.7,0.1,2.7,2.1l0,0C107.4,259,106.1,261.4,104.6,262.3z"/>
				<path class="st6" d="M152,234.9l-20.8,12c-1.5,0.9-2.7-0.1-2.7-2.1l0,0c0-2,1.2-4.4,2.7-5.2l20.8-12c1.5-0.9,2.7,0.1,2.7,2.1
					l0,0C154.7,231.7,153.5,234.1,152,234.9z"/>
			</g>
			<g>
				<path class="st6" d="M72.2,295.1L72.2,295.1c-1.5,0.8-2.7-0.1-2.7-2l0,0c0-2,1.2-4.3,2.7-5.1l0,0c1.5-0.8,2.7,0.1,2.7,2l0,0
					C74.9,291.9,73.7,294.2,72.2,295.1z"/>
				<path class="st6" d="M108.8,274.1l-24.2,14c-1.5,0.9-2.7-0.1-2.7-2.1l0,0c0-2,1.2-4.4,2.7-5.2l24.2-14c1.5-0.9,2.7,0.1,2.7,2.1
					l0,0C111.5,270.9,110.3,273.2,108.8,274.1z"/>
				<path class="st6" d="M152,249.1l-20.8,12c-1.5,0.9-2.7-0.1-2.7-2.1l0,0c0-2,1.2-4.4,2.7-5.2l20.8-12c1.5-0.9,2.7,0.1,2.7,2.1
					l0,0C154.7,245.9,153.5,248.2,152,249.1z"/>
			</g>
		</g>
		<g>
			<path class="st6" d="M72.2,309L72.2,309c-1.5,0.8-2.7-0.1-2.7-2l0,0c0-2,1.2-4.3,2.7-5.1l0,0c1.5-0.8,2.7,0.1,2.7,2v0
				C74.9,305.9,73.7,308.2,72.2,309z"/>
			<path class="st6" d="M117.1,283.2L84.5,302c-1.5,0.9-2.7-0.1-2.7-2.1l0,0c0-2,1.2-4.4,2.7-5.2l32.5-18.8c1.5-0.9,2.7,0.1,2.7,2.1
				l0,0C119.8,280,118.6,282.4,117.1,283.2z"/>
			<path class="st6" d="M152,263.1l-20.8,12c-1.5,0.9-2.7-0.1-2.7-2.1l0,0c0-2,1.2-4.4,2.7-5.2l20.8-12c1.5-0.9,2.7,0.1,2.7,2.1l0,0
				C154.7,259.8,153.5,262.2,152,263.1z"/>
		</g>
	</g>
</g>
<path class="st7" d="M313.6,136.4c-1.9-0.9-4.1-1.2-6.1-0.7c-3.1,0.9-5.6,2.9-8.6,6.1s-8,8.3-8,8.3s2.5,6.2,8,8.5l11.6-10.8
	L313.6,136.4z"/>
<path class="st13" d="M313.6,136.4c-1.9-0.9-4.1-1.2-6.1-0.7c-3.1,0.9-5.6,2.9-8.6,6.1s-8,8.3-8,8.3s2.5,6.2,8,8.5l11.6-10.8
	L313.6,136.4z"/>
<rect x="326.8" y="278.1" class="st14" width="7" height="12"/>
<polygon class="st14" points="314.5,281.2 307.5,281.4 307.1,268.7 314.5,268.4 "/>
<path class="st4" d="M337,187.8c0,6.7-1.2,45.8-1.2,45.8c0.2,1.9,2,5.4,2.2,12.3c0.2,10.1-3.7,37.9-3.7,37.9
	c-2.5,1.2-5.3,1.3-7.8,0.2c0,0-3.2-37.6-4.5-47.6c-1.1-8.7-3-32.4-3-32.4l-3.3,28.5c0.8,3.7,1.1,7.4,0.9,11.2
	c-0.3,4.6-1.6,33.3-1.6,33.3c-2.5,1.4-5.4,1.7-8.1,0.7c0,0-5-40.8-5-45.1c-0.1-4.8,1.8-54.2,1.8-54.2L337,187.8z"/>
<path class="st7" d="M332.6,138.6c1.5,0.7,2.8,2,3.4,3.5c0.7,1.9,1.1,4,1,6.1V162l0.2,26c-10.1,5.3-23,5.7-33.7-2.2
	c0,0,0.6-33.5,0.6-39c0-0.3,0-0.5,0-0.8c0.5-6.9,6.4-12.1,13.3-11.6c0.8,0.1,1.6,0.2,2.4,0.4l6.4,1.6L332.6,138.6L332.6,138.6z"/>
<circle class="st2" cx="314.5" cy="113" r="9.7"/>
<path class="st2" d="M331.3,119.8c0,0-1.6,7.4-2.2,8.6c-0.4,0.7-1.1,1.3-1.9,1.6l0.1-5.2L331.3,119.8z"/>
<path class="st2" d="M329.3,109.3c1.1-0.1,2.2,0.3,3,1.1c1.3,1.3,0.6,5.4-1,9.5l-3,0.3L329.3,109.3z"/>
<path class="st14" d="M327.4,120.2c0.6,0.4,1.4-0.8,2.2-1.6c0.9-1.1,2.6-1.2,3.6-0.2c0.3,0.3,0.5,0.6,0.7,0.9c1.2,2.6-1,5.9-2.9,6.5
	c-3.2,1-3.7-1.1-3.7-1.1l-0.2,12l0,0c-4,5.2-15.2,4.7-10.5-0.7v-3.6c-1.4,0.2-2.9,0.3-4.4,0.2c-2.4-0.4-3.9-2.3-4.6-4.8
	c-1.2-4.1-1.6-7.5-0.6-15.6c1.1-8.9,11.4-9,17-5.5S327.4,120.2,327.4,120.2z"/>
<path class="st2" d="M327.4,121.2c0.3,0,1.4-1.9,2.2-2.6c1-0.9-0.3-9.3-0.3-9.3c0.5-1.5,0.1-3.2-1-4.3c-1.4-1.5-3.7-1.7-7.7-2.3
	c-2.1-0.3-5.3-0.9-7.4-1.3c-2.5-0.5-4.6-1-6.3,0.6c-1.4,1.2-1.9,3.2-1.2,5c0.5,1.1,1.4,1.9,2.5,2.3c0,0,1.1,1,4.9,1.4
	c3.5,0.3,7,0.2,10.5-0.2c1.1-0.1,1.3,0.9,1.9,3.8C326,116.8,326.4,121.2,327.4,121.2z"/>
<path class="st2" d="M329.3,110l3.6-1.9c-0.5-1-1.7-1.4-2.7-0.9c0,0,0,0,0,0C329.2,107.7,328.8,108.9,329.3,110z"/>
<path class="st15" d="M316.5,132.6c0,0,5.3-1.1,7.2-2.1c1.1-0.6,2-1.5,2.6-2.5c-0.3,1.1-0.8,2.1-1.5,3c-1.4,1.7-8.3,3-8.3,3
	L316.5,132.6z"/>
<path class="st2" d="M316.7,118.8c0,0.6,0.5,1.1,1,1.1c0,0,0,0,0,0c0.6,0,1.1-0.4,1.2-1.1s-0.4-1.1-1.1-1.2
	C317.3,117.7,316.8,118.2,316.7,118.8C316.7,118.8,316.7,118.8,316.7,118.8z"/>
<path class="st2" d="M317.9,114.8l2.3,1.3c0.3-0.6,0.1-1.4-0.5-1.8C319,113.9,318.2,114.2,317.9,114.8
	C317.9,114.8,317.9,114.8,317.9,114.8z"/>
<path class="st15" d="M317,126.2l-6.3,2.1c0.2,0.7,4.8-0.1,5.5-0.3c0,0,0,0,0,0C316.9,127.7,317.2,126.9,317,126.2z"/>
<path class="st2" d="M307.6,115.7l2.1-1.6c-0.4-0.6-1.2-0.7-1.8-0.3c0,0,0,0,0,0C307.3,114.3,307.1,115.1,307.6,115.7z"/>
<path class="st2" d="M308.2,118.6c0,0.6,0.5,1.1,1.1,1c0.6,0,1.1-0.5,1-1.1c0-0.6-0.5-1-1.1-1C308.7,117.5,308.2,118,308.2,118.6
	C308.2,118.6,308.2,118.6,308.2,118.6z"/>
<polygon class="st15" points="313.6,117.6 313.3,124 309.9,122.8 "/>
<path class="st2" d="M326.8,286.6v-1c-0.7,0.3-2.2,6.3-5,8.8c-2.2,2-5.3,4.4-6,6.6s4.2,3.6,6.3,3.3c2.4-0.4,6.6-2.1,7.6-3.7
	s1.5-3.9,2.4-5s2.8-2.4,3.3-3.8c0.1-1.2,0-2.5-0.4-3.7c-0.3-1.2-0.7-2.6-1.1-2.5v0.8c-1,0.8-2.2,1.2-3.5,1.2
	C329.3,287.6,326.8,287.4,326.8,286.6z"/>
<path class="st2" d="M307.4,279.2c-0.4,0-0.7,0.5-1.5,1.4c-1.2,1.2-2.6,2.2-4.1,3c-2.6,1.3-7.8,3.4-10.1,4.4
	c-1.5,0.6-1.4,2.4,0.1,3.4s5.1,1.7,9.5,0.7c2.4-0.5,5.5-2.7,7.4-2.6s5.6,0.1,7-0.9s0.9-3.1,0.5-4.9c-0.4-2-1-5.1-1.7-4.9v0.7
	c-0.8,1.3-5.2,1.8-7.1,0.9L307.4,279.2z"/>
<path class="st2" d="M319,203.9c-3.6-1.1-7-3.1-9.8-5.6c0,0,1.9,3.5,7.5,6.8L316,230L319,203.9z"/>
<g>
	<path class="st0" d="M334.9,139.9c-2.7,0-5.3,3.9-7.5,6.4c-2.7,3.1-7.6,11.3-13.2,15.6c-2.4,1.8-11.1,9.4-15.5,10.2l0.4,4.4
		c5.6-0.6,16.5-4.6,19.6-6.7c6.3-4.2,11.7-9.5,15.9-15.8C338.4,148,339.4,141.3,334.9,139.9z"/>
</g>
<path class="st7" d="M334.2,139.1c3.4,1.6,4.7,4.1,3.2,9.7c-1.3,5-6.5,13.5-10.5,17.7c0,0-6.9-3.3-10.6-7.5
	c3.6-5.6,5.4-8.8,8.8-13.6S332.1,138.5,334.2,139.1z"/>
<g class="st16">
	<path d="M334.2,139.1c3.4,1.6,4.7,4.1,3.2,9.7c-1.3,5-6.5,13.5-10.5,17.7c0,0-6.9-3.3-10.6-7.5c3.6-5.6,5.4-8.8,8.8-13.6
		S332.1,138.5,334.2,139.1z"/>
</g>
<g>
	<g>
		<g>
			<path class="st17" d="M186.4,171.3c0,0,1.7,0,3.3,0.1l43.6-25.2c2-1.2,5.2-1.3,6.9-0.3l31.1,17.9c-1.3,10-9.1,20.2-23.2,28.3
				c-5.8,3.4-12.3,6.1-19,8.2l-41.6-24c-0.8-0.5-1.2-1.1-1.2-1.8l0,0V171.3z"/>
			<path class="st18" d="M234.6,197.8l-0.3,0.9c4.9-1.8,9.6-4,13.9-6.5c14.1-8.1,21.9-18.4,23.2-28.3l31.4,18.1l3.4-0.3v3.4l0,0
				c0,0.8-0.6,1.6-1.7,2.2l-45.3,26.1c-2,1.2-5.2,1.3-6.9,0.3l-23.1-13.3v-3.3L234.6,197.8z"/>
		</g>
		<g>
			<path class="st8" d="M271.4,160.6L305,180c1.8,1,1.5,2.8-0.5,4l-45.3,26.1c-2,1.2-5.2,1.3-6.9,0.3l-23.1-13.3
				c6.8-2.1,13.2-4.8,19-8.2C262.3,180.7,270.1,170.5,271.4,160.6z"/>
			<path class="st12" d="M188.1,169l45.3-26.1c2-1.2,5.2-1.3,6.9-0.3l31.1,17.9c-1.3,10-9.1,20.2-23.2,28.3
				c-5.8,3.4-12.3,6.1-19,8.2l-41.6-24C185.8,172,186,170.2,188.1,169z"/>
		</g>
		<polygon class="st6" points="257.1,192.8 268.9,199.6 272.6,197.6 260.7,190.7 		"/>
		<polygon class="st6" points="230.2,183.2 263.8,202.6 265.6,201.5 232.1,182.1 		"/>
		<polygon class="st6" points="239.8,190.8 262,203.6 260.2,204.7 238,191.9 		"/>
		<polygon class="st6" points="241.8,184 253.6,190.8 257.3,188.7 245.4,181.9 		"/>
		<polygon class="st6" points="226.5,175.1 238.4,182 242,179.9 230.1,173.1 		"/>
		<polygon class="st6" points="211.2,166.3 223.1,173.2 226.7,171.1 214.8,164.2 		"/>
		<path class="st19" d="M276.1,181.2l10.7,6.1c1.1,0.6,0.9,1.7-0.3,2.4l-5.5,3.2c-1.2,0.7-3.1,0.8-4.1,0.2l-10.7-6.1
			c-1.1-0.6-0.9-1.7,0.3-2.4l5.5-3.2C273.1,180.7,275,180.6,276.1,181.2z"/>
		<path class="st19" d="M230.5,147.9c-3.1,1.8-3.4,4.5-0.7,6s7.3,1.3,10.4-0.4c3.1-1.8,3.4-4.5,0.7-6
			C238.2,145.9,233.6,146.1,230.5,147.9z"/>
		<path class="st8" d="M237.9,152.2c-3.1,1.8-3.4,4.5-0.7,6s7.3,1.3,10.4-0.4c3.1-1.8,3.4-4.5,0.7-6
			C245.6,150.2,241,150.4,237.9,152.2z"/>
	</g>
	<path class="st0" d="M269.1,155.8c-0.3-0.8-4.6-5-9.2-4c-3.4,0.7-3.8,3-1.1,4.1c1.1,0.5,4.4-0.1,4.4-0.1l4.5,2.6
		C267.7,158.4,269.9,158.1,269.1,155.8z"/>
	<path class="st0" d="M300,173.9c-0.3-0.8-4.1-5-8.7-4.1c-3.4,0.7-3.8,3-1.1,4.1c1.1,0.5,4.4,0,4.4,0l4.5,2.6
		C299.1,176.6,300.8,176.2,300,173.9z"/>
</g>
<g>
	<g>
		<path class="st20" d="M296.4,378c0,0-2.1,0.1-4.2,0.1L238,346.8c-2.5-1.5-6.4-1.6-8.6-0.4l-38.7,22.3
			c1.6,12.4,11.3,25.1,28.9,35.2c7.2,4.2,15.3,7.6,23.7,10.2l51.8-29.9c1-0.6,1.5-1.4,1.5-2.2l0,0V378z"/>
		<path class="st21" d="M236.5,411l0.3,1.1c-6.1-2.3-11.9-4.9-17.3-8c-17.5-10.1-27.3-22.8-28.9-35.2l-39.1,22.6l-4.2-0.4v4.2l0,0
			c0,1,0.7,2,2.1,2.8l56.4,32.5c2.5,1.5,6.4,1.6,8.6,0.4l28.7-16.6v-4.1L236.5,411z"/>
	</g>
	<g>
		<path class="st20" d="M190.6,364.7l-41.8,24.1c-2.2,1.3-1.9,3.5,0.6,5l56.4,32.5c2.5,1.5,6.4,1.6,8.6,0.4l28.7-16.6
			c-8.4-2.6-16.4-6-23.7-10.2C202,389.8,192.2,377.1,190.6,364.7z"/>
		<path class="st21" d="M294.3,375.2L238,342.7c-2.5-1.5-6.4-1.6-8.6-0.4l-38.7,22.3c1.6,12.4,11.3,25.1,28.9,35.2
			c7.2,4.2,15.3,7.6,23.7,10.2l51.8-29.9C297.2,379,296.9,376.7,294.3,375.2z"/>
	</g>
	<polygon class="st6" points="208.5,404.8 193.7,413.3 189.2,410.7 204,402.2 	"/>
	<polygon class="st6" points="241.9,392.8 200.1,417 197.8,415.7 239.6,391.5 	"/>
	<polygon class="st6" points="230,402.4 202.3,418.3 204.6,419.6 232.2,403.7 	"/>
	<polygon class="st6" points="227.5,393.8 212.7,402.3 208.2,399.7 223,391.2 	"/>
	<polygon class="st6" points="246.5,382.8 231.8,391.4 227.3,388.7 242,380.2 	"/>
	<polygon class="st6" points="265.6,371.8 250.8,380.4 246.3,377.8 261.1,369.2 	"/>
	<path class="st6" d="M184.8,390.4l-13.3,7.7c-1.3,0.8-1.1,2.1,0.4,3l6.9,4c1.5,0.9,3.8,1,5.2,0.2l13.3-7.7c1.3-0.8,1.1-2.1-0.4-3
		l-6.9-4C188.5,389.8,186.1,389.7,184.8,390.4z"/>
	<path class="st6" d="M241.5,348.9c3.8,2.2,4.2,5.5,0.9,7.5c-3.3,1.9-9.1,1.7-12.9-0.5c-3.8-2.2-4.2-5.5-0.9-7.5
		C231.9,346.5,237.7,346.7,241.5,348.9z"/>
	<path class="st6" d="M232.3,354.2c3.8,2.2,4.2,5.5,0.9,7.5c-3.3,1.9-9.1,1.7-12.9-0.5c-3.8-2.2-4.2-5.5-0.9-7.5
		C222.7,351.8,228.5,352,232.3,354.2z"/>
</g>
<g>
	<g>
		<path class="st22" d="M236.9,366.3c0,0,2.1,0.1,4.2,0.1l54.3-31.3c2.5-1.5,6.4-1.6,8.6-0.4l38.7,22.3
			c-1.6,12.4-11.3,25.1-28.9,35.2c-7.2,4.2-15.3,7.6-23.7,10.2l-51.8-29.9c-1-0.6-1.5-1.4-1.5-2.2l0,0V366.3z"/>
		<path class="st4" d="M296.9,399.2l-0.3,1.1c6.1-2.3,11.9-4.9,17.3-8c17.5-10.1,27.3-22.8,28.9-35.2l39.1,22.6l4.2-0.4v4.2l0,0
			c0,1-0.7,2-2.1,2.8l-56.4,32.5c-2.5,1.5-6.4,1.6-8.6,0.4l-28.7-16.6v-4.1L296.9,399.2z"/>
	</g>
	<g>
		<path class="st22" d="M342.7,352.9l41.8,24.1c2.2,1.3,1.9,3.5-0.6,5l-56.4,32.5c-2.5,1.5-6.4,1.6-8.6,0.4l-28.7-16.6
			c8.4-2.6,16.4-6,23.7-10.2C331.4,378,341.1,365.3,342.7,352.9z"/>
		<path class="st4" d="M239,363.5l56.4-32.5c2.5-1.5,6.4-1.6,8.6-0.4l38.7,22.3c-1.6,12.4-11.3,25.1-28.9,35.2
			c-7.2,4.2-15.3,7.6-23.7,10.2l-51.8-29.9C236.2,367.2,236.5,364.9,239,363.5z"/>
	</g>
	<polygon class="st6" points="324.9,393 339.6,401.5 344.1,398.9 329.4,390.4 	"/>
	<polygon class="st6" points="291.5,381.1 333.3,405.2 335.5,403.9 293.7,379.8 	"/>
	<polygon class="st6" points="303.4,390.6 331,406.5 328.8,407.8 301.1,391.9 	"/>
	<polygon class="st6" points="305.8,382 320.6,390.6 325.1,388 310.4,379.4 	"/>
	<polygon class="st6" points="286.8,371 301.6,379.6 306.1,377 291.3,368.4 	"/>
	<polygon class="st6" points="267.8,360.1 282.6,368.6 287.1,366 272.3,357.5 	"/>
	<path class="st6" d="M348.5,378.6l13.3,7.7c1.3,0.8,1.1,2.1-0.4,3l-6.9,4c-1.5,0.9-3.8,1-5.2,0.2l-13.3-7.7c-1.3-0.8-1.1-2.1,0.4-3
		l6.9-4C344.9,378,347.2,377.9,348.5,378.6z"/>
	<path class="st6" d="M291.8,337.1c-3.8,2.2-4.2,5.5-0.9,7.5c3.3,1.9,9.1,1.7,12.9-0.5c3.8-2.2,4.2-5.5,0.9-7.5
		C301.4,334.7,295.6,334.9,291.8,337.1z"/>
	<path class="st6" d="M301,342.5c-3.8,2.2-4.2,5.5-0.9,7.5c3.3,1.9,9.1,1.7,12.9-0.5s4.2-5.5,0.9-7.5
		C310.7,340,304.9,340.3,301,342.5z"/>
</g>
</svg>
