<svg xmlns="http://www.w3.org/2000/svg" width="1205" height="55" viewBox="0 0 1205 55"><defs><linearGradient id="tjwna" x1="603" x2="603" y1="55" y2="0" gradientUnits="userSpaceOnUse"><stop offset="0" stop-color="#ffea00" stop-opacity="0"/><stop offset=".07" stop-color="#f3da12" stop-opacity="0"/><stop offset="1" stop-color="#5400ff"/></linearGradient></defs><g><g opacity=".3"><path fill="url(#tjwna)" d="M620.002 6v.028A26.887 26.887 0 0 0 603 0c-6.445 0-12.36 2.26-17.002 6.028V6c-11.002 9-13.187 20.82-75.01 32C417.71 54.867-32.964 54.999-40 55h640v-.17c.985.109 1.985.17 3 .17s2.015-.061 3-.17V55h640c-7.036-.001-457.71-.133-550.988-17-61.823-11.18-64.008-23-75.01-32z"/></g></g></svg>