<svg id="org" xmlns="http://www.w3.org/2000/svg" width="258.969" height="193" viewBox="0 0 258.969 193">
  <defs>
    <style>
      .cls-1, .cls-2 {
        fill: none;
        stroke: #ffb400;
        stroke-width: 2px;
        opacity: 0.15;
      }

      .cls-2, .cls-4 {
        fill-rule: evenodd;
      }

      .cls-3, .cls-4 {
        fill: #ffb400;
      }
    </style>
  </defs>
  <g id="strok_org" data-name="strok org">
    <rect id="Rectangle_13_copy_5" data-name="Rectangle 13 copy 5" class="cls-1" x="-40" y="90" width="102" height="102" rx="10" ry="10"/>
    <rect id="Rectangle_13_copy_6" data-name="Rectangle 13 copy 6" class="cls-1" x="118" y="1" width="49" height="49" rx="10" ry="10"/>
    <path id="Rectangle_13_copy_7" data-name="Rectangle 13 copy 7" class="cls-2" d="M191.254,294.562l12.791-7.385A5.093,5.093,0,0,1,211,289.041l7.385,12.791a5.093,5.093,0,0,1-1.864,6.958l-12.791,7.385a5.093,5.093,0,0,1-6.957-1.864l-7.385-12.792A5.092,5.092,0,0,1,191.254,294.562Z" transform="translate(0 -175)"/>
    <path id="Rectangle_13_copy_8" data-name="Rectangle 13 copy 8" class="cls-2" d="M249.415,200.489l7.135,4.12a2.84,2.84,0,0,1,1.04,3.881l-4.12,7.136a2.841,2.841,0,0,1-3.881,1.04l-7.136-4.12a2.842,2.842,0,0,1-1.04-3.881l4.12-7.136A2.842,2.842,0,0,1,249.415,200.489Z" transform="translate(0 -175)"/>
  </g>
  <g id="fill_org" data-name="fill org">
    <rect class="cls-3" x="-17" y="6" width="48" height="48" rx="10" ry="10"/>
    <path id="Rectangle_13_copy" data-name="Rectangle 13 copy" class="cls-4" d="M54.547,243.516l16.907,9.762a6.972,6.972,0,0,1,2.552,9.524l-9.761,16.907a6.972,6.972,0,0,1-9.524,2.552L37.814,272.5a6.972,6.972,0,0,1-2.552-9.524l9.761-16.908A6.973,6.973,0,0,1,54.547,243.516Z" transform="translate(0 -175)"/>
    <path id="Rectangle_13_copy_2" data-name="Rectangle 13 copy 2" class="cls-4" d="M106.713,235.421l9.715-7.493a4.381,4.381,0,0,1,6.145.793l7.493,9.715a4.382,4.382,0,0,1-.793,6.146l-9.715,7.493a4.381,4.381,0,0,1-6.146-.794l-7.493-9.715A4.38,4.38,0,0,1,106.713,235.421Z" transform="translate(0 -175)"/>
    <path id="Rectangle_13_copy_3" data-name="Rectangle 13 copy 3" class="cls-4" d="M172.745,237.579l6.517,2.68a2.518,2.518,0,0,1,1.37,3.285l-2.681,6.516a2.516,2.516,0,0,1-3.284,1.37l-6.516-2.68a2.516,2.516,0,0,1-1.37-3.285l2.68-6.516A2.516,2.516,0,0,1,172.745,237.579Z" transform="translate(0 -175)"/>
    <path id="Rectangle_13_copy_4" data-name="Rectangle 13 copy 4" class="cls-4" d="M210.6,227.919l3.368-2.6a1.518,1.518,0,0,1,2.131.275l2.6,3.368a1.518,1.518,0,0,1-.275,2.131l-3.368,2.6a1.52,1.52,0,0,1-2.131-.276l-2.6-3.368A1.518,1.518,0,0,1,210.6,227.919Z" transform="translate(0 -175)"/>
  </g>
</svg>
