<svg xmlns="http://www.w3.org/2000/svg" width="15" height="15" viewBox="0 0 15 15"><g><g><path fill="#5400ff" d="M11.4 5.26c.056.05.056.14.004.2l-4.892 4.77h-.004c-.062.057-.23.194-.424.194a.649.649 0 0 1-.428-.202l-2.05-1.986-.007-.007a.138.138 0 0 1 .007-.195l.652-.633a.149.149 0 0 1 .102-.042.15.15 0 0 1 .103.042l1.624 1.576 4.465-4.36a.136.136 0 0 1 .102-.044.14.14 0 0 1 .103.044l.643.642zM15 7.496c0 4.144-3.357 7.5-7.5 7.5A7.499 7.499 0 0 1 0 7.499v-.002C0 3.355 3.357-.002 7.5-.002s7.5 3.357 7.5 7.5zM2.91 2.908a6.447 6.447 0 0 0-1.9 4.59c0 1.733.674 3.364 1.9 4.589a6.45 6.45 0 0 0 4.59 1.9 6.45 6.45 0 0 0 4.59-1.9 6.445 6.445 0 0 0 1.9-4.59 6.447 6.447 0 0 0-1.9-4.589 6.443 6.443 0 0 0-4.59-1.9z"/></g></g></svg>