<svg xmlns="http://www.w3.org/2000/svg" width="48" height="253" viewBox="0 0 48 253"><g><g opacity=".03"><path fill="#5400ff" d="M47.19 204.596l-10.775 6.467c-1.072.644-2.412-.16-2.412-1.447V196.68c0-1.287 1.34-2.092 2.412-1.448l10.774 6.467c1.072.644 1.072 2.253 0 2.896zm-12.383 10.815l10.774-6.467c1.072-.644 2.412.16 2.412 1.447v12.935c0 1.287-1.34 2.092-2.412 1.448l-10.774-6.467c-1.072-.644-1.072-2.253 0-2.896zm12.382 17.185l-10.774 6.468c-1.072.643-2.412-.161-2.412-1.449v-12.934c0-1.287 1.34-2.092 2.412-1.448l10.774 6.467c1.072.644 1.072 2.253 0 2.896zm-12.382 10.815l10.774-6.468c1.072-.643 2.412.161 2.412 1.449v12.934c0 1.287-1.34 2.092-2.412 1.448l-10.774-6.467c-1.072-.644-1.072-2.252 0-2.896zm12.382-94.815l-10.774 6.468c-1.072.643-2.412-.161-2.412-1.448V140.68c0-1.287 1.34-2.092 2.412-1.448l10.774 6.467c1.072.644 1.072 2.253 0 2.896zm-12.382 10.815l10.774-6.467c1.072-.644 2.412.16 2.412 1.448v12.934c0 1.288-1.34 2.092-2.412 1.448l-10.774-6.467c-1.072-.644-1.072-2.252 0-2.896zm12.382 17.185l-10.774 6.468c-1.072.643-2.412-.161-2.412-1.448V168.68c0-1.287 1.34-2.092 2.412-1.448l10.774 6.467c1.072.644 1.072 2.253 0 2.896zm-12.382 10.815l10.774-6.468c1.072-.643 2.412.161 2.412 1.449v12.934c0 1.287-1.34 2.092-2.412 1.448l-10.774-6.467c-1.072-.644-1.072-2.253 0-2.896zm12.382-94.815l-10.774 6.468c-1.072.643-2.412-.161-2.412-1.449V84.681c0-1.287 1.34-2.092 2.412-1.448L47.189 89.7c1.072.644 1.072 2.253 0 2.896zm-12.382 10.815l10.774-6.468c1.072-.643 2.412.161 2.412 1.449v12.934c0 1.288-1.34 2.092-2.412 1.448l-10.774-6.467c-1.072-.644-1.072-2.252 0-2.896zm12.382 17.185l-10.774 6.468c-1.072.643-2.412-.161-2.412-1.448V112.68c0-1.287 1.34-2.092 2.412-1.448l10.774 6.467c1.072.644 1.072 2.253 0 2.896zm-12.382 10.815l10.774-6.467c1.072-.644 2.412.16 2.412 1.448v12.934c0 1.287-1.34 2.092-2.412 1.448l-10.774-6.467c-1.072-.643-1.072-2.253 0-2.896zm12.382-94.815l-10.774 6.468c-1.072.643-2.412-.161-2.412-1.448V28.68c0-1.287 1.34-2.092 2.412-1.448L47.189 33.7c1.072.644 1.072 2.253 0 2.896zM34.807 47.411l10.774-6.468c1.072-.643 2.412.161 2.412 1.449v12.934c0 1.287-1.34 2.092-2.412 1.448l-10.774-6.467c-1.072-.644-1.072-2.253 0-2.896zm12.382 17.185l-10.774 6.467c-1.072.644-2.412-.16-2.412-1.447V56.68c0-1.287 1.34-2.092 2.412-1.448L47.189 61.7c1.072.644 1.072 2.253 0 2.896zM34.807 75.411l10.774-6.467c1.072-.644 2.412.16 2.412 1.447v12.935c0 1.287-1.34 2.092-2.412 1.448l-10.774-6.467c-1.072-.644-1.072-2.253 0-2.896zm-4.618 116.185l-10.774 6.468c-1.072.643-2.412-.161-2.412-1.448V183.68c0-1.287 1.34-2.092 2.412-1.448l10.774 6.467c1.072.644 1.072 2.253 0 2.896zm-12.382 10.815l10.774-6.467c1.072-.644 2.412.16 2.412 1.448v12.934c0 1.288-1.34 2.092-2.412 1.448l-10.774-6.467c-1.072-.644-1.072-2.252 0-2.896zm12.382 17.185l-10.774 6.468c-1.072.643-2.412-.161-2.412-1.448V211.68c0-1.287 1.34-2.092 2.412-1.448l10.774 6.467c1.072.644 1.072 2.253 0 2.896zm-12.382 10.815l10.774-6.468c1.072-.643 2.412.161 2.412 1.449v12.934c0 1.287-1.34 2.092-2.412 1.448l-10.774-6.467c-1.072-.644-1.072-2.253 0-2.896zm12.382-94.815l-10.774 6.468c-1.072.643-2.412-.161-2.412-1.449v-12.934c0-1.287 1.34-2.092 2.412-1.448l10.774 6.467c1.072.644 1.072 2.253 0 2.896zm-12.382 10.815l10.774-6.468c1.072-.643 2.412.161 2.412 1.449v12.934c0 1.288-1.34 2.092-2.412 1.448l-10.774-6.467c-1.072-.644-1.072-2.252 0-2.896zm12.382 17.185l-10.774 6.468c-1.072.643-2.412-.161-2.412-1.448V155.68c0-1.287 1.34-2.092 2.412-1.448l10.774 6.467c1.072.644 1.072 2.253 0 2.896zm-12.382 10.815l10.774-6.467c1.072-.644 2.412.16 2.412 1.448v12.934c0 1.287-1.34 2.092-2.412 1.448l-10.774-6.467c-1.072-.644-1.072-2.253 0-2.896zm12.382-94.815l-10.774 6.468c-1.072.643-2.412-.161-2.412-1.448V71.68c0-1.287 1.34-2.092 2.412-1.448L30.189 76.7c1.072.644 1.072 2.253 0 2.896zM17.807 90.411l10.774-6.468c1.072-.643 2.412.161 2.412 1.449v12.934c0 1.287-1.34 2.092-2.412 1.448l-10.774-6.467c-1.072-.644-1.072-2.253 0-2.896zm12.382 17.185l-10.774 6.467c-1.072.644-2.412-.16-2.412-1.447V99.68c0-1.287 1.34-2.092 2.412-1.448l10.774 6.467c1.072.644 1.072 2.253 0 2.896zm-12.382 10.815l10.774-6.467c1.072-.644 2.412.16 2.412 1.447v12.935c0 1.287-1.34 2.092-2.412 1.448l-10.774-6.467c-1.072-.644-1.072-2.253 0-2.896zm12.382-94.815l-10.774 6.468c-1.072.643-2.412-.161-2.412-1.448V15.68c0-1.287 1.34-2.092 2.412-1.448L30.189 20.7c1.072.644 1.072 2.253 0 2.896zM17.807 34.411l10.774-6.467c1.072-.644 2.412.16 2.412 1.448v12.934c0 1.287-1.34 2.092-2.412 1.448l-10.774-6.467c-1.072-.644-1.072-2.253 0-2.896zm12.382 17.185l-10.774 6.468c-1.072.643-2.412-.161-2.412-1.448V43.68c0-1.287 1.34-2.092 2.412-1.448L30.189 48.7c1.072.644 1.072 2.253 0 2.896zM17.807 62.411l10.774-6.467c1.072-.644 2.412.16 2.412 1.448v12.934c0 1.288-1.34 2.092-2.412 1.448l-10.774-6.467c-1.072-.644-1.072-2.252 0-2.896zm-4.618 115.185l-10.774 6.467c-1.072.644-2.412-.16-2.412-1.447V169.68c0-1.287 1.34-2.092 2.412-1.448L13.19 174.7c1.072.644 1.072 2.253 0 2.896zM.807 188.411l10.774-6.467c1.072-.644 2.412.16 2.412 1.447v12.935c0 1.287-1.34 2.092-2.412 1.448L.807 191.307c-1.072-.644-1.072-2.253 0-2.896zm12.382 17.185l-10.774 6.468c-1.072.643-2.412-.161-2.412-1.449v-12.934c0-1.287 1.34-2.092 2.412-1.448L13.19 202.7c1.072.644 1.072 2.253 0 2.896zM.807 216.411l10.774-6.468c1.072-.643 2.412.161 2.412 1.449v12.934c0 1.288-1.34 2.092-2.412 1.448L.807 219.307c-1.072-.644-1.072-2.252 0-2.896zm12.382-94.815l-10.774 6.468c-1.072.643-2.412-.161-2.412-1.448V113.68c0-1.287 1.34-2.092 2.412-1.448L13.19 118.7c1.072.644 1.072 2.253 0 2.896zM.807 132.411l10.774-6.467c1.072-.644 2.412.16 2.412 1.448v12.934c0 1.288-1.34 2.092-2.412 1.448L.807 135.307c-1.072-.644-1.072-2.252 0-2.896zm12.382 17.185l-10.774 6.468c-1.072.643-2.412-.161-2.412-1.448V141.68c0-1.287 1.34-2.092 2.412-1.448L13.19 146.7c1.072.644 1.072 2.253 0 2.896zM.807 160.411l10.774-6.468c1.072-.643 2.412.161 2.412 1.449v12.934c0 1.287-1.34 2.092-2.412 1.448L.807 163.307c-1.072-.644-1.072-2.253 0-2.896zm12.382-94.815L2.415 72.064c-1.072.643-2.412-.161-2.412-1.449V57.681c0-1.287 1.34-2.092 2.412-1.448L13.19 62.7c1.072.644 1.072 2.253 0 2.896zM.807 76.411l10.774-6.468c1.072-.643 2.412.161 2.412 1.449v12.934c0 1.288-1.34 2.092-2.412 1.448L.807 79.307c-1.072-.644-1.072-2.252 0-2.896zm12.382 17.185l-10.774 6.468c-1.072.643-2.412-.161-2.412-1.448V85.68c0-1.287 1.34-2.092 2.412-1.448L13.19 90.7c1.072.644 1.072 2.253 0 2.896zM.807 104.411l10.774-6.467c1.072-.644 2.412.16 2.412 1.448v12.934c0 1.287-1.34 2.092-2.412 1.448L.807 107.307c-1.072-.644-1.072-2.253 0-2.896zM13.189 9.596L2.415 16.064c-1.072.643-2.412-.161-2.412-1.448V1.68C.003.394 1.343-.411 2.415.233L13.19 6.7c1.072.644 1.072 2.253 0 2.896zM.807 20.411l10.774-6.468c1.072-.643 2.412.161 2.412 1.449v12.934c0 1.287-1.34 2.092-2.412 1.448L.807 23.307c-1.072-.644-1.072-2.253 0-2.896zm12.382 17.185L2.415 44.063c-1.072.644-2.412-.16-2.412-1.447V29.68c0-1.287 1.34-2.092 2.412-1.448L13.19 34.7c1.072.644 1.072 2.253 0 2.896zM.807 48.411l10.774-6.467c1.072-.644 2.412.16 2.412 1.447v12.935c0 1.287-1.34 2.092-2.412 1.448L.807 51.307c-1.072-.644-1.072-2.253 0-2.896z"/></g></g></svg>