<svg xmlns="http://www.w3.org/2000/svg" width="48" height="253" viewBox="0 0 48 253"><g><g opacity=".03"><path fill="#5400ff" d="M.81 201.7l10.775-6.467c1.072-.644 2.412.16 2.412 1.448v12.935c0 1.287-1.34 2.091-2.412 1.447L.81 204.596c-1.072-.643-1.072-2.252 0-2.896zm12.383 16.607L2.42 224.774c-1.072.644-2.412-.16-2.412-1.448v-12.935c0-1.286 1.34-2.091 2.412-1.447l10.774 6.467c1.072.643 1.072 2.252 0 2.896zM.811 229.7l10.774-6.467c1.072-.644 2.412.16 2.412 1.448v12.934c0 1.288-1.34 2.092-2.412 1.449L.81 232.596c-1.072-.643-1.072-2.252 0-2.896zm12.382 16.607L2.42 252.774c-1.072.644-2.412-.16-2.412-1.448v-12.934c0-1.288 1.34-2.092 2.412-1.449l10.774 6.468c1.072.644 1.072 2.252 0 2.896zM.811 145.7l10.774-6.467c1.072-.644 2.412.16 2.412 1.448v12.935c0 1.287-1.34 2.091-2.412 1.448L.81 148.596c-1.072-.643-1.072-2.252 0-2.896zm12.382 16.607L2.42 168.774c-1.072.644-2.412-.16-2.412-1.448v-12.934c0-1.288 1.34-2.092 2.412-1.448l10.774 6.467c1.072.644 1.072 2.252 0 2.896zM.811 173.7l10.774-6.467c1.072-.644 2.412.16 2.412 1.448v12.935c0 1.287-1.34 2.091-2.412 1.448L.81 176.596c-1.072-.643-1.072-2.252 0-2.896zm12.382 16.607L2.42 196.774c-1.072.644-2.412-.16-2.412-1.448v-12.934c0-1.288 1.34-2.092 2.412-1.449l10.774 6.468c1.072.643 1.072 2.252 0 2.896zM.811 89.7l10.774-6.467c1.072-.644 2.412.16 2.412 1.448v12.934c0 1.288-1.34 2.092-2.412 1.449L.81 92.596c-1.072-.643-1.072-2.252 0-2.896zm12.382 16.607L2.42 112.774c-1.072.644-2.412-.16-2.412-1.448V98.392c0-1.288 1.34-2.092 2.412-1.449l10.774 6.468c1.072.644 1.072 2.252 0 2.896zM.811 117.7l10.774-6.467c1.072-.644 2.412.16 2.412 1.448v12.935c0 1.287-1.34 2.091-2.412 1.448L.81 120.596c-1.072-.643-1.072-2.252 0-2.896zm12.382 16.607L2.42 140.774c-1.072.644-2.412-.16-2.412-1.448v-12.934c0-1.287 1.34-2.092 2.412-1.448l10.774 6.467c1.072.643 1.072 2.252 0 2.896zM.811 33.7l10.774-6.467c1.072-.644 2.412.16 2.412 1.448v12.935c0 1.287-1.34 2.091-2.412 1.448L.81 36.596c-1.072-.643-1.072-2.252 0-2.896zm12.382 16.607L2.42 56.774c-1.072.644-2.412-.16-2.412-1.448V42.392c0-1.288 1.34-2.092 2.412-1.449l10.774 6.468c1.072.643 1.072 2.252 0 2.896zM.811 61.7l10.774-6.467c1.072-.644 2.412.16 2.412 1.448v12.935c0 1.287-1.34 2.091-2.412 1.447L.81 64.596c-1.072-.643-1.072-2.252 0-2.896zm12.382 16.607L2.42 84.774c-1.072.644-2.412-.16-2.412-1.448V70.391c0-1.286 1.34-2.091 2.412-1.447l10.774 6.467c1.072.643 1.072 2.252 0 2.896zM17.811 188.7l10.774-6.467c1.072-.644 2.412.16 2.412 1.448v12.935c0 1.287-1.34 2.091-2.412 1.448l-10.774-6.468c-1.073-.643-1.073-2.252 0-2.896zm12.382 16.607l-10.774 6.467c-1.072.644-2.412-.16-2.412-1.448v-12.934c0-1.288 1.34-2.092 2.412-1.448l10.774 6.467c1.072.644 1.072 2.252 0 2.896zM17.811 216.7l10.774-6.467c1.072-.644 2.412.16 2.412 1.448v12.935c0 1.287-1.34 2.091-2.412 1.448l-10.774-6.468c-1.073-.643-1.073-2.252 0-2.896zm12.382 16.607l-10.774 6.467c-1.072.644-2.412-.16-2.412-1.448v-12.934c0-1.288 1.34-2.092 2.412-1.449l10.774 6.468c1.072.643 1.072 2.252 0 2.896zM17.811 132.7l10.774-6.467c1.072-.644 2.412.16 2.412 1.448v12.934c0 1.288-1.34 2.092-2.412 1.449l-10.774-6.468c-1.073-.643-1.073-2.252 0-2.896zm12.382 16.607l-10.774 6.467c-1.072.644-2.412-.16-2.412-1.448v-12.934c0-1.288 1.34-2.092 2.412-1.449l10.774 6.468c1.072.644 1.072 2.252 0 2.896zM17.811 160.7l10.774-6.467c1.072-.644 2.412.16 2.412 1.448v12.935c0 1.287-1.34 2.091-2.412 1.448l-10.774-6.468c-1.073-.643-1.073-2.252 0-2.896zm12.382 16.607l-10.774 6.467c-1.072.644-2.412-.16-2.412-1.448v-12.934c0-1.288 1.34-2.092 2.412-1.448l10.774 6.467c1.072.643 1.072 2.252 0 2.896zM17.811 76.7l10.774-6.467c1.072-.644 2.412.16 2.412 1.448v12.935c0 1.287-1.34 2.091-2.412 1.448L17.81 79.596c-1.073-.643-1.073-2.252 0-2.896zm12.382 16.607L19.42 99.774c-1.072.644-2.412-.16-2.412-1.448V85.392c0-1.288 1.34-2.092 2.412-1.449l10.774 6.468c1.072.643 1.072 2.252 0 2.896zM17.811 104.7l10.774-6.467c1.072-.644 2.412.16 2.412 1.448v12.935c0 1.287-1.34 2.091-2.412 1.447l-10.774-6.467c-1.073-.643-1.073-2.252 0-2.896zm12.382 16.607l-10.774 6.467c-1.072.644-2.412-.16-2.412-1.448v-12.935c0-1.286 1.34-2.091 2.412-1.447l10.774 6.467c1.072.643 1.072 2.252 0 2.896zM17.811 20.7l10.774-6.467c1.072-.644 2.412.16 2.412 1.448v12.935c0 1.287-1.34 2.091-2.412 1.448L17.81 23.596c-1.073-.643-1.073-2.252 0-2.896zm12.382 16.607L19.42 43.774c-1.072.644-2.412-.16-2.412-1.448V29.392c0-1.288 1.34-2.092 2.412-1.448l10.774 6.467c1.072.643 1.072 2.252 0 2.896zM17.811 48.7l10.774-6.467c1.072-.644 2.412.16 2.412 1.448v12.935c0 1.287-1.34 2.091-2.412 1.448L17.81 51.596c-1.073-.643-1.073-2.252 0-2.896zm12.382 16.607L19.42 71.774c-1.072.644-2.412-.16-2.412-1.448V57.392c0-1.288 1.34-2.092 2.412-1.448l10.774 6.467c1.072.644 1.072 2.252 0 2.896zM34.811 174.7l10.774-6.467c1.072-.644 2.412.16 2.412 1.448v12.935c0 1.287-1.34 2.091-2.412 1.447l-10.774-6.467c-1.072-.643-1.072-2.252 0-2.896zm12.382 16.607l-10.774 6.467c-1.072.644-2.412-.16-2.412-1.448v-12.935c0-1.286 1.34-2.091 2.412-1.447l10.774 6.467c1.072.643 1.072 2.252 0 2.896zM34.811 202.7l10.774-6.467c1.072-.644 2.412.16 2.412 1.448v12.934c0 1.288-1.34 2.092-2.412 1.449l-10.774-6.468c-1.072-.643-1.072-2.252 0-2.896zm12.382 16.607l-10.774 6.467c-1.072.644-2.412-.16-2.412-1.448v-12.934c0-1.288 1.34-2.092 2.412-1.449l10.774 6.468c1.072.644 1.072 2.252 0 2.896zM34.811 118.7l10.774-6.467c1.072-.644 2.412.16 2.412 1.448v12.935c0 1.287-1.34 2.091-2.412 1.448l-10.774-6.468c-1.072-.643-1.072-2.252 0-2.896zm12.382 16.607l-10.774 6.467c-1.072.644-2.412-.16-2.412-1.448v-12.934c0-1.288 1.34-2.092 2.412-1.448l10.774 6.467c1.072.644 1.072 2.252 0 2.896zM34.811 146.7l10.774-6.467c1.072-.644 2.412.16 2.412 1.448v12.935c0 1.287-1.34 2.091-2.412 1.448l-10.774-6.468c-1.072-.643-1.072-2.252 0-2.896zm12.382 16.607l-10.774 6.467c-1.072.644-2.412-.16-2.412-1.448v-12.934c0-1.288 1.34-2.092 2.412-1.449l10.774 6.468c1.072.643 1.072 2.252 0 2.896zM34.811 62.7l10.774-6.467c1.072-.644 2.412.16 2.412 1.448v12.934c0 1.288-1.34 2.092-2.412 1.449L34.81 65.596c-1.072-.643-1.072-2.252 0-2.896zm12.382 16.607L36.42 85.774c-1.072.644-2.412-.16-2.412-1.448V71.392c0-1.288 1.34-2.092 2.412-1.449l10.774 6.468c1.072.644 1.072 2.252 0 2.896zM34.811 90.7l10.774-6.467c1.072-.644 2.412.16 2.412 1.448v12.935c0 1.287-1.34 2.091-2.412 1.448L34.81 93.596c-1.072-.643-1.072-2.252 0-2.896zm12.382 16.607l-10.774 6.467c-1.072.644-2.412-.16-2.412-1.448V99.392c0-1.287 1.34-2.092 2.412-1.448l10.774 6.467c1.072.643 1.072 2.252 0 2.896zM34.811 6.7L45.585.233c1.072-.644 2.412.16 2.412 1.448v12.935c0 1.287-1.34 2.091-2.412 1.448L34.81 9.596c-1.072-.643-1.072-2.252 0-2.896zm12.382 16.607L36.42 29.774c-1.072.644-2.412-.16-2.412-1.448V15.392c0-1.288 1.34-2.092 2.412-1.449l10.774 6.468c1.072.643 1.072 2.252 0 2.896zM34.811 34.7l10.774-6.467c1.072-.644 2.412.16 2.412 1.448v12.935c0 1.287-1.34 2.091-2.412 1.447L34.81 37.596c-1.072-.643-1.072-2.252 0-2.896zm12.382 16.607L36.42 57.774c-1.072.644-2.412-.16-2.412-1.448V43.391c0-1.286 1.34-2.091 2.412-1.447l10.774 6.467c1.072.643 1.072 2.252 0 2.896z"/></g></g></svg>